<svg xmlns="http://www.w3.org/2000/svg" xmlns:xlink="http://www.w3.org/1999/xlink" viewBox="0 0 219.36 252.9"><defs><style>.cls-1,.cls-8,.cls-9{isolation:isolate;}.cls-2{fill:#491f07;}.cls-3{fill:#9ca69f;}.cls-4,.cls-5,.cls-7{mix-blend-mode:multiply;}.cls-4{opacity:0.22;}.cls-5,.cls-9{opacity:0.41;}.cls-6{fill:url(#linear-gradient);}.cls-7{opacity:0.12;}.cls-8,.cls-9{fill:#fff;}.cls-8{opacity:0.18;}</style><linearGradient id="linear-gradient" x1="258.25" y1="190.38" x2="413.43" y2="411.94" gradientUnits="userSpaceOnUse"><stop offset="0" stop-color="#c8752a"/><stop offset="1" stop-color="#9b5825"/></linearGradient></defs><g class="cls-1"><g id="Layer_4" data-name="Layer 4"><polygon class="cls-2" points="20.72 207.39 24.96 193.72 54.54 181.16 20.72 207.39"/><polygon class="cls-2" points="202.25 202.07 197.48 191.13 177.98 185.37 181.15 193.72 202.25 202.07"/><polygon class="cls-2" points="45.03 54.62 56.71 56.63 60.95 65.1 50.36 67.31 45.03 54.62"/><path class="cls-3" d="M363.87,166.75a5.63,5.63,0,0,1-5.62,5.62H303.31a5.62,5.62,0,0,1-4.92-2.91,5.49,5.49,0,0,1-.7-2.71,5.58,5.58,0,0,1,1.28-3.56,3.7,3.7,0,0,1,.37-.42,5.59,5.59,0,0,1,4-1.65h54.94a5.55,5.55,0,0,1,3.45,1.19A5.63,5.63,0,0,1,363.87,166.75Z" transform="translate(-221.1 -150.72)"/><path class="cls-4" d="M363.87,166.75a5.63,5.63,0,0,1-5.62,5.62H312.91l0-11.25h35.78v8.58c7.78-1,11.59-5.29,13-7.39A5.63,5.63,0,0,1,363.87,166.75Z" transform="translate(-221.1 -150.72)"/><path class="cls-3" d="M338.33,177.07v4.2h7.38v16.67H315.85V181.27h7.38v-4.2h-5.41a2,2,0,0,1-2-2V158.89a8.06,8.06,0,0,1,1.06-4,7.46,7.46,0,0,1,1.07-1.5,8.64,8.64,0,0,1,1.33-1.16,7.29,7.29,0,0,1,1.67-.91,7.57,7.57,0,0,1,1.58-.46,8.45,8.45,0,0,1,1.43-.13h13.79a7.46,7.46,0,0,1,1.43.17,7.84,7.84,0,0,1,3.29,1.5,8.89,8.89,0,0,1,1.3,1.23,8.17,8.17,0,0,1,1.91,5.26V175.1a2,2,0,0,1-2,2Z" transform="translate(-221.1 -150.72)"/><path class="cls-5" d="M345.71,183.85v4.52H315.85v-4.53A94.12,94.12,0,0,1,345.71,183.85Z" transform="translate(-221.1 -150.72)"/><path class="cls-6" d="M406.49,340.33l-4.24-1.53,3.68,2.44,17.42,11.55a109.69,109.69,0,0,1-181.53,5.32l16.1-13.4,10.36-8.62-11.73,6.59L238.3,352.93a109.71,109.71,0,0,1,27.83-147.59l9.51,6.94-4.29-10.54a109.72,109.72,0,0,1,167.42,72.91,110.45,110.45,0,0,1,1.69,19.29,109.08,109.08,0,0,1-14,53.62Z" transform="translate(-221.1 -150.72)"/><path class="cls-7" d="M406.49,340.33l-4.24-1.53,3.68,2.44,17.42,11.55A109.66,109.66,0,0,1,261.77,379.2h0q-3.43-2.78-6.63-5.82c38.82-.29,137.9-10.1,183.64-98.72a110.45,110.45,0,0,1,1.69,19.29,109.08,109.08,0,0,1-14,53.62Z" transform="translate(-221.1 -150.72)"/><path class="cls-5" d="M406.49,340.33l-4.24-1.53,3.68,2.44a88.87,88.87,0,0,1-96.73,38.84,87.36,87.36,0,0,1-19.79-7.57h0a89,89,0,0,1-31.48-27.8l10.36-8.62-11.73,6.59a88.8,88.8,0,1,1,149.94-2.35Z" transform="translate(-221.1 -150.72)"/><path class="cls-5" d="M368.61,233.29l4.94,9.24-33.4,6,23.72-10.41-5.67-9.87L376.86,218a88.79,88.79,0,0,1,18.76,15.26Z" transform="translate(-221.1 -150.72)"/><path class="cls-5" d="M313.51,372.51l2.34,3.64-6.65,3.93a87.36,87.36,0,0,1-19.79-7.57L306.53,370l-3.93-4.36h17.45Z" transform="translate(-221.1 -150.72)"/><path class="cls-8" d="M327.36,209s-72.23,5.6-81.3,85C255.13,260.33,282.05,222.27,327.36,209Z" transform="translate(-221.1 -150.72)"/><rect class="cls-5" x="102.13" y="26.35" width="15.1" height="4.2"/><path class="cls-5" d="M319.31,152.22,318,159.48v-6.1A8.64,8.64,0,0,1,319.31,152.22Z" transform="translate(-221.1 -150.72)"/><path class="cls-5" d="M322.56,150.85,321,159.48v-8.17A7.57,7.57,0,0,1,322.56,150.85Z" transform="translate(-221.1 -150.72)"/><polygon class="cls-5" points="104.5 0 102.89 8.76 102.89 0 104.5 0"/><polygon class="cls-5" points="107.51 0 105.9 8.76 105.9 0 107.51 0"/><polygon class="cls-5" points="110.58 0 109.68 8.76 108.97 0 110.58 0"/><path class="cls-5" d="M340.79,151.39v8.09l-1.58-8.58A8.29,8.29,0,0,1,340.79,151.39Z" transform="translate(-221.1 -150.72)"/><path class="cls-5" d="M337.78,150.73v8.75l-1.61-8.76h1.61Z" transform="translate(-221.1 -150.72)"/><path class="cls-5" d="M343.8,153.63v5.85l-1.3-7.08A8.89,8.89,0,0,1,343.8,153.63Z" transform="translate(-221.1 -150.72)"/><polygon class="cls-5" points="113.67 0 113.67 8.76 112.06 0 113.67 0"/><path class="cls-9" d="M316.91,154.88v22a2,2,0,0,1-1.06-1.75V158.89A8.06,8.06,0,0,1,316.91,154.88Z" transform="translate(-221.1 -150.72)"/><path class="cls-7" d="M345.71,167.77v7.33a2,2,0,0,1-2,2H323.66C336.79,174.7,343.36,169.9,345.71,167.77Z" transform="translate(-221.1 -150.72)"/><path class="cls-9" d="M304.57,161.12a7.59,7.59,0,0,0-6.18,8.34,5.49,5.49,0,0,1-.7-2.71,5.58,5.58,0,0,1,1.28-3.56,3.7,3.7,0,0,1,.37-.42,5.59,5.59,0,0,1,4-1.65Z" transform="translate(-221.1 -150.72)"/></g></g></svg>