<svg width="248" height="68" viewBox="0 0 248 68" fill="none" xmlns="http://www.w3.org/2000/svg">
<g filter="url(#filter0_d)">
<path d="M4 31C4 14.4315 17.4315 1.00003 34 1.00003H214C230.569 1.00003 244 14.4315 244 31V31C244 47.5686 230.569 61 214 61H34C17.4315 61 4 47.5686 4 31V31Z" fill="#D6312F"/>
</g>
<path d="M4.03058 31.1241L244 31.1548C243.609 8.87438 224.32 0.924992 214.75 1.00052L32.8679 1.00075C11.6111 2.4782 3.79251 20.1963 4.03058 31.1241Z" fill="white" fill-opacity="0.15"/>
<path d="M65.4299 25.864H76.0559V29.208H70.7759V31.958H75.5939V34.73H70.7759V37.656H76.0559V41H65.4299V25.864ZM79.2839 30.132H83.7059V32.376C84.5566 30.6746 85.9059 29.824 87.7539 29.824C89.1619 29.824 90.2619 30.33 91.0539 31.342C91.8606 32.3393 92.2639 33.7253 92.2639 35.5V41H87.6439V35.038C87.6439 34.4073 87.5046 33.9233 87.2259 33.586C86.9619 33.2486 86.5879 33.08 86.1039 33.08C85.7519 33.08 85.4073 33.1973 85.0699 33.432C84.7326 33.652 84.4539 33.9746 84.2339 34.4C84.0286 34.8253 83.9259 35.3093 83.9259 35.852V41H79.2839V30.132ZM100.305 41.176C99.3081 41.176 98.3988 40.912 97.5774 40.384C96.7708 39.856 96.1328 39.1593 95.6634 38.294C95.1941 37.414 94.9594 36.4826 94.9594 35.5C94.9594 34.4586 95.2014 33.5053 95.6854 32.64C96.1841 31.76 96.8441 31.0706 97.6654 30.572C98.5014 30.0733 99.3888 29.824 100.327 29.824C101.178 29.824 101.897 30 102.483 30.352C103.085 30.704 103.569 31.2686 103.935 32.046V26.502L108.577 25.82V41H103.935V38.954C103.246 40.4353 102.036 41.176 100.305 41.176ZM101.757 37.7C102.373 37.7 102.887 37.48 103.297 37.04C103.723 36.6 103.935 36.0866 103.935 35.5V35.412C103.935 34.84 103.715 34.3486 103.275 33.938C102.835 33.5126 102.329 33.3 101.757 33.3C101.141 33.3 100.621 33.52 100.195 33.96C99.7848 34.3853 99.5794 34.8986 99.5794 35.5C99.5794 36.116 99.7921 36.6366 100.217 37.062C100.657 37.4873 101.171 37.7 101.757 37.7ZM124.501 41.352C123.019 41.352 121.685 41 120.497 40.296C119.309 39.5773 118.377 38.602 117.703 37.37C117.028 36.138 116.691 34.7813 116.691 33.3C116.691 31.8773 117.028 30.572 117.703 29.384C118.392 28.196 119.345 27.2573 120.563 26.568C121.78 25.8786 123.166 25.534 124.721 25.534C125.571 25.534 126.393 25.6293 127.185 25.82C127.991 26.0106 128.717 26.282 129.363 26.634L127.911 30.044C126.913 29.6333 125.982 29.428 125.117 29.428C123.987 29.428 123.115 29.7946 122.499 30.528C121.883 31.2466 121.575 32.1926 121.575 33.366C121.575 34.1286 121.714 34.818 121.993 35.434C122.271 36.0353 122.66 36.512 123.159 36.864C123.672 37.216 124.251 37.392 124.897 37.392C125.249 37.392 125.542 37.3626 125.777 37.304V33.762L129.583 33.322V40.208C127.925 40.9706 126.231 41.352 124.501 41.352ZM137.595 41.176C136.641 41.176 135.747 40.9266 134.911 40.428C134.089 39.9146 133.429 39.2253 132.931 38.36C132.432 37.48 132.183 36.5046 132.183 35.434C132.183 34.378 132.432 33.4246 132.931 32.574C133.429 31.7086 134.097 31.034 134.933 30.55C135.769 30.066 136.656 29.824 137.595 29.824C138.357 29.824 139.061 30.0366 139.707 30.462C140.367 30.8873 140.865 31.5253 141.203 32.376V29.824H145.823V41H141.203V38.954C140.469 40.4353 139.267 41.176 137.595 41.176ZM139.025 37.7C139.611 37.7 140.11 37.4946 140.521 37.084C140.946 36.6586 141.173 36.16 141.203 35.588V35.412C141.173 34.8253 140.939 34.3266 140.499 33.916C140.073 33.5053 139.582 33.3 139.025 33.3C138.409 33.3 137.881 33.52 137.441 33.96C137.015 34.3853 136.803 34.8986 136.803 35.5C136.803 36.116 137.023 36.6366 137.463 37.062C137.903 37.4873 138.423 37.7 139.025 37.7ZM149.151 30.132H153.573V32.376C154.072 31.5106 154.636 30.8726 155.267 30.462C155.912 30.0366 156.675 29.824 157.555 29.824C158.42 29.824 159.168 30.044 159.799 30.484C160.444 30.9093 160.928 31.4886 161.251 32.222C162.19 30.6233 163.554 29.824 165.343 29.824C166.194 29.824 166.934 30.0513 167.565 30.506C168.21 30.9606 168.709 31.6206 169.061 32.486C169.413 33.3366 169.589 34.3413 169.589 35.5V41H164.947V35.5C164.947 34.752 164.815 34.1873 164.551 33.806C164.302 33.4246 163.95 33.234 163.495 33.234C162.996 33.234 162.564 33.4466 162.197 33.872C161.845 34.2973 161.669 34.8106 161.669 35.412V41H157.071V35.5C157.071 34.752 156.939 34.1873 156.675 33.806C156.426 33.4246 156.066 33.234 155.597 33.234C155.098 33.234 154.673 33.4466 154.321 33.872C153.969 34.2973 153.793 34.8106 153.793 35.412V41H149.151V30.132ZM178.529 41.176C177.312 41.176 176.227 40.934 175.273 40.45C174.335 39.9513 173.601 39.2766 173.073 38.426C172.545 37.5606 172.281 36.5853 172.281 35.5C172.281 34.3853 172.553 33.3953 173.095 32.53C173.638 31.6646 174.371 30.9973 175.295 30.528C176.219 30.0586 177.246 29.824 178.375 29.824C179.461 29.824 180.385 30.066 181.147 30.55C181.925 31.0193 182.504 31.6646 182.885 32.486C183.267 33.2926 183.457 34.202 183.457 35.214C183.457 35.478 183.443 35.6686 183.413 35.786L176.813 36.644C176.989 37.1573 177.275 37.5313 177.671 37.766C178.067 37.986 178.588 38.096 179.233 38.096C180.231 38.096 181.309 37.8393 182.467 37.326L183.017 40.274C181.653 40.8753 180.157 41.176 178.529 41.176ZM180.047 33.872C179.813 32.948 179.255 32.486 178.375 32.486C177.847 32.486 177.429 32.684 177.121 33.08C176.813 33.476 176.652 33.9893 176.637 34.62L180.047 33.872Z" fill="white"/>
<defs>
<filter id="filter0_d" x="0" y="3.05176e-05" width="248" height="68" filterUnits="userSpaceOnUse" color-interpolation-filters="sRGB">
<feFlood flood-opacity="0" result="BackgroundImageFix"/>
<feColorMatrix in="SourceAlpha" type="matrix" values="0 0 0 0 0 0 0 0 0 0 0 0 0 0 0 0 0 0 127 0" result="hardAlpha"/>
<feOffset dy="3"/>
<feGaussianBlur stdDeviation="2"/>
<feComposite in2="hardAlpha" operator="out"/>
<feColorMatrix type="matrix" values="0 0 0 0 0 0 0 0 0 0 0 0 0 0 0 0 0 0 0.25 0"/>
<feBlend mode="normal" in2="BackgroundImageFix" result="effect1_dropShadow"/>
<feBlend mode="normal" in="SourceGraphic" in2="effect1_dropShadow" result="shape"/>
</filter>
</defs>
</svg>
