<svg width="49" height="49" viewBox="0 0 49 49" fill="none" xmlns="http://www.w3.org/2000/svg">
<g filter="url(#filter0_d)">
<path d="M40.9865 1.2041L40.6365 1.5341L40.8065 5.8741L40.9865 7.1041V1.2041Z" fill="#491F07"/>
<path d="M11.5266 5.8441L9.96655 2.6941L11.6366 1.4141L12.3466 1.2041L12.4166 6.6741L11.5866 6.8241L11.5266 5.8441Z" fill="#491F07"/>
<path d="M8.35647 41.2042L8.13647 40.7742L8.95647 39.2842L9.42647 39.4742L8.35647 41.2042Z" fill="#491F07"/>
<path d="M44.6666 38.2739L44.0866 37.8539L42.1066 38.2739L41.3966 36.7539L39.0266 37.6539L40.5866 39.3939H43.3966L44.6666 38.2739Z" fill="#491F07"/>
<path d="M42.5465 36.7341V35.2141L39.3565 37.8041L41.5565 37.1241L42.3165 38.7141L44.6665 38.2741V41.2041H8.3565L9.0565 39.7541L7.1665 38.6241L6.7865 39.7541L4.6665 39.0541V1.2041H9.6765L8.6765 2.8641L10.5965 4.8741L11.9165 6.2541L11.2165 4.7841L10.2965 2.8641L12.3465 1.2041H40.3265L40.4165 1.8841L40.9865 6.3641V1.2041H44.6665V35.9641L42.5465 36.7341Z" fill="url(#paint0_linear)"/>
<path d="M42.5464 36.7335V35.2135L39.3564 37.8235L41.5564 37.1435L42.3164 38.7335L44.6664 38.2935V41.2235H8.35645C11.1686 39.8639 14.1377 38.8563 17.1964 38.2235C22.1264 37.1735 26.1964 40.2935 30.4964 37.6535C34.7964 35.0135 36.9864 32.1635 42.5764 32.7235C43.2796 32.7872 43.9778 32.8975 44.6664 33.0535V35.9535L42.5464 36.7335Z" fill="#101011" fill-opacity="0.19"/>
<path opacity="0.11" d="M8.67651 2.8243L10.5965 4.8243C7.8565 5.19429 5.7665 5.49429 4.6665 5.66429V1.1543H9.6665L8.67651 2.8243Z" fill="white"/>
<path opacity="0.11" d="M40.3266 1.2041L40.4166 1.88409C30.4166 2.36409 18.6666 3.7841 11.2166 4.7841L10.2966 2.86409L12.2966 1.2041H40.3266Z" fill="white"/>
<path opacity="0.11" d="M44.6666 1.2041V1.74409C43.4866 1.74409 42.2466 1.8041 40.9866 1.8541V1.2041H44.6666Z" fill="white"/>
<path d="M17.5865 30.3145L4.6665 32.2445V31.3045L17.5865 30.3145Z" fill="#101011" fill-opacity="0.19"/>
<path d="M24.6667 16.8757V13.4163C24.6667 13.0702 24.5321 12.7242 24.2644 12.4592C23.9966 12.1956 23.6452 12.0645 23.2937 12.0645C22.9422 12.0645 22.5907 12.1956 22.323 12.4592L13.6829 20.8515L22.323 29.2424C22.5907 29.506 22.9422 29.6385 23.2937 29.6385C23.6452 29.6385 23.9966 29.506 24.2644 29.2424C24.5321 28.9788 24.6667 28.6314 24.6667 28.2867V24.9219C28.4423 25.0138 32.5681 25.6871 35.6505 30.3145V28.9626C35.6505 22.6995 30.845 17.5489 24.6667 16.8757Z" fill="black" fill-opacity="0.5"/>
</g>
<defs>
<filter id="filter0_d" x="0.666504" y="0.154297" width="48.0001" height="48.0692" filterUnits="userSpaceOnUse" color-interpolation-filters="sRGB">
<feFlood flood-opacity="0" result="BackgroundImageFix"/>
<feColorMatrix in="SourceAlpha" type="matrix" values="0 0 0 0 0 0 0 0 0 0 0 0 0 0 0 0 0 0 127 0" result="hardAlpha"/>
<feOffset dy="3"/>
<feGaussianBlur stdDeviation="2"/>
<feComposite in2="hardAlpha" operator="out"/>
<feColorMatrix type="matrix" values="0 0 0 0 0 0 0 0 0 0 0 0 0 0 0 0 0 0 0.25 0"/>
<feBlend mode="normal" in2="BackgroundImageFix" result="effect1_dropShadow"/>
<feBlend mode="normal" in="SourceGraphic" in2="effect1_dropShadow" result="shape"/>
</filter>
<linearGradient id="paint0_linear" x1="25.0365" y1="1.1141" x2="24.2965" y2="41.1141" gradientUnits="userSpaceOnUse">
<stop stop-color="#C8752A"/>
<stop offset="1" stop-color="#9B5825"/>
</linearGradient>
</defs>
</svg>
