<svg width="576" height="411" viewBox="0 0 576 411" fill="none" xmlns="http://www.w3.org/2000/svg">
<g filter="url(#filter0_d)">
<path d="M20.5498 34.6519L26.1798 368.882L553.88 377.392L556.2 36.2819L20.5498 34.6519Z" fill="#CCDBFF"/>
<path d="M124.35 90.022C123.866 90.5473 123.223 90.8988 122.52 91.022C122.565 90.6361 122.691 90.2639 122.889 89.9297C123.087 89.5955 123.353 89.3067 123.67 89.082C123.839 89.4335 124.069 89.7519 124.35 90.022Z" fill="#A90516"/>
<g filter="url(#filter1_d)">
<path d="M546.26 38.2219V97.4319C546.26 97.4319 540.09 95.6419 539.37 94.0219C538.65 92.4019 538.8 89.8919 530.79 88.8219C523.87 85.4019 523.79 83.3619 523.79 83.3619C523.79 83.3619 517.35 87.5619 518.35 90.9319C515.27 90.4319 515.58 89.4519 515.63 89.3219C515.4 89.4919 511.96 92.3219 515.63 94.8919C515.099 95.3075 514.475 95.5891 513.812 95.7126C513.149 95.8362 512.465 95.7982 511.82 95.6019V98.4719C511.82 98.4719 505.18 93.9819 500.53 92.9119C495.88 91.8419 489.17 91.1119 489.24 89.3119C484.57 92.4219 488.85 94.6919 489.24 94.8819L483.35 93.6619C483.35 93.6619 478.96 96.7219 482.24 98.5119C473.48 96.7219 477.01 94.9219 475.24 92.9519C472.05 94.1219 470.42 94.8419 470.24 94.9519C470.48 94.7319 473.93 91.6419 470.24 89.3819C465.3 92.6219 461.09 95.6519 464.03 97.4619C460.37 97.4619 460.21 96.4619 460.21 96.4619C458.367 97.735 456.199 98.4565 453.96 98.5419C455.96 95.8519 453.96 91.5419 453.96 91.5419L452.71 93.6919C452.71 93.6919 451.06 89.7419 448.87 88.6919C442.46 90.7919 441.73 95.0419 443.29 96.2119L439.02 94.2119C439.02 94.2119 435.72 97.2119 439.02 98.5219C432.44 97.4419 433.02 94.9419 433.02 94.9419C430.85 92.2889 427.756 90.556 424.36 90.0919C426.42 91.5219 428.36 95.2919 424.36 95.8319C424.622 94.8932 424.622 93.9006 424.36 92.9619C424.36 92.9619 420.93 97.8019 416.01 98.5219C416.35 97.3579 416.535 96.1542 416.56 94.9419L411.86 96.4419L405.68 93.6719C405.68 93.6719 405.62 97.4519 407.2 98.3419C404.866 97.5395 402.666 96.3936 400.67 94.9419L392.35 90.0819C392.35 90.0819 395.09 92.9619 392.9 94.9319C391.03 96.6119 389.41 94.3619 388.99 93.6719C389.3 94.2619 389.85 96.0819 385.77 97.4319C383.551 97.273 381.445 96.3954 379.77 94.9319C379.77 94.9319 377.57 95.9319 378.13 96.7019C375.27 95.9419 372.84 92.5819 372.97 91.6019C369.37 95.6619 369.37 100.062 364.49 100.602C364.98 97.4019 362.24 97.6019 361.7 96.1519C360.868 97.4483 359.651 98.4519 358.22 99.0219C358.22 99.0219 354.76 95.0219 358.22 92.3819L352.94 96.3219C352.94 96.1119 353.77 93.2219 347.44 91.8419C347.99 93.8419 346.35 98.3019 341.97 98.6619C343.07 96.6619 341.97 94.3519 338.68 93.9919C336.49 95.2519 333.75 97.0519 336.49 98.1219C331.01 97.4019 330.49 93.6319 333.2 91.4819C327.2 96.1519 326.08 98.3019 322.79 98.4819C324.44 96.3319 323.88 93.2719 320.6 92.5619C315.81 95.1819 312.6 100.182 316.7 101.612C311.2 99.9619 309.1 96.6119 309.1 94.9019C307.471 95.4246 305.967 96.2754 304.68 97.4019C303.06 96.1519 300.81 93.4719 304.68 90.0519C296.49 94.8919 298.14 97.9419 294.86 99.0519C293.75 97.4319 292.66 94.0519 289.38 92.4119L290.45 95.2419C290.24 94.8619 288.38 91.7719 281.71 90.0819C281.355 90.4008 281.081 90.7997 280.911 91.2456C280.741 91.6915 280.68 92.1715 280.733 92.6457C280.786 93.12 280.951 93.5748 281.215 93.9724C281.479 94.37 281.834 94.6989 282.25 94.9319C279.537 94.674 276.917 93.813 274.58 92.4119C274.58 92.4119 272.39 96.7219 275.13 98.6919C264.72 98.5119 266.6 93.6919 266.6 93.6919L259.78 88.3119C258.69 91.0019 257.6 94.4219 254.85 94.9619C252.1 95.5019 251.58 97.4619 253.76 98.9019C251.913 98.8191 250.135 98.173 248.666 97.0504C247.196 95.9278 246.106 94.3825 245.54 92.6219C242.36 95.0519 236.71 96.6219 236.35 96.7219C238.96 94.0419 239.18 90.2819 236.35 89.2019C230.77 91.0019 230.21 91.7219 230.77 92.8019C227.47 91.9019 227.47 90.1119 227.47 90.1119C227.47 90.1119 222.47 92.4619 224.14 94.9619C221.89 94.3354 219.706 93.4914 217.62 92.4419C215.97 96.5719 214.32 98.1819 211.04 99.2619C209.93 98.5419 210.49 97.4619 208.84 95.8519C207.9 94.3019 208.19 91.2919 209.31 90.3819C203.88 92.7319 203.39 94.2319 203.39 94.2319C202.448 94.0631 201.536 93.76 200.68 93.3319C200.75 94.5619 200.24 96.1719 197.29 96.4619C197.89 95.3119 194.06 94.9619 194.06 94.9619C194.06 94.9619 189.12 97.6419 191.32 98.7219C190.333 98.6485 189.376 98.352 188.52 97.8549C187.664 97.3577 186.933 96.6729 186.38 95.8519C186.38 95.8519 180.91 100.432 177.62 100.662C178.17 98.9019 180.36 94.9519 175.97 93.5119C174.238 94.3477 172.36 94.8401 170.44 94.9619C170.44 94.9619 175.87 92.4419 170.44 91.3619C165.56 91.5419 163.93 96.3619 163.93 96.3619L160.08 94.9319C160.08 94.9319 158.98 95.8019 153.52 97.4319C151.52 98.4319 152.15 99.0019 152.95 99.3119C151.2 98.8619 148.04 97.8519 148.04 96.7019C148.04 95.1019 152.41 90.8019 146.39 90.0819C145.015 92.2752 142.95 93.9496 140.52 94.8419C140.01 93.7019 136.76 92.3919 136.01 92.3119C135.26 92.2319 131.28 94.4419 133.78 96.3119C129.29 95.1619 129.29 94.5919 130.03 93.7719C128.49 94.035 127.081 94.8059 126.03 95.9619C126.268 94.9973 126.319 93.9958 126.18 93.0119C126.129 92.6267 125.999 92.256 125.8 91.9225C125.6 91.5889 125.335 91.2995 125.02 91.0719C124.851 91.4234 124.621 91.7418 124.34 92.0119C124.059 91.7418 123.829 91.4234 123.66 91.0719C123.343 91.2965 123.077 91.5854 122.879 91.9196C122.68 92.2538 122.555 92.626 122.51 93.0119C122.366 93.9956 122.417 94.998 122.66 95.9619C121.608 94.8059 120.2 94.035 118.66 93.7719C119.39 94.5919 119.39 95.1619 114.9 96.3119C117.4 94.4319 113.4 92.2219 112.67 92.3119C111.94 92.4019 108.67 93.7019 108.17 94.8419C105.736 93.9515 103.668 92.277 102.29 90.0819C96.29 90.8019 100.65 95.0819 100.65 96.7019C100.65 97.8519 97.48 98.8619 95.73 99.3119C96.53 99.0019 97.17 98.4119 95.16 97.4319C89.7 95.8019 88.61 94.9319 88.61 94.9319L84.76 96.3619C84.76 96.3619 83.12 91.5119 78.25 91.3619C72.81 92.4419 78.25 94.9619 78.25 94.9619C76.3301 94.8413 74.452 94.3489 72.72 93.5119C68.33 94.9519 70.51 98.9019 71.07 100.662C67.77 100.432 62.31 95.8519 62.31 95.8519C61.7496 96.679 61.008 97.3673 60.1416 97.8646C59.2752 98.362 58.3068 98.6551 57.31 98.7219C59.52 97.6419 54.57 94.9619 54.57 94.9619C54.57 94.9619 50.74 95.3119 51.34 96.4619C48.39 96.1719 47.88 94.5619 47.95 93.3319C47.0944 93.76 46.1817 94.0631 45.24 94.2319C45.24 94.2319 44.75 92.7319 39.32 90.3819C40.44 91.2919 40.74 94.3019 39.79 95.8519C38.14 97.4619 38.7 98.5419 37.59 99.2619C34.31 98.1819 32.66 96.5719 31.01 92.4419C28.9577 93.4745 26.8112 94.3084 24.6 94.9319C26.3 92.4319 21.27 90.0819 21.27 90.0819C21.2336 90.448 21.0911 90.7956 20.86 91.0819L18 38.2119L546.26 38.2219Z" fill="#013893"/>
</g>
<path d="M126.21 91.022C125.502 90.903 124.855 90.5511 124.37 90.022C124.651 89.7519 124.881 89.4335 125.05 89.082C125.365 89.3096 125.63 89.599 125.83 89.9326C126.029 90.2661 126.159 90.6368 126.21 91.022Z" fill="#A90516"/>
<path d="M26.2501 50.942L542.38 49.662L544.5 39.112L445.04 38.252L23.3901 39.832L26.2501 50.942Z" fill="#101011" fill-opacity="0.54"/>
<path d="M15.1299 358.442L15.5999 354.512L16.8999 349.002L17.5799 351.582L15.1299 358.442Z" fill="#491F07"/>
<path d="M33.19 388.392L33.78 394.482L34.34 395.222V386.602L32.54 386.752L33.19 388.392Z" fill="#491F07"/>
<path d="M13.9502 3.17188L13.1802 3.81187L12.9302 4.79187L14.5902 6.41187L15.1902 11.2519L15.9602 5.66187L13.9502 3.17188Z" fill="#491F07"/>
<path d="M21.6001 9.12207L20.9401 9.77207L21.1601 10.5321L20.3501 11.4021L22.5201 14.0921L22.3501 10.6121L21.6001 9.12207Z" fill="#491F07"/>
<path d="M20.3601 390.702L20.8601 389.492L20.6101 381.632L19.1001 379.762L20.3601 390.702Z" fill="#491F07"/>
<path d="M19.8501 394.282L21.0201 392.912L24.7901 391.822L23.6001 394.052L19.8501 394.282Z" fill="#491F07"/>
<path d="M11.6299 62.3519L12.1099 61.4619L14.4499 59.9819L14.7799 61.0319L11.6299 62.3519Z" fill="#491F07"/>
<path d="M33.3801 232.362L31.8801 232.432L26.3401 248.192L26.1001 254.922L33.3801 232.362Z" fill="#491F07"/>
<path d="M40.0599 402.272L38.4099 401.972L37.3999 399.052L35.8699 393.772L34.3399 395.222L33.4799 387.462L32.4599 390.702L30.7599 388.492L27.8599 398.542L25.4799 395.822L24.5199 399.482L21.0699 398.862L19.8499 394.282L22.5699 393.262L19.4999 380.992L20.3599 390.702L17.7999 392.752L16.9999 398.132L15.5999 397.882L15.1299 358.442L16.4599 352.032L14.9899 346.032L14.1199 272.962L11.6299 62.3518L13.6199 61.0318L11.5999 59.9018L11.5399 55.0818L11.4199 44.9718L11.0899 16.6018L10.8999 0.801758L11.8599 1.55176L12.5499 5.11176L14.2499 6.62176L15.1899 11.2518V6.05176L13.6199 4.44176L13.9499 3.17176L19.8599 7.77176L20.2099 9.74176L19.3599 10.8818L21.7699 13.3318L22.5199 14.0918L22.0199 13.2618L20.9399 11.4418L21.9099 10.3118L21.5999 9.12176L24.6999 11.5318L24.7399 12.5618L26.0299 45.4418L26.3399 53.2718L28.8199 116.292L27.4599 129.572L29.8299 142.022L33.0599 224.252L26.2499 252.852L33.3799 232.362L33.8499 244.292L40.0599 402.272Z" fill="url(#paint0_linear)"/>
<path d="M40.0601 402.272L38.4101 401.972L37.4101 399.052L35.8801 393.772L34.3501 395.222L33.4901 387.462L32.4901 390.702L30.7901 388.492L27.8901 398.542L25.5101 395.822L24.5101 399.482L21.0601 398.862L19.8401 394.282L22.5601 393.282L19.7501 381.992L19.5001 380.992L19.5901 381.992L20.3601 390.702L17.8001 392.752L17.0001 398.132L15.6001 397.882L15.4101 381.882L15.3501 374.232L15.1601 358.442L16.4901 352.032L15.0201 346.032L14.1201 272.932C21.3683 263.866 27.9616 254.295 33.8501 244.292L38.9501 373.932L39.2701 382.312L40.0601 402.272Z" fill="#101011" fill-opacity="0.19"/>
<path d="M15.6001 18.1021C15.6001 18.1021 19.0301 26.002 19.3001 31.632C20.2201 22.932 15.6001 18.1021 15.6001 18.1021Z" fill="#101011" fill-opacity="0.19"/>
<path d="M39.2698 382.292L19.7498 381.992H19.5898L15.4098 381.932L15.3198 374.232L38.9498 373.912L39.2698 382.292Z" fill="#101011" fill-opacity="0.19"/>
<path d="M26.2499 50.9417L11.4799 50.0317L11.4199 44.9717L26.0299 45.4417L26.2499 50.9417Z" fill="#101011" fill-opacity="0.54"/>
<path d="M568.11 30.132L567.57 29.722L565.99 29.062L565.19 29.602L568.11 30.132Z" fill="#491F07"/>
<path d="M567.57 37.7017L567 37.2217L566.039 37.5017L565.62 36.7017L564.909 36.7617L563.5 38.6017L563.669 39.8017L567.57 37.7017Z" fill="#491F07"/>
<path d="M7.81006 42.4116L8.99006 42.6216L10.0901 43.6416L9.11006 45.6516L7.81006 42.4116Z" fill="#491F07"/>
<path d="M4.72998 29.0719L6.33998 28.7819L12.61 30.2319L7.44998 27.8319L8.66998 27.4419L22.52 28.8319L21.66 31.6319L12.39 33.1219L4.72998 29.0719Z" fill="#491F07"/>
<path d="M80.8999 24.8418L88.4999 26.0118L109.57 30.2418L105.71 33.6518L80.8999 24.8418Z" fill="#491F07"/>
<path d="M33.3498 350.612C33.3498 350.612 27.0998 382.362 26.0698 385.232C31.2798 382.562 33.3498 350.612 33.3498 350.612Z" fill="#101011" fill-opacity="0.19"/>
<path d="M542.53 57.2219L542.87 56.8019L545.73 56.2119L546.46 57.0519L542.53 57.2219Z" fill="#491F07"/>
<path d="M548.5 353.522V350.232L550.159 341.802H552.25L548.5 353.522Z" fill="#491F07"/>
<path d="M543.77 118.792L544.23 118.462L550.35 125.502L548.33 126.542L543.77 118.792Z" fill="#491F07"/>
<path d="M564.759 103.002L563.499 102.512L555.769 104.842L555.299 105.892L556.759 106.872L564.759 103.002Z" fill="#491F07"/>
<path d="M568.77 386.872L567 379.242L565.35 383.622L563.47 377.872L556.47 391.272H553.47L551.17 388.542V391.272H549.27L548.51 353.522L550.51 343.522C550.51 343.522 549.51 338.732 548.07 333.442L546.93 276.632L543.75 118.812L549.08 125.972L543.71 116.452L542.51 57.2417L545.38 56.5517L542.49 56.1917L542.36 49.6817L542.17 40.3317L541.88 25.7017L541.68 15.7917L544.03 15.5917L545.94 23.8817L546.51 26.3717V18.8017L549.08 19.9817V16.6117L551.35 14.9317L559.77 14.2317L560.37 17.3617L561.68 24.2417L562.62 16.3417L562.9 13.9717H563.5V15.9717L563.85 40.6017L563.97 49.4617L564.7 100.852L555.35 105.932L564.81 103.042L565.9 180.512L568.15 339.802L567.47 349.802L568.35 353.712L568.77 386.872Z" fill="url(#paint1_linear)"/>
<path d="M568.769 386.872L566.999 379.242L565.349 383.622L563.469 377.872L559.549 385.322L556.419 391.322H553.419L551.119 388.592V391.322H549.219L549.069 383.802L548.739 367.362L548.459 353.572L550.459 343.572C550.459 343.572 549.459 338.782 548.019 333.492L546.879 276.682C550.729 265.442 553.879 255.682 556.069 249.592C560.749 236.362 563.929 204.832 565.779 180.592L568.029 339.882L567.349 349.882L568.229 353.792L568.439 368.452L568.769 386.872Z" fill="#101011" fill-opacity="0.19"/>
<path d="M564 49.4517C556.43 49.4517 547.69 49.5517 542.38 49.6617L542.19 40.3117L547.27 37.5217C552.959 37.3846 558.615 38.43 563.88 40.5917L564 49.4517Z" fill="#101011" fill-opacity="0.54"/>
<path d="M568.77 386.872L567 379.242L565.38 383.622L563.5 377.872L559.58 385.322L556.45 391.272H553.46L551.16 388.542V391.272H549.26L549.11 383.752L548.78 367.312L568.51 368.382L568.77 386.872Z" fill="#101011" fill-opacity="0.19"/>
<path d="M567.14 43.6518L566.47 42.7418L563.5 41.0018L561.53 40.3418L561.93 42.0018L567.14 43.6518Z" fill="#491F07"/>
<path opacity="0.11" d="M544.05 15.5718L545.96 23.8618L541.9 25.6818L541.7 15.7718L544.05 15.5718Z" fill="white"/>
<path opacity="0.11" d="M559.77 14.2617L560.37 17.3917L546.53 23.6017V18.7817L549.1 19.9617V16.5917L551.35 14.9617L559.77 14.2617Z" fill="white"/>
<path opacity="0.11" d="M563.53 15.9617L562.62 16.3717L562.9 14.0017L563.5 13.9517L563.53 15.9617Z" fill="white"/>
<path d="M550.35 61.0317C550.35 61.0317 546.8 77.5917 548.24 87.7017C549.69 72.8517 550.35 61.0317 550.35 61.0317Z" fill="#101011" fill-opacity="0.19"/>
<path d="M558.969 122.502C558.969 122.502 562.149 165.872 555.299 177.422C557.939 160.102 558.969 122.502 558.969 122.502Z" fill="#101011" fill-opacity="0.19"/>
<path d="M569.9 371.062L568.31 369.532L567 369.302L564.74 372.282L561.03 370.572L555.24 376.632L556.44 378.702L569.9 371.062Z" fill="#491F07"/>
<path d="M550.35 160.752C550.35 160.752 552.25 215.902 555.35 219.952C549.62 205.932 547.96 170.102 550.35 160.752Z" fill="#101011" fill-opacity="0.19"/>
<path d="M553.45 52.312L557.86 71.162C557.86 71.162 557.35 57.122 553.45 52.312Z" fill="#101011" fill-opacity="0.19"/>
<path d="M553.45 271.712C553.45 271.712 560.28 318.602 559.71 331.012C564.18 315.122 555.54 279.852 553.45 271.712Z" fill="#101011" fill-opacity="0.19"/>
<path d="M568.15 29.5018H566.25L568.11 30.1318V30.3718L567.81 34.6418L566.23 35.6418L565.13 34.8218L564.64 36.8218L564.02 39.3718L565.6 36.7718V36.7018L565.67 36.7618L566.94 37.9318L567.55 37.7018L567.23 42.2018L562.11 40.9818L567.11 43.6518L566.97 45.6518L281.35 46.3418L254.57 46.4118C239.795 43.9505 224.712 43.9877 209.95 46.5218L7.45 47.0318L6.92 43.5518L7.81 42.4118L9.53 44.1718L12.73 41.1718L15.18 38.9318L9.9 41.0218L9.35 38.9318L6.51 40.8218L4.74 29.1118L11.35 30.6218L7.45 27.8318L18.35 29.2218L6.94 25.9318L4.12 25.1118L4 24.3018L80.9 24.8718L88.5 26.5818L106.42 30.5818L96.1 26.5818L91.7 24.8918L419.14 27.3018L440.87 29.3018L451.95 30.3018L460.32 29.4218L477.01 27.6718L568.23 28.3418L568.15 29.5018Z" fill="url(#paint2_linear)"/>
<path d="M567.25 42.2018L562.13 40.9818L567.13 43.6518L566.99 45.6518L281.35 46.3418C382.15 43.4018 518.47 39.2218 564.64 36.8218H565.64H565.75L567.02 37.9918L567.63 37.7618L567.25 42.2018Z" fill="#101011" fill-opacity="0.19"/>
<path d="M281.35 46.3419L254.57 46.4119C239.795 43.9506 224.712 43.9878 209.95 46.5219L7.44992 47.0319L6.91992 43.5519L7.80992 42.4119L9.52992 44.1719L12.7299 41.1719C72.6999 41.8419 255.53 44.0019 281.35 46.3419Z" fill="#101011" fill-opacity="0.19"/>
<path opacity="0.26" d="M80.9 24.842L88.5 26.552L6.94 25.902L4.12 25.082L4 24.272L80.9 24.842Z" fill="white"/>
<path opacity="0.26" d="M419.14 27.3319L440.87 29.3619L96.1002 26.6119L91.7002 24.9219L419.14 27.3319Z" fill="white"/>
<path opacity="0.26" d="M568.15 29.5017H566.25L568.11 30.1317L568.09 30.3717L460.32 29.5117L477.01 27.7617L568.23 28.4317L568.15 29.5017Z" fill="white"/>
<path d="M550.35 34.3021C550.35 34.3021 533.26 32.8721 523.83 34.3021C534.21 35.0121 542.51 35.3721 550.35 34.3021Z" fill="#101011" fill-opacity="0.19"/>
<path d="M447.009 38.252C447.009 38.252 465.619 42.6519 468.719 42.7719C459.889 43.6019 447.489 39.222 447.009 38.252Z" fill="#101011" fill-opacity="0.19"/>
<path d="M494.35 38.4717C494.35 38.4717 518.21 41.6417 523.22 41.5517C506.77 42.9317 496.99 38.8317 494.35 38.4717Z" fill="#101011" fill-opacity="0.19"/>
<path d="M472.61 35.6517C472.61 35.6517 480.32 33.3917 485.25 33.6517C484.35 34.8017 474.97 35.6517 472.61 35.6517Z" fill="#101011" fill-opacity="0.19"/>
<path d="M22.52 33.6519C22.52 33.6519 58.98 39.9019 79.1 39.4219C67.04 40.6319 26.69 38.0819 22.52 33.6519Z" fill="#101011" fill-opacity="0.19"/>
<path d="M75.27 33.1221C75.27 33.1221 116.82 31.2921 143.7 36.6821C118.81 36.0321 75.27 33.1221 75.27 33.1221Z" fill="#101011" fill-opacity="0.19"/>
<path d="M137.7 44.8318C137.7 44.8318 168.16 42.9618 173 41.5518C163.35 44.0118 144.49 45.9318 137.7 44.8318Z" fill="#101011" fill-opacity="0.19"/>
<path d="M194.35 33.6617C194.35 33.6617 212.93 30.9617 223.79 32.8217C214.28 34.3317 197.8 35.0917 194.35 33.6617Z" fill="#101011" fill-opacity="0.19"/>
<path d="M244.27 36.682C244.27 36.682 289.4 28.432 319.8 31.632C295.25 35.432 244.27 36.682 244.27 36.682Z" fill="#101011" fill-opacity="0.19"/>
<path d="M299.07 40.9819C299.07 40.9819 358.59 40.332 360.91 37.502C358.2 42.002 306.35 43.4319 299.07 40.9819Z" fill="#101011" fill-opacity="0.19"/>
<path d="M358.2 32.8218C358.2 32.8218 417.68 33.4018 426.95 38.4718C420.35 39.6818 360.91 33.3018 358.2 32.8218Z" fill="#101011" fill-opacity="0.19"/>
<path opacity="0.26" d="M19.3501 10.9321L21.7601 13.382C17.7601 14.482 13.7601 15.7621 11.0801 16.6521L10.8901 0.852051L11.8901 1.60205L12.5801 5.16205L14.2801 6.67206L15.2201 11.302V6.10205L13.6501 4.49205L13.9801 3.22205L19.8901 7.82205L20.2401 9.82205L19.3501 10.9321Z" fill="white"/>
<path opacity="0.26" d="M24.7399 12.5621C23.8499 12.7721 22.9299 13.0121 22.0199 13.2621L20.9399 11.4421L21.9399 10.3121L21.6299 9.12207L24.7299 11.5321L24.7399 12.5621Z" fill="white"/>
<path d="M17.5098 55.6719C17.5098 55.6719 19.4498 90.6719 18.1498 94.6719C20.9098 79.2219 21.2298 59.6019 17.5098 55.6719Z" fill="#101011" fill-opacity="0.19"/>
<path d="M23.81 93.9316C23.81 93.9316 22.67 116.022 22.52 119.932C23.23 117.152 25.12 98.5516 23.81 93.9316Z" fill="#101011" fill-opacity="0.19"/>
<path d="M17.3502 125.452C17.3502 125.452 19.7202 154.072 23.3502 158.732C16.4202 150.302 17.3502 125.452 17.3502 125.452Z" fill="#101011" fill-opacity="0.19"/>
<path d="M26.25 151.412C26.5294 156.658 26.5294 161.915 26.25 167.162C28.4 166.052 26.35 154.072 26.25 151.412Z" fill="#101011" fill-opacity="0.19"/>
<path d="M17.2599 170.482C17.2599 170.482 18.2599 197.552 19.4199 202.432C15.7499 197.992 17.4399 172.262 17.2599 170.482Z" fill="#101011" fill-opacity="0.19"/>
<path d="M25.48 195.382L28.84 227.932C29.95 222.392 28.55 198.982 25.48 195.382Z" fill="#101011" fill-opacity="0.19"/>
<path d="M22.5198 218.842C22.5198 218.842 17.9898 258.612 19.4198 263.132C17.0798 263.432 19.3498 220.182 22.5198 218.842Z" fill="#101011" fill-opacity="0.19"/>
<path d="M29.2201 269.832C29.2201 269.832 28.2201 299.592 30.8401 312.902C31.5001 304.032 31.1501 273.122 29.2201 269.832Z" fill="#101011" fill-opacity="0.19"/>
<path d="M19.42 293.382C19.42 293.382 34.61 326.212 35.72 336.862C33.94 332.422 18.87 295.382 19.42 293.382Z" fill="#101011" fill-opacity="0.19"/>
<path d="M20.48 320.932C20.48 320.932 18.41 344.182 22.48 353.722C23.07 352.612 20.48 320.932 20.48 320.932Z" fill="#101011" fill-opacity="0.19"/>
<path d="M564.61 380.202L563.38 380.322L560.56 382.352L561.22 384.132L564.61 380.202Z" fill="#491F07"/>
<path d="M561.04 370.032L555.95 377.392L561.25 371.492L565.42 373.492L568.08 370.032L569.9 371.062L566.68 378.712L565.31 377.282L562.98 379.572L562.39 380.152L562.18 379.562L561.04 376.432L561.24 379.562L561.47 383.072L564.61 380.202L565.4 381.742L563.42 386.432L436.27 384.122L419.6 379.762L431.17 384.032L130.67 378.582L138.76 377.262L163.41 373.232L114.51 377.132L102.67 378.072L23.0099 376.632L12.0199 376.432L11.8299 373.382L14.8999 374.482L16.7099 371.772L23.3699 374.482L16.6799 369.242L15.1299 370.992L11.5299 368.522L11.4199 366.742L18.6799 364.442L11.3599 365.752L11.2199 363.382L11.7399 362.402L12.9799 360.042L17.5799 361.932L15.6699 359.732L10.8999 358.142L446.06 364.572L464.7 367.842L479.84 365.072L571.85 366.432L570.68 369.202L568.08 368.352L566.17 369.862L564.72 371.002L561.04 370.032Z" fill="url(#paint3_linear)"/>
<path d="M23.0098 376.632L114.51 377.132L102.67 378.072L23.0098 376.632Z" fill="#101011" fill-opacity="0.19"/>
<path d="M565.4 381.742L563.42 386.432L436.27 384.122L419.6 379.762L431.17 384.032L130.67 378.582L138.76 377.262L561.24 379.562L561.47 383.072L564.61 380.202L565.4 381.742Z" fill="#101011" fill-opacity="0.11"/>
<path opacity="0.14" d="M571.85 366.432L570.68 369.202L568.08 368.352L566.17 369.862L11.7399 362.402L12.9799 360.042L17.5799 361.932L15.6699 359.732L10.8999 358.142L446.06 364.572L464.7 367.842L479.84 365.072L571.85 366.432Z" fill="white"/>
<path d="M21 366.432C21 366.432 69.41 369.062 92.6 366.432C60.46 373.442 23.35 368.422 21 366.432Z" fill="#101011" fill-opacity="0.19"/>
<path d="M119.6 366.432C119.6 366.432 176.96 362.432 179.86 362.432C159.58 366.792 119.6 366.432 119.6 366.432Z" fill="#101011" fill-opacity="0.19"/>
<path d="M225.92 373.232C225.92 373.232 288.78 371.652 296.6 374.902C281.83 375.192 225.92 373.232 225.92 373.232Z" fill="#101011" fill-opacity="0.19"/>
<path d="M552.86 39.8618C553.178 40.1317 553.512 40.3822 553.86 40.6118C554.45 41.0118 555.86 41.7518 557.04 40.8818C557.486 40.6093 557.819 40.1864 557.981 39.6895C558.142 39.1925 558.121 38.6542 557.92 38.1718C557.317 37.42 556.647 36.7238 555.92 36.0918L552.86 39.8618Z" fill="#101011" fill-opacity="0.19"/>
<path d="M78.6699 372.292C78.6699 372.292 110.99 370.602 125.67 372.292C112.07 374.512 78.6699 372.292 78.6699 372.292Z" fill="#101011" fill-opacity="0.19"/>
<path d="M363.75 371.142C363.75 371.142 429.35 365.482 437.43 366.292C416.17 367.842 368.45 370.602 363.75 371.142Z" fill="#101011" fill-opacity="0.19"/>
<path d="M426.549 377.262C426.549 377.262 459.829 382.942 467.819 383.502C447.559 383.122 427.849 379.022 426.549 377.262Z" fill="#101011" fill-opacity="0.19"/>
<path d="M495.52 373.232L528.53 370.502L535.86 371.142L495.52 373.232Z" fill="#101011" fill-opacity="0.19"/>
<path d="M554.61 40.612C555.952 40.612 557.04 39.524 557.04 38.182C557.04 36.8399 555.952 35.752 554.61 35.752C553.268 35.752 552.18 36.8399 552.18 38.182C552.18 39.524 553.268 40.612 554.61 40.612Z" fill="#1E1D1B"/>
<path d="M556.94 38.022C556.938 38.3448 556.874 38.6641 556.75 38.962C556.612 39.3136 556.393 39.6278 556.111 39.8793C555.829 40.1307 555.492 40.3124 555.127 40.4098C554.762 40.5071 554.38 40.5173 554.01 40.4395C553.641 40.3617 553.294 40.1982 553 39.962C552.932 39.9107 552.868 39.8539 552.81 39.792C552.774 39.7613 552.74 39.7278 552.71 39.692L552.51 39.442C552.457 39.3691 552.41 39.2922 552.37 39.212C552.251 38.9893 552.167 38.75 552.12 38.502V38.212V37.932C552.128 37.7009 552.168 37.472 552.24 37.252C552.398 36.7667 552.705 36.3437 553.119 36.0438C553.532 35.7438 554.029 35.5822 554.54 35.582C554.759 35.5817 554.978 35.612 555.19 35.672C555.413 35.7323 555.625 35.8268 555.82 35.952C555.885 35.9838 555.945 36.0242 556 36.072C556.081 36.1299 556.158 36.1934 556.23 36.262C556.41 36.4374 556.562 36.6399 556.68 36.862C556.72 36.9401 556.757 37.0202 556.79 37.102C556.836 37.2005 556.87 37.3048 556.89 37.412V37.552V37.802C556.93 37.932 556.94 37.932 556.94 38.022Z" fill="#383634"/>
<path opacity="0.26" d="M556.94 38.0218C556.938 38.3445 556.874 38.6639 556.75 38.9618L554.04 40.4118C553.673 40.3277 553.331 40.16 553.04 39.9218L556.97 37.8218C556.93 37.9318 556.94 37.9318 556.94 38.0218Z" fill="white"/>
<path opacity="0.26" d="M556.2 36.2818L552.12 38.4618V38.1718L556 36.0918C556.07 36.1507 556.137 36.2142 556.2 36.2818Z" fill="white"/>
<path d="M554.219 377.842C554.535 378.115 554.869 378.366 555.219 378.592C555.809 379.002 557.219 379.742 558.399 378.862C558.844 378.591 559.178 378.17 559.339 377.675C559.501 377.18 559.479 376.643 559.279 376.162C558.692 375.412 558.039 374.716 557.329 374.082L554.219 377.842Z" fill="#101011" fill-opacity="0.19"/>
<path d="M555.97 378.602C557.312 378.602 558.4 377.514 558.4 376.172C558.4 374.83 557.312 373.742 555.97 373.742C554.627 373.742 553.54 374.83 553.54 376.172C553.54 377.514 554.627 378.602 555.97 378.602Z" fill="#1E1D1B"/>
<path d="M558.35 376.012C558.348 376.331 558.287 376.646 558.17 376.942C557.983 377.385 557.67 377.764 557.27 378.031C556.87 378.297 556.4 378.44 555.92 378.442C555.766 378.453 555.613 378.453 555.46 378.442C555.093 378.359 554.75 378.191 554.46 377.952C554.392 377.901 554.328 377.844 554.27 377.782L554.17 377.682C554.101 377.603 554.037 377.52 553.98 377.432C553.922 377.357 553.871 377.277 553.83 377.192C553.711 376.969 553.627 376.73 553.58 376.482V376.202V375.932C553.589 375.698 553.629 375.466 553.7 375.242C553.861 374.759 554.17 374.339 554.582 374.042C554.995 373.744 555.491 373.583 556 373.582C556.219 373.582 556.438 373.612 556.65 373.672C556.875 373.731 557.09 373.822 557.29 373.942C557.35 373.98 557.407 374.023 557.46 374.072C557.541 374.13 557.618 374.193 557.69 374.262C557.872 374.435 558.024 374.638 558.14 374.862C558.14 374.932 558.22 375.022 558.26 375.102C558.3 375.182 558.33 375.312 558.36 375.412V375.552V375.802C558.29 375.872 558.35 375.932 558.35 376.012Z" fill="#383634"/>
<path opacity="0.26" d="M558.349 376.012C558.348 376.33 558.287 376.646 558.169 376.942L555.459 378.402C555.093 378.319 554.75 378.151 554.459 377.912L558.389 375.812C558.289 375.872 558.349 375.932 558.349 376.012Z" fill="white"/>
<path opacity="0.26" d="M557.56 374.272L553.48 376.442V376.162L557.36 374.082C557.431 374.141 557.498 374.204 557.56 374.272Z" fill="white"/>
<path opacity="0.26" d="M558.13 375.112L553.88 377.392C553.822 377.317 553.772 377.237 553.73 377.152L558.01 374.872C558.05 374.932 558.09 375.032 558.13 375.112Z" fill="white"/>
<path d="M26.5298 369.332C26.8451 369.605 27.1792 369.856 27.5298 370.082C28.1198 370.492 29.5298 371.232 30.7098 370.352C31.1549 370.081 31.4883 369.66 31.6497 369.165C31.8112 368.669 31.7899 368.133 31.5898 367.652C31.0026 366.902 30.3501 366.206 29.6398 365.572L26.5298 369.332Z" fill="#101011" fill-opacity="0.19"/>
<path d="M28.2801 370.092C29.6221 370.092 30.7101 369.004 30.7101 367.662C30.7101 366.32 29.6221 365.232 28.2801 365.232C26.938 365.232 25.8501 366.32 25.8501 367.662C25.8501 369.004 26.938 370.092 28.2801 370.092Z" fill="#1E1D1B"/>
<path d="M30.6101 367.502C30.6088 367.825 30.5442 368.144 30.4201 368.442C30.2338 368.883 29.9222 369.259 29.524 369.524C29.1257 369.789 28.6584 369.931 28.1801 369.932C28.0236 369.942 27.8666 369.942 27.7101 369.932C27.3434 369.848 27.0012 369.68 26.7101 369.442C26.6422 369.391 26.5786 369.334 26.5201 369.272L26.4201 369.172L26.2201 368.922C26.1676 368.849 26.1208 368.772 26.0801 368.692C25.9614 368.469 25.8771 368.23 25.8301 367.982V367.692V367.472C25.8382 367.241 25.8786 367.012 25.9501 366.792C26.1083 366.307 26.416 365.884 26.8291 365.584C27.2422 365.284 27.7396 365.122 28.2501 365.122C28.4699 365.122 28.6886 365.152 28.9001 365.212C29.1228 365.269 29.3353 365.36 29.5301 365.482C29.5934 365.521 29.6536 365.564 29.7101 365.612C29.7911 365.67 29.868 365.733 29.9401 365.802C30.1203 365.977 30.2722 366.18 30.3901 366.402C30.4308 366.48 30.4676 366.56 30.5001 366.642C30.5469 366.741 30.5805 366.845 30.6001 366.952V367.092V367.342C30.6001 367.372 30.6101 367.432 30.6101 367.502Z" fill="#383634"/>
<path opacity="0.26" d="M29.4598 365.442L25.7598 367.442C25.7679 367.21 25.8082 366.982 25.8798 366.762L28.8798 365.182C29.0846 365.24 29.2799 365.328 29.4598 365.442Z" fill="white"/>
<path opacity="0.26" d="M30.5699 367.052L26.4799 369.232L26.3799 369.132L30.5299 366.932L30.5699 367.052Z" fill="white"/>
<path opacity="0.26" d="M30.43 366.602L26.18 368.932C26.1276 368.859 26.0808 368.782 26.04 368.702L30.35 366.362C30.3806 366.44 30.4073 366.521 30.43 366.602Z" fill="white"/>
<path d="M16.6401 37.3818C16.9588 37.6508 17.2927 37.9012 17.6401 38.1318C18.2201 38.5318 19.6401 39.2718 20.8101 38.4018C21.2607 38.1338 21.5984 37.7111 21.7603 37.2125C21.9223 36.7139 21.8973 36.1734 21.6901 35.6918C21.1081 34.9409 20.4587 34.2447 19.7501 33.6118L16.6401 37.3818Z" fill="#101011" fill-opacity="0.19"/>
<path d="M18.4002 38.132C19.7423 38.132 20.8302 37.044 20.8302 35.702C20.8302 34.3599 19.7423 33.272 18.4002 33.272C17.0582 33.272 15.9702 34.3599 15.9702 35.702C15.9702 37.044 17.0582 38.132 18.4002 38.132Z" fill="#1E1D1B"/>
<path d="M20.72 35.5419C20.7173 35.8635 20.6563 36.182 20.54 36.4819C20.346 36.9158 20.03 37.2839 19.6305 37.5413C19.231 37.7988 18.7653 37.9345 18.29 37.9319C18.1371 37.9471 17.983 37.9471 17.83 37.9319C17.4638 37.8465 17.1219 37.6789 16.83 37.4419C16.7653 37.3905 16.7051 37.3336 16.65 37.2719L16.55 37.1719C16.4755 37.0987 16.4085 37.0183 16.35 36.9319C16.2975 36.8589 16.2507 36.782 16.21 36.7019C16.087 36.4811 16.0025 36.241 15.96 35.9919C15.9502 35.8955 15.9502 35.7983 15.96 35.7019C15.9547 35.652 15.9547 35.6017 15.96 35.5519C15.9552 35.5288 15.9552 35.505 15.96 35.4819C15.9584 35.2498 15.999 35.0194 16.08 34.8019C16.2714 34.2078 16.6858 33.7111 17.2361 33.4164C17.7863 33.1217 18.4294 33.052 19.03 33.2219C19.2525 33.2841 19.4647 33.3785 19.66 33.5019C19.7223 33.5384 19.7824 33.5785 19.84 33.6219L20.06 33.8119C20.2403 33.9873 20.3921 34.1897 20.51 34.4119C20.5579 34.4877 20.5981 34.5681 20.63 34.6519C20.63 34.7519 20.7 34.8619 20.73 34.9619V35.1019C20.7398 35.1849 20.7398 35.2688 20.73 35.3519C20.731 35.4154 20.7276 35.4789 20.72 35.5419Z" fill="#383634"/>
<path opacity="0.26" d="M19.9802 33.8018L15.9102 35.9818C15.9004 35.8854 15.9004 35.7882 15.9102 35.6918L19.7902 33.6118L19.9802 33.8018Z" fill="white"/>
<path opacity="0.26" d="M20.68 35.0916L16.6 37.2716L16.5 37.1716L20.65 34.9316L20.68 35.0916Z" fill="white"/>
<path opacity="0.26" d="M20.55 34.6416L16.35 36.9316C16.2975 36.8586 16.2507 36.7818 16.21 36.7016L20.48 34.4116C20.5101 34.486 20.5336 34.563 20.55 34.6416Z" fill="white"/>
</g>
<defs>
<filter id="filter0_d" x="0" y="0.801758" width="575.85" height="409.47" filterUnits="userSpaceOnUse" color-interpolation-filters="sRGB">
<feFlood flood-opacity="0" result="BackgroundImageFix"/>
<feColorMatrix in="SourceAlpha" type="matrix" values="0 0 0 0 0 0 0 0 0 0 0 0 0 0 0 0 0 0 127 0" result="hardAlpha"/>
<feOffset dy="4"/>
<feGaussianBlur stdDeviation="2"/>
<feComposite in2="hardAlpha" operator="out"/>
<feColorMatrix type="matrix" values="0 0 0 0 0 0 0 0 0 0 0 0 0 0 0 0 0 0 0.25 0"/>
<feBlend mode="normal" in2="BackgroundImageFix" result="effect1_dropShadow"/>
<feBlend mode="normal" in="SourceGraphic" in2="effect1_dropShadow" result="shape"/>
</filter>
<filter id="filter1_d" x="8" y="32.2119" width="548.26" height="83.4" filterUnits="userSpaceOnUse" color-interpolation-filters="sRGB">
<feFlood flood-opacity="0" result="BackgroundImageFix"/>
<feColorMatrix in="SourceAlpha" type="matrix" values="0 0 0 0 0 0 0 0 0 0 0 0 0 0 0 0 0 0 127 0" result="hardAlpha"/>
<feOffset dy="4"/>
<feGaussianBlur stdDeviation="5"/>
<feComposite in2="hardAlpha" operator="out"/>
<feColorMatrix type="matrix" values="0 0 0 0 0 0 0 0 0 0 0 0 0 0 0 0 0 0 0.25 0"/>
<feBlend mode="normal" in2="BackgroundImageFix" result="effect1_dropShadow"/>
<feBlend mode="normal" in="SourceGraphic" in2="effect1_dropShadow" result="shape"/>
</filter>
<linearGradient id="paint0_linear" x1="10.7999" y1="5.21176" x2="29.2299" y2="398.502" gradientUnits="userSpaceOnUse">
<stop stop-color="#C8752A"/>
<stop offset="1" stop-color="#9B5825"/>
</linearGradient>
<linearGradient id="paint1_linear" x1="16861.2" y1="51009.8" x2="80224.1" y2="152764" gradientUnits="userSpaceOnUse">
<stop stop-color="#C8752A"/>
<stop offset="1" stop-color="#9B5825"/>
</linearGradient>
<linearGradient id="paint2_linear" x1="33248.4" y1="3772.25" x2="302851" y2="-112115" gradientUnits="userSpaceOnUse">
<stop stop-color="#C8752A"/>
<stop offset="1" stop-color="#9B5825"/>
</linearGradient>
<linearGradient id="paint3_linear" x1="3808.53" y1="11517.1" x2="223461" y2="156099" gradientUnits="userSpaceOnUse">
<stop stop-color="#C8752A"/>
<stop offset="1" stop-color="#9B5825"/>
</linearGradient>
</defs>
</svg>
