<svg width="60" height="68" viewBox="0 0 60 68" fill="none" xmlns="http://www.w3.org/2000/svg">
<path d="M29.5054 8.72148C33.5704 8.72135 37.5916 9.56068 41.3172 11.1869C45.0427 12.8131 48.3923 15.1912 51.1561 18.1721C53.9198 21.153 56.0382 24.6726 57.3785 28.5103C58.7188 32.348 59.2522 36.4211 58.9452 40.4745C57.2589 39.9766 55.4835 39.8568 53.7456 40.1237C54.1391 35.0259 52.9154 29.9338 50.2486 25.5714C47.5818 21.209 43.6076 17.7984 38.8911 15.8245C34.1745 13.8505 28.9557 13.4138 23.9767 14.5762C18.9976 15.7387 14.5118 18.4413 11.1569 22.2997C7.80212 26.1582 5.74907 30.976 5.2897 36.0683C4.83034 41.1606 5.98804 46.2681 8.59821 50.6646C11.2084 55.0611 15.1381 58.5228 19.8288 60.5576C24.5194 62.5924 29.7321 63.0966 34.7258 61.9986V65.1593L34.764 65.8019V67.3023C30.731 68.0298 26.5907 67.9097 22.6067 66.9496C18.6227 65.9896 14.8822 64.2106 11.6232 61.7259C8.36429 59.2413 5.65834 56.1053 3.67758 52.5177C1.69683 48.9301 0.484669 44.9695 0.118251 40.8878C-0.248166 36.8062 0.239187 32.6929 1.54929 28.8099C2.85939 24.9269 4.96355 21.3591 7.72784 18.3338C10.4921 15.3084 13.856 12.8916 17.6053 11.2373C21.3546 9.58303 25.4073 8.72742 29.5054 8.72496V8.72148ZM29.5054 19.1484C30.1349 19.1484 30.7431 19.3764 31.2175 19.7901C31.6919 20.2039 32.0005 20.7754 32.0861 21.3991L32.1104 21.7533V37.3832C32.1102 38.0433 31.8594 38.6786 31.4089 39.1608C30.9583 39.6431 30.3414 39.9364 29.6829 39.9814C29.0245 40.0264 28.3735 39.8197 27.8615 39.4032C27.3495 38.9867 27.0147 38.3914 26.9247 37.7375L26.9004 37.3832V21.7533C26.9004 21.0625 27.1749 20.3999 27.6634 19.9113C28.1519 19.4228 28.8145 19.1484 29.5054 19.1484ZM54.3812 9.1487L54.6591 9.36405L58.5909 12.7887C59.0891 13.2226 59.4039 13.8296 59.4714 14.4867C59.539 15.1439 59.3544 15.8023 58.9549 16.3284C58.5554 16.8546 57.9709 17.2094 57.3197 17.3209C56.6685 17.4323 55.9993 17.2922 55.4475 16.9289L55.1662 16.7136L51.2414 13.2889C50.7474 12.8541 50.4362 12.2485 50.3704 11.5938C50.3047 10.939 50.4891 10.2836 50.8868 9.75925C51.2844 9.23492 51.8658 8.88052 52.514 8.76726C53.1623 8.654 53.8294 8.79027 54.3812 9.1487ZM37.3203 0C37.9803 0.000202295 38.6157 0.250928 39.0979 0.701514C39.5802 1.1521 39.8735 1.76895 39.9185 2.42743C39.9635 3.0859 39.7568 3.73691 39.3403 4.2489C38.9238 4.76089 38.3285 5.09569 37.6746 5.18565L37.3203 5.20996H21.6904C21.0304 5.20976 20.3951 4.95904 19.9128 4.50845C19.4306 4.05787 19.1373 3.44101 19.0923 2.78254C19.0473 2.12406 19.254 1.47306 19.6705 0.961069C20.087 0.449079 20.6823 0.114277 21.3362 0.0243131L21.6904 0H37.3203Z" fill="#D6312F"/>
</svg>
