<svg width="26" height="26" viewBox="0 0 26 26" fill="none" xmlns="http://www.w3.org/2000/svg">
<path d="M7.59766 4.19999V17.4C7.59766 17.9834 7.88754 18.543 8.40353 18.9556C8.91951 19.3682 9.61935 19.5999 10.3491 19.5999H21.3547C22.0844 19.5999 22.7843 19.3682 23.3002 18.9556C23.8162 18.543 24.1061 17.9834 24.1061 17.4V7.76618C24.1061 7.4731 24.0328 7.18298 23.8906 6.91285C23.7483 6.64273 23.5401 6.39805 23.2779 6.19319L18.7175 2.627C18.2035 2.22512 17.5131 2.00007 16.7942 2H10.3491C9.61935 2 8.91951 2.23178 8.40353 2.64436C7.88754 3.05694 7.59766 3.61652 7.59766 4.19999V4.19999Z" stroke="white" stroke-width="3" stroke-linecap="round" stroke-linejoin="round"/>
<path d="M18.6042 19.6V21.7999C18.6042 22.3834 18.3143 22.943 17.7983 23.3556C17.2823 23.7682 16.5825 23.9999 15.8527 23.9999H4.84711C4.11739 23.9999 3.41756 23.7682 2.90157 23.3556C2.38558 22.943 2.0957 22.3834 2.0957 21.7999V9.69999C2.0957 9.11652 2.38558 8.55694 2.90157 8.14436C3.41756 7.73178 4.11739 7.5 4.84711 7.5H7.59852" stroke="white" stroke-width="3" stroke-linecap="round" stroke-linejoin="round"/>
</svg>
