<svg width="168" height="48" viewBox="0 0 168 48" fill="none" xmlns="http://www.w3.org/2000/svg">
<g filter="url(#filter0_d)">
<rect x="4.00005" y="1" width="159.997" height="40" rx="19.9895" fill="#D6312F"/>
</g>
<path d="M4.00352 21L164 21.1138C163.742 6.25235 151.037 0.949974 144.733 1.00035C128.424 1.00035 40.9389 1.021 22.8851 1.021C8.97238 2 3.84671 13.711 4.00352 21Z" fill="white" fill-opacity="0.15"/>
<path d="M53.0108 16.368H57.1968C58.2048 16.368 59.0961 16.5687 59.8708 16.97C60.6548 17.3713 61.2614 17.9313 61.6908 18.65C62.1294 19.3687 62.3488 20.19 62.3488 21.114C62.3488 22.0847 62.1341 22.9387 61.7048 23.676C61.2848 24.4133 60.6828 24.9873 59.8988 25.398C59.1241 25.7993 58.2234 26 57.1968 26H53.0108V16.368ZM57.0568 23.48C57.7568 23.48 58.2888 23.2607 58.6528 22.822C59.0261 22.374 59.2128 21.7953 59.2128 21.086C59.2128 20.414 59.0308 19.882 58.6668 19.49C58.3121 19.0887 57.7754 18.888 57.0568 18.888H56.1048V23.48H57.0568ZM68.5182 26.112C67.7435 26.112 67.0529 25.958 66.4462 25.65C65.8489 25.3327 65.3822 24.9033 65.0462 24.362C64.7102 23.8113 64.5422 23.1907 64.5422 22.5C64.5422 21.7907 64.7149 21.1607 65.0602 20.61C65.4055 20.0593 65.8722 19.6347 66.4602 19.336C67.0482 19.0373 67.7015 18.888 68.4202 18.888C69.1109 18.888 69.6989 19.042 70.1842 19.35C70.6789 19.6487 71.0475 20.0593 71.2902 20.582C71.5329 21.0953 71.6542 21.674 71.6542 22.318C71.6542 22.486 71.6449 22.6073 71.6262 22.682L67.4262 23.228C67.5382 23.5547 67.7202 23.7927 67.9722 23.942C68.2242 24.082 68.5555 24.152 68.9662 24.152C69.6009 24.152 70.2869 23.9887 71.0242 23.662L71.3742 25.538C70.5062 25.9207 69.5542 26.112 68.5182 26.112ZM69.4842 21.464C69.3349 20.876 68.9802 20.582 68.4202 20.582C68.0842 20.582 67.8182 20.708 67.6222 20.96C67.4262 21.212 67.3235 21.5387 67.3142 21.94L69.4842 21.464ZM76.4935 26.112C75.5135 26.112 74.6548 25.9673 73.9175 25.678L74.2395 24.012C74.9115 24.2547 75.5648 24.376 76.1995 24.376C76.6661 24.376 76.8995 24.2453 76.8995 23.984C76.8995 23.8533 76.8295 23.746 76.6895 23.662C76.5588 23.578 76.3068 23.5033 75.9335 23.438C75.1588 23.2887 74.5988 23.0367 74.2535 22.682C73.9175 22.3273 73.7495 21.8233 73.7495 21.17C73.7868 20.4327 74.0808 19.868 74.6315 19.476C75.1821 19.084 75.9335 18.888 76.8855 18.888C77.3708 18.888 77.7861 18.9207 78.1315 18.986C78.4861 19.042 78.8081 19.14 79.0975 19.28L78.8035 20.946C78.5328 20.8433 78.2341 20.764 77.9075 20.708C77.5901 20.652 77.3241 20.624 77.1095 20.624C76.7921 20.624 76.5728 20.6567 76.4515 20.722C76.3301 20.7873 76.2695 20.876 76.2695 20.988C76.2695 21.1933 76.5028 21.338 76.9695 21.422C77.8188 21.5713 78.4535 21.8327 78.8735 22.206C79.2935 22.5793 79.5035 23.088 79.5035 23.732C79.5035 24.4693 79.2421 25.0527 78.7195 25.482C78.2061 25.902 77.4641 26.112 76.4935 26.112ZM85.0043 26.112C84.1829 26.112 83.5436 25.8787 83.0863 25.412C82.6289 24.936 82.4003 24.2827 82.4003 23.452V20.722H81.5043V18.986H82.6103L83.9123 16.34H85.3263V18.986H86.9503V20.722H85.3263V23.102C85.3263 23.3353 85.4009 23.5173 85.5503 23.648C85.6996 23.7787 85.9096 23.844 86.1803 23.844C86.4323 23.844 86.6609 23.788 86.8663 23.676L86.9783 25.636C86.7449 25.776 86.4416 25.8927 86.0683 25.986C85.7043 26.07 85.3496 26.112 85.0043 26.112ZM89.4223 19.084H92.3763V20.512C92.5909 19.9613 92.8803 19.5553 93.2443 19.294C93.6176 19.0233 94.0516 18.888 94.5463 18.888L94.9523 21.17C94.0656 21.17 93.4123 21.268 92.9923 21.464C92.5816 21.6507 92.3763 21.9493 92.3763 22.36V26H89.4223V19.084ZM100.752 26.112C99.9683 26.112 99.2683 25.958 98.6523 25.65C98.0456 25.342 97.5696 24.9173 97.2243 24.376C96.8883 23.8253 96.7203 23.1953 96.7203 22.486C96.7203 21.7767 96.893 21.1513 97.2383 20.61C97.5836 20.0593 98.0596 19.6347 98.6663 19.336C99.2823 19.0373 99.9823 18.888 100.766 18.888C101.56 18.888 102.26 19.042 102.866 19.35C103.482 19.6487 103.958 20.0687 104.294 20.61C104.63 21.1513 104.798 21.7767 104.798 22.486C104.798 23.2047 104.626 23.8393 104.28 24.39C103.944 24.9313 103.468 25.356 102.852 25.664C102.246 25.9627 101.546 26.112 100.752 26.112ZM100.78 24.012C101.163 24.012 101.476 23.872 101.718 23.592C101.97 23.3027 102.096 22.934 102.096 22.486C102.096 22.038 101.97 21.674 101.718 21.394C101.476 21.1047 101.163 20.96 100.78 20.96C100.398 20.96 100.08 21.1047 99.8283 21.394C99.5856 21.674 99.4643 22.038 99.4643 22.486C99.4643 22.934 99.5856 23.3027 99.8283 23.592C100.08 23.872 100.398 24.012 100.78 24.012ZM110.972 29.206C110.458 29.206 109.968 29.1547 109.502 29.052L109.726 26.98C110.09 27.036 110.426 27.064 110.734 27.064C111.284 27.064 111.704 26.896 111.994 26.56C112.283 26.2333 112.432 25.6127 112.442 24.698C111.956 25.6313 111.177 26.098 110.104 26.098C109.198 26.098 108.489 25.7807 107.976 25.146C107.472 24.502 107.22 23.6153 107.22 22.486V18.986H110.16V22.92C110.16 23.2373 110.248 23.5033 110.426 23.718C110.603 23.9233 110.846 24.026 111.154 24.026C111.471 24.026 111.728 23.8907 111.924 23.62C112.129 23.3493 112.232 22.9947 112.232 22.556V18.986H115.186V24.222C115.186 25.846 114.822 27.0827 114.094 27.932C113.366 28.7813 112.325 29.206 110.972 29.206Z" fill="white"/>
<defs>
<filter id="filter0_d" x="4.57764e-05" y="0" width="167.997" height="48" filterUnits="userSpaceOnUse" color-interpolation-filters="sRGB">
<feFlood flood-opacity="0" result="BackgroundImageFix"/>
<feColorMatrix in="SourceAlpha" type="matrix" values="0 0 0 0 0 0 0 0 0 0 0 0 0 0 0 0 0 0 127 0" result="hardAlpha"/>
<feOffset dy="3"/>
<feGaussianBlur stdDeviation="2"/>
<feComposite in2="hardAlpha" operator="out"/>
<feColorMatrix type="matrix" values="0 0 0 0 0 0 0 0 0 0 0 0 0 0 0 0 0 0 0.25 0"/>
<feBlend mode="normal" in2="BackgroundImageFix" result="effect1_dropShadow"/>
<feBlend mode="normal" in="SourceGraphic" in2="effect1_dropShadow" result="shape"/>
</filter>
</defs>
</svg>
