<svg width="576" height="410" viewBox="0 0 576 410" fill="none" xmlns="http://www.w3.org/2000/svg">
<g filter="url(#filter0_d)">
<path d="M20.5498 33.8501L26.1798 368.08L553.88 376.59L556.2 35.4801L20.5498 33.8501Z" fill="#CCDBFF"/>
<path d="M124.35 89.2203C123.866 89.7456 123.223 90.097 122.52 90.2203C122.565 89.8343 122.691 89.4622 122.889 89.1279C123.087 88.7937 123.353 88.5049 123.67 88.2803C123.839 88.6317 124.069 88.9501 124.35 89.2203Z" fill="#A90516"/>
<g filter="url(#filter1_d)">
<path d="M546.26 37.4202V96.6302C546.26 96.6302 540.09 94.8402 539.37 93.2202C538.65 91.6002 538.8 89.0902 530.79 88.0202C523.87 84.6002 523.79 82.5602 523.79 82.5602C523.79 82.5602 517.35 86.7602 518.35 90.1302C515.27 89.6302 515.58 88.6502 515.63 88.5202C515.4 88.6902 511.96 91.5202 515.63 94.0902C515.099 94.5058 514.475 94.7873 513.812 94.9109C513.149 95.0345 512.465 94.9965 511.82 94.8002V97.6702C511.82 97.6702 505.18 93.1802 500.53 92.1102C495.88 91.0402 489.17 90.3102 489.24 88.5102C484.57 91.6202 488.85 93.8902 489.24 94.0802L483.35 92.8602C483.35 92.8602 478.96 95.9202 482.24 97.7102C473.48 95.9202 477.01 94.1202 475.24 92.1502C472.05 93.3202 470.42 94.0402 470.24 94.1502C470.48 93.9302 473.93 90.8402 470.24 88.5802C465.3 91.8202 461.09 94.8502 464.03 96.6602C460.37 96.6602 460.21 95.6602 460.21 95.6602C458.367 96.9332 456.199 97.6547 453.96 97.7402C455.96 95.0502 453.96 90.7402 453.96 90.7402L452.71 92.8902C452.71 92.8902 451.06 88.9402 448.87 87.8902C442.46 89.9902 441.73 94.2402 443.29 95.4102L439.02 93.4102C439.02 93.4102 435.72 96.4102 439.02 97.7202C432.44 96.6402 433.02 94.1402 433.02 94.1402C430.85 91.4871 427.756 89.7543 424.36 89.2902C426.42 90.7202 428.36 94.4902 424.36 95.0302C424.622 94.0915 424.622 93.0988 424.36 92.1602C424.36 92.1602 420.93 97.0002 416.01 97.7202C416.35 96.5562 416.535 95.3525 416.56 94.1402L411.86 95.6402L405.68 92.8702C405.68 92.8702 405.62 96.6502 407.2 97.5402C404.866 96.7377 402.666 95.5918 400.67 94.1402L392.35 89.2802C392.35 89.2802 395.09 92.1602 392.9 94.1302C391.03 95.8102 389.41 93.5602 388.99 92.8702C389.3 93.4602 389.85 95.2802 385.77 96.6302C383.551 96.4713 381.445 95.5936 379.77 94.1302C379.77 94.1302 377.57 95.1302 378.13 95.9002C375.27 95.1402 372.84 91.7802 372.97 90.8002C369.37 94.8602 369.37 99.2602 364.49 99.8002C364.98 96.6002 362.24 96.8002 361.7 95.3502C360.868 96.6466 359.651 97.6501 358.22 98.2202C358.22 98.2202 354.76 94.2202 358.22 91.5802L352.94 95.5202C352.94 95.3102 353.77 92.4202 347.44 91.0402C347.99 93.0402 346.35 97.5002 341.97 97.8602C343.07 95.8602 341.97 93.5502 338.68 93.1902C336.49 94.4502 333.75 96.2502 336.49 97.3202C331.01 96.6002 330.49 92.8302 333.2 90.6802C327.2 95.3502 326.08 97.5002 322.79 97.6802C324.44 95.5302 323.88 92.4702 320.6 91.7602C315.81 94.3802 312.6 99.3802 316.7 100.81C311.2 99.1602 309.1 95.8102 309.1 94.1002C307.471 94.6228 305.967 95.4737 304.68 96.6002C303.06 95.3502 300.81 92.6702 304.68 89.2502C296.49 94.0902 298.14 97.1402 294.86 98.2502C293.75 96.6302 292.66 93.2502 289.38 91.6102L290.45 94.4402C290.24 94.0602 288.38 90.9702 281.71 89.2802C281.355 89.599 281.081 89.9979 280.911 90.4438C280.741 90.8897 280.68 91.3697 280.733 91.844C280.786 92.3182 280.951 92.773 281.215 93.1706C281.479 93.5682 281.834 93.8972 282.25 94.1302C279.537 93.8723 276.917 93.0113 274.58 91.6102C274.58 91.6102 272.39 95.9202 275.13 97.8902C264.72 97.7102 266.6 92.8902 266.6 92.8902L259.78 87.5102C258.69 90.2002 257.6 93.6202 254.85 94.1602C252.1 94.7002 251.58 96.6602 253.76 98.1002C251.913 98.0173 250.135 97.3712 248.666 96.2486C247.196 95.126 246.106 93.5807 245.54 91.8202C242.36 94.2502 236.71 95.8202 236.35 95.9202C238.96 93.2402 239.18 89.4802 236.35 88.4002C230.77 90.2002 230.21 90.9202 230.77 92.0002C227.47 91.1002 227.47 89.3102 227.47 89.3102C227.47 89.3102 222.47 91.6602 224.14 94.1602C221.89 93.5336 219.706 92.6897 217.62 91.6402C215.97 95.7702 214.32 97.3802 211.04 98.4602C209.93 97.7402 210.49 96.6602 208.84 95.0502C207.9 93.5002 208.19 90.4902 209.31 89.5802C203.88 91.9302 203.39 93.4302 203.39 93.4302C202.448 93.2613 201.536 92.9582 200.68 92.5302C200.75 93.7602 200.24 95.3702 197.29 95.6602C197.89 94.5102 194.06 94.1602 194.06 94.1602C194.06 94.1602 189.12 96.8402 191.32 97.9202C190.333 97.8467 189.376 97.5503 188.52 97.0531C187.664 96.556 186.933 95.8711 186.38 95.0502C186.38 95.0502 180.91 99.6302 177.62 99.8602C178.17 98.1002 180.36 94.1502 175.97 92.7102C174.238 93.5459 172.36 94.0383 170.44 94.1602C170.44 94.1602 175.87 91.6402 170.44 90.5602C165.56 90.7402 163.93 95.5602 163.93 95.5602L160.08 94.1302C160.08 94.1302 158.98 95.0002 153.52 96.6302C151.52 97.6302 152.15 98.2002 152.95 98.5102C151.2 98.0602 148.04 97.0502 148.04 95.9002C148.04 94.3002 152.41 90.0002 146.39 89.2802C145.015 91.4735 142.95 93.1478 140.52 94.0402C140.01 92.9002 136.76 91.5902 136.01 91.5102C135.26 91.4302 131.28 93.6402 133.78 95.5102C129.29 94.3602 129.29 93.7902 130.03 92.9702C128.49 93.2332 127.081 94.0041 126.03 95.1602C126.268 94.1955 126.319 93.194 126.18 92.2102C126.129 91.8249 125.999 91.4542 125.8 91.1207C125.6 90.7871 125.335 90.4977 125.02 90.2702C124.851 90.6216 124.621 90.94 124.34 91.2102C124.059 90.94 123.829 90.6216 123.66 90.2702C123.343 90.4948 123.077 90.7836 122.879 91.1178C122.68 91.4521 122.555 91.8242 122.51 92.2102C122.366 93.1938 122.417 94.1962 122.66 95.1602C121.608 94.0041 120.2 93.2332 118.66 92.9702C119.39 93.7902 119.39 94.3602 114.9 95.5102C117.4 93.6302 113.4 91.4202 112.67 91.5102C111.94 91.6002 108.67 92.9002 108.17 94.0402C105.736 93.1498 103.668 91.4752 102.29 89.2802C96.29 90.0002 100.65 94.2802 100.65 95.9002C100.65 97.0502 97.48 98.0602 95.73 98.5102C96.53 98.2002 97.17 97.6102 95.16 96.6302C89.7 95.0002 88.61 94.1302 88.61 94.1302L84.76 95.5602C84.76 95.5602 83.12 90.7102 78.25 90.5602C72.81 91.6402 78.25 94.1602 78.25 94.1602C76.3301 94.0396 74.452 93.5471 72.72 92.7102C68.33 94.1502 70.51 98.1002 71.07 99.8602C67.77 99.6302 62.31 95.0502 62.31 95.0502C61.7496 95.8772 61.008 96.5656 60.1416 97.0629C59.2752 97.5602 58.3068 97.8534 57.31 97.9202C59.52 96.8402 54.57 94.1602 54.57 94.1602C54.57 94.1602 50.74 94.5102 51.34 95.6602C48.39 95.3702 47.88 93.7602 47.95 92.5302C47.0944 92.9582 46.1817 93.2613 45.24 93.4302C45.24 93.4302 44.75 91.9302 39.32 89.5802C40.44 90.4902 40.74 93.5002 39.79 95.0502C38.14 96.6602 38.7 97.7402 37.59 98.4602C34.31 97.3802 32.66 95.7702 31.01 91.6402C28.9577 92.6728 26.8112 93.5066 24.6 94.1302C26.3 91.6302 21.27 89.2802 21.27 89.2802C21.2336 89.6463 21.0911 89.9938 20.86 90.2802L18 37.4102L546.26 37.4202Z" fill="#013893"/>
</g>
<path d="M126.21 90.2203C125.502 90.1013 124.855 89.7493 124.37 89.2203C124.651 88.9501 124.881 88.6317 125.05 88.2803C125.365 88.5079 125.63 88.7973 125.83 89.1308C126.029 89.4644 126.159 89.8351 126.21 90.2203V90.2203Z" fill="#A90516"/>
<path d="M26.2501 50.1402L542.38 48.8602L544.5 38.3102L445.04 37.4502L23.3901 39.0302L26.2501 50.1402Z" fill="#101011" fill-opacity="0.54"/>
<path d="M15.1299 357.64L15.5999 353.71L16.8999 348.2L17.5799 350.78L15.1299 357.64Z" fill="#491F07"/>
<path d="M33.19 387.59L33.78 393.68L34.34 394.42V385.8L32.54 385.95L33.19 387.59Z" fill="#491F07"/>
<path d="M13.9502 2.37012L13.1802 3.01012L12.9302 3.99012L14.5902 5.61012L15.1902 10.4501L15.9602 4.86012L13.9502 2.37012Z" fill="#491F07"/>
<path d="M21.6001 8.32031L20.9401 8.97031L21.1601 9.73031L20.3501 10.6003L22.5201 13.2903L22.3501 9.81031L21.6001 8.32031Z" fill="#491F07"/>
<path d="M20.3601 389.9L20.8601 388.69L20.6101 380.83L19.1001 378.96L20.3601 389.9Z" fill="#491F07"/>
<path d="M19.8501 393.48L21.0201 392.11L24.7901 391.02L23.6001 393.25L19.8501 393.48Z" fill="#491F07"/>
<path d="M11.6299 61.5502L12.1099 60.6602L14.4499 59.1802L14.7799 60.2302L11.6299 61.5502Z" fill="#491F07"/>
<path d="M33.3801 231.56L31.8801 231.63L26.3401 247.39L26.1001 254.12L33.3801 231.56Z" fill="#491F07"/>
<path d="M40.0599 401.47L38.4099 401.17L37.3999 398.25L35.8699 392.97L34.3399 394.42L33.4799 386.66L32.4599 389.9L30.7599 387.69L27.8599 397.74L25.4799 395.02L24.5199 398.68L21.0699 398.06L19.8499 393.48L22.5699 392.46L19.4999 380.19L20.3599 389.9L17.7999 391.95L16.9999 397.33L15.5999 397.08L15.1299 357.64L16.4599 351.23L14.9899 345.23L14.1199 272.16L11.6299 61.55L13.6199 60.23L11.5999 59.1L11.5399 54.28L11.4199 44.17L11.0899 15.8L10.8999 0L11.8599 0.75L12.5499 4.31L14.2499 5.82L15.1899 10.45V5.25L13.6199 3.64L13.9499 2.37L19.8599 6.97L20.2099 8.94L19.3599 10.08L21.7699 12.53L22.5199 13.29L22.0199 12.46L20.9399 10.64L21.9099 9.51L21.5999 8.32L24.6999 10.73L24.7399 11.76L26.0299 44.64L26.3399 52.47L28.8199 115.49L27.4599 128.77L29.8299 141.22L33.0599 223.45L26.2499 252.05L33.3799 231.56L33.8499 243.49L40.0599 401.47Z" fill="url(#paint0_linear)"/>
<path d="M40.0601 401.47L38.4101 401.17L37.4101 398.25L35.8801 392.97L34.3501 394.42L33.4901 386.66L32.4901 389.9L30.7901 387.69L27.8901 397.74L25.5101 395.02L24.5101 398.68L21.0601 398.06L19.8401 393.48L22.5601 392.48L19.7501 381.19L19.5001 380.19L19.5901 381.19L20.3601 389.9L17.8001 391.95L17.0001 397.33L15.6001 397.08L15.4101 381.08L15.3501 373.43L15.1601 357.64L16.4901 351.23L15.0201 345.23L14.1201 272.13C21.3683 263.064 27.9616 253.493 33.8501 243.49L38.9501 373.13L39.2701 381.51L40.0601 401.47Z" fill="#101011" fill-opacity="0.19"/>
<path d="M15.6001 17.3003C15.6001 17.3003 19.0301 25.2003 19.3001 30.8303C20.2201 22.1303 15.6001 17.3003 15.6001 17.3003Z" fill="#101011" fill-opacity="0.19"/>
<path d="M39.2698 381.49L19.7498 381.19H19.5898L15.4098 381.13L15.3198 373.43L38.9498 373.11L39.2698 381.49Z" fill="#101011" fill-opacity="0.19"/>
<path d="M26.2499 50.1399L11.4799 49.2299L11.4199 44.1699L26.0299 44.6399L26.2499 50.1399Z" fill="#101011" fill-opacity="0.54"/>
<path d="M568.11 29.3303L567.57 28.9203L565.99 28.2603L565.19 28.8003L568.11 29.3303Z" fill="#491F07"/>
<path d="M567.57 36.8999L567 36.4199L566.039 36.6999L565.62 35.8999L564.909 35.9599L563.5 37.7999L563.669 38.9999L567.57 36.8999Z" fill="#491F07"/>
<path d="M7.81006 41.6099L8.99006 41.8199L10.0901 42.8399L9.11006 44.8499L7.81006 41.6099Z" fill="#491F07"/>
<path d="M4.72998 28.2701L6.33998 27.9801L12.61 29.4301L7.44998 27.0301L8.66998 26.6401L22.52 28.0301L21.66 30.8301L12.39 32.3201L4.72998 28.2701Z" fill="#491F07"/>
<path d="M80.8999 24.04L88.4999 25.21L109.57 29.44L105.71 32.85L80.8999 24.04Z" fill="#491F07"/>
<path d="M33.3498 349.81C33.3498 349.81 27.0998 381.56 26.0698 384.43C31.2798 381.76 33.3498 349.81 33.3498 349.81Z" fill="#101011" fill-opacity="0.19"/>
<path d="M542.53 56.4202L542.87 56.0002L545.73 55.4102L546.46 56.2502L542.53 56.4202Z" fill="#491F07"/>
<path d="M548.5 352.72V349.43L550.159 341H552.25L548.5 352.72Z" fill="#491F07"/>
<path d="M543.77 117.99L544.23 117.66L550.35 124.7L548.33 125.74L543.77 117.99Z" fill="#491F07"/>
<path d="M564.759 102.2L563.499 101.71L555.769 104.04L555.299 105.09L556.759 106.07L564.759 102.2Z" fill="#491F07"/>
<path d="M568.77 386.07L567 378.44L565.35 382.82L563.47 377.07L556.47 390.47H553.47L551.17 387.74V390.47H549.27L548.51 352.72L550.51 342.72C550.51 342.72 549.51 337.93 548.07 332.64L546.93 275.83L543.75 118.01L549.08 125.17L543.71 115.65L542.51 56.4399L545.38 55.7499L542.49 55.3899L542.36 48.8799L542.17 39.5299L541.88 24.8999L541.68 14.9899L544.03 14.7899L545.94 23.0799L546.51 25.5699V17.9999L549.08 19.1799V15.8099L551.35 14.1299L559.77 13.4299L560.37 16.5599L561.68 23.4399L562.62 15.5399L562.9 13.1699H563.5V15.1699L563.85 39.7999L563.97 48.6599L564.7 100.05L555.35 105.13L564.81 102.24L565.9 179.71L568.15 339L567.47 349L568.35 352.91L568.77 386.07Z" fill="url(#paint1_linear)"/>
<path d="M568.769 386.07L566.999 378.44L565.349 382.82L563.469 377.07L559.549 384.52L556.419 390.52H553.419L551.119 387.79V390.52H549.219L549.069 383L548.739 366.56L548.459 352.77L550.459 342.77C550.459 342.77 549.459 337.98 548.019 332.69L546.879 275.88C550.729 264.64 553.879 254.88 556.069 248.79C560.749 235.56 563.929 204.03 565.779 179.79L568.029 339.08L567.349 349.08L568.229 352.99L568.439 367.65L568.769 386.07Z" fill="#101011" fill-opacity="0.19"/>
<path d="M564 48.65C556.43 48.65 547.69 48.7499 542.38 48.8599L542.19 39.51L547.27 36.7199C552.959 36.5828 558.615 37.6282 563.88 39.79L564 48.65Z" fill="#101011" fill-opacity="0.54"/>
<path d="M568.77 386.07L567 378.44L565.38 382.82L563.5 377.07L559.58 384.52L556.45 390.47H553.46L551.16 387.74V390.47H549.26L549.11 382.95L548.78 366.51L568.51 367.58L568.77 386.07Z" fill="#101011" fill-opacity="0.19"/>
<path d="M567.14 42.85L566.47 41.94L563.5 40.2L561.53 39.54L561.93 41.2L567.14 42.85Z" fill="#491F07"/>
<path opacity="0.11" d="M544.05 14.77L545.96 23.06L541.9 24.88L541.7 14.97L544.05 14.77Z" fill="white"/>
<path opacity="0.11" d="M559.77 13.46L560.37 16.59L546.53 22.8V17.98L549.1 19.16V15.79L551.35 14.16L559.77 13.46Z" fill="white"/>
<path opacity="0.11" d="M563.53 15.1599L562.62 15.5699L562.9 13.1999L563.5 13.1499L563.53 15.1599Z" fill="white"/>
<path d="M550.35 60.23C550.35 60.23 546.8 76.79 548.24 86.9C549.69 72.05 550.35 60.23 550.35 60.23Z" fill="#101011" fill-opacity="0.19"/>
<path d="M558.969 121.7C558.969 121.7 562.149 165.07 555.299 176.62C557.939 159.3 558.969 121.7 558.969 121.7Z" fill="#101011" fill-opacity="0.19"/>
<path d="M569.9 370.26L568.31 368.73L567 368.5L564.74 371.48L561.03 369.77L555.24 375.83L556.44 377.9L569.9 370.26Z" fill="#491F07"/>
<path d="M550.35 159.95C550.35 159.95 552.25 215.1 555.35 219.15C549.62 205.13 547.96 169.3 550.35 159.95Z" fill="#101011" fill-opacity="0.19"/>
<path d="M553.45 51.5103L557.86 70.3602C557.86 70.3602 557.35 56.3203 553.45 51.5103Z" fill="#101011" fill-opacity="0.19"/>
<path d="M553.45 270.91C553.45 270.91 560.28 317.8 559.71 330.21C564.18 314.32 555.54 279.05 553.45 270.91Z" fill="#101011" fill-opacity="0.19"/>
<path d="M568.15 28.7H566.25L568.11 29.33V29.57L567.81 33.84L566.23 34.84L565.13 34.02L564.64 36.02L564.02 38.57L565.6 35.97V35.9L565.67 35.96L566.94 37.13L567.55 36.9L567.23 41.4L562.11 40.18L567.11 42.85L566.97 44.85L281.35 45.54L254.57 45.61C239.795 43.1487 224.712 43.1859 209.95 45.72L7.45 46.23L6.92 42.75L7.81 41.61L9.53 43.37L12.73 40.37L15.18 38.13L9.9 40.22L9.35 38.13L6.51 40.02L4.74 28.31L11.35 29.82L7.45 27.03L18.35 28.42L6.94 25.13L4.12 24.31L4 23.5L80.9 24.07L88.5 25.78L106.42 29.78L96.1 25.78L91.7 24.09L419.14 26.5L440.87 28.5L451.95 29.5L460.32 28.62L477.01 26.87L568.23 27.54L568.15 28.7Z" fill="url(#paint2_linear)"/>
<path d="M567.25 41.4L562.13 40.18L567.13 42.85L566.99 44.85L281.35 45.54C382.15 42.6 518.47 38.42 564.64 36.02H565.64H565.75L567.02 37.19L567.63 36.96L567.25 41.4Z" fill="#101011" fill-opacity="0.19"/>
<path d="M281.35 45.5401L254.57 45.6101C239.795 43.1488 224.712 43.186 209.95 45.7201L7.44992 46.2301L6.91992 42.7501L7.80992 41.6101L9.52992 43.3701L12.7299 40.3701C72.6999 41.0401 255.53 43.2001 281.35 45.5401Z" fill="#101011" fill-opacity="0.19"/>
<path opacity="0.26" d="M80.9 24.0402L88.5 25.7502L6.94 25.1002L4.12 24.2802L4 23.4702L80.9 24.0402Z" fill="white"/>
<path opacity="0.26" d="M419.14 26.5301L440.87 28.5601L96.1002 25.8101L91.7002 24.1201L419.14 26.5301Z" fill="white"/>
<path opacity="0.26" d="M568.15 28.7H566.25L568.11 29.33L568.09 29.57L460.32 28.71L477.01 26.96L568.23 27.63L568.15 28.7Z" fill="white"/>
<path d="M550.35 33.5003C550.35 33.5003 533.26 32.0703 523.83 33.5003C534.21 34.2103 542.51 34.5703 550.35 33.5003Z" fill="#101011" fill-opacity="0.19"/>
<path d="M447.009 37.4502C447.009 37.4502 465.619 41.8502 468.719 41.9702C459.889 42.8002 447.489 38.4202 447.009 37.4502Z" fill="#101011" fill-opacity="0.19"/>
<path d="M494.35 37.6699C494.35 37.6699 518.21 40.8399 523.22 40.7499C506.77 42.1299 496.99 38.0299 494.35 37.6699Z" fill="#101011" fill-opacity="0.19"/>
<path d="M472.61 34.8499C472.61 34.8499 480.32 32.5899 485.25 32.8499C484.35 33.9999 474.97 34.8499 472.61 34.8499Z" fill="#101011" fill-opacity="0.19"/>
<path d="M22.52 32.8501C22.52 32.8501 58.98 39.1001 79.1 38.6201C67.04 39.8301 26.69 37.2801 22.52 32.8501Z" fill="#101011" fill-opacity="0.19"/>
<path d="M75.27 32.3203C75.27 32.3203 116.82 30.4903 143.7 35.8803C118.81 35.2303 75.27 32.3203 75.27 32.3203Z" fill="#101011" fill-opacity="0.19"/>
<path d="M137.7 44.03C137.7 44.03 168.16 42.16 173 40.75C163.35 43.21 144.49 45.13 137.7 44.03Z" fill="#101011" fill-opacity="0.19"/>
<path d="M194.35 32.86C194.35 32.86 212.93 30.16 223.79 32.02C214.28 33.53 197.8 34.29 194.35 32.86Z" fill="#101011" fill-opacity="0.19"/>
<path d="M244.27 35.8803C244.27 35.8803 289.4 27.6303 319.8 30.8303C295.25 34.6303 244.27 35.8803 244.27 35.8803Z" fill="#101011" fill-opacity="0.19"/>
<path d="M299.07 40.1802C299.07 40.1802 358.59 39.5302 360.91 36.7002C358.2 41.2002 306.35 42.6302 299.07 40.1802Z" fill="#101011" fill-opacity="0.19"/>
<path d="M358.2 32.02C358.2 32.02 417.68 32.6 426.95 37.67C420.35 38.88 360.91 32.5 358.2 32.02Z" fill="#101011" fill-opacity="0.19"/>
<path opacity="0.26" d="M19.3501 10.1303L21.7601 12.5803C17.7601 13.6803 13.7601 14.9603 11.0801 15.8503L10.8901 0.050293L11.8901 0.800293L12.5801 4.36029L14.2801 5.8703L15.2201 10.5003V5.30029L13.6501 3.69029L13.9801 2.42029L19.8901 7.02029L20.2401 9.02029L19.3501 10.1303Z" fill="white"/>
<path opacity="0.26" d="M24.7399 11.7603C23.8499 11.9703 22.9299 12.2103 22.0199 12.4603L20.9399 10.6403L21.9399 9.51031L21.6299 8.32031L24.7299 10.7303L24.7399 11.7603Z" fill="white"/>
<path d="M17.5098 54.8701C17.5098 54.8701 19.4498 89.8701 18.1498 93.8701C20.9098 78.4201 21.2298 58.8001 17.5098 54.8701Z" fill="#101011" fill-opacity="0.19"/>
<path d="M23.81 93.1299C23.81 93.1299 22.67 115.22 22.52 119.13C23.23 116.35 25.12 97.7499 23.81 93.1299Z" fill="#101011" fill-opacity="0.19"/>
<path d="M17.3502 124.65C17.3502 124.65 19.7202 153.27 23.3502 157.93C16.4202 149.5 17.3502 124.65 17.3502 124.65Z" fill="#101011" fill-opacity="0.19"/>
<path d="M26.25 150.61C26.5294 155.856 26.5294 161.114 26.25 166.36C28.4 165.25 26.35 153.27 26.25 150.61Z" fill="#101011" fill-opacity="0.19"/>
<path d="M17.2599 169.68C17.2599 169.68 18.2599 196.75 19.4199 201.63C15.7499 197.19 17.4399 171.46 17.2599 169.68Z" fill="#101011" fill-opacity="0.19"/>
<path d="M25.48 194.58L28.84 227.13C29.95 221.59 28.55 198.18 25.48 194.58Z" fill="#101011" fill-opacity="0.19"/>
<path d="M22.5198 218.04C22.5198 218.04 17.9898 257.81 19.4198 262.33C17.0798 262.63 19.3498 219.38 22.5198 218.04Z" fill="#101011" fill-opacity="0.19"/>
<path d="M29.2201 269.03C29.2201 269.03 28.2201 298.79 30.8401 312.1C31.5001 303.23 31.1501 272.32 29.2201 269.03Z" fill="#101011" fill-opacity="0.19"/>
<path d="M19.42 292.58C19.42 292.58 34.61 325.41 35.72 336.06C33.94 331.62 18.87 294.58 19.42 292.58Z" fill="#101011" fill-opacity="0.19"/>
<path d="M20.48 320.13C20.48 320.13 18.41 343.38 22.48 352.92C23.07 351.81 20.48 320.13 20.48 320.13Z" fill="#101011" fill-opacity="0.19"/>
<path d="M564.61 379.4L563.38 379.52L560.56 381.55L561.22 383.33L564.61 379.4Z" fill="#491F07"/>
<path d="M561.04 369.23L555.95 376.59L561.25 370.69L565.42 372.69L568.08 369.23L569.9 370.26L566.68 377.91L565.31 376.48L562.98 378.77L562.39 379.35L562.18 378.76L561.04 375.63L561.24 378.76L561.47 382.27L564.61 379.4L565.4 380.94L563.42 385.63L436.27 383.32L419.6 378.96L431.17 383.23L130.67 377.78L138.76 376.46L163.41 372.43L114.51 376.33L102.67 377.27L23.0099 375.83L12.0199 375.63L11.8299 372.58L14.8999 373.68L16.7099 370.97L23.3699 373.68L16.6799 368.44L15.1299 370.19L11.5299 367.72L11.4199 365.94L18.6799 363.64L11.3599 364.95L11.2199 362.58L11.7399 361.6L12.9799 359.24L17.5799 361.13L15.6699 358.93L10.8999 357.34L446.06 363.77L464.7 367.04L479.84 364.27L571.85 365.63L570.68 368.4L568.08 367.55L566.17 369.06L564.72 370.2L561.04 369.23Z" fill="url(#paint3_linear)"/>
<path d="M23.0098 375.83L114.51 376.33L102.67 377.27L23.0098 375.83Z" fill="#101011" fill-opacity="0.19"/>
<path d="M565.4 380.94L563.42 385.63L436.27 383.32L419.6 378.96L431.17 383.23L130.67 377.78L138.76 376.46L561.24 378.76L561.47 382.27L564.61 379.4L565.4 380.94Z" fill="#101011" fill-opacity="0.11"/>
<path opacity="0.14" d="M571.85 365.63L570.68 368.4L568.08 367.55L566.17 369.06L11.7399 361.6L12.9799 359.24L17.5799 361.13L15.6699 358.93L10.8999 357.34L446.06 363.77L464.7 367.04L479.84 364.27L571.85 365.63Z" fill="white"/>
<path d="M21 365.63C21 365.63 69.41 368.26 92.6 365.63C60.46 372.64 23.35 367.62 21 365.63Z" fill="#101011" fill-opacity="0.19"/>
<path d="M119.6 365.63C119.6 365.63 176.96 361.63 179.86 361.63C159.58 365.99 119.6 365.63 119.6 365.63Z" fill="#101011" fill-opacity="0.19"/>
<path d="M225.92 372.43C225.92 372.43 288.78 370.85 296.6 374.1C281.83 374.39 225.92 372.43 225.92 372.43Z" fill="#101011" fill-opacity="0.19"/>
<path d="M552.86 39.06C553.178 39.33 553.512 39.5804 553.86 39.81C554.45 40.21 555.86 40.95 557.04 40.08C557.486 39.8076 557.819 39.3847 557.981 38.8877C558.142 38.3907 558.121 37.8525 557.92 37.37C557.317 36.6182 556.647 35.9221 555.92 35.29L552.86 39.06Z" fill="#101011" fill-opacity="0.19"/>
<path d="M78.6699 371.49C78.6699 371.49 110.99 369.8 125.67 371.49C112.07 373.71 78.6699 371.49 78.6699 371.49Z" fill="#101011" fill-opacity="0.19"/>
<path d="M363.75 370.34C363.75 370.34 429.35 364.68 437.43 365.49C416.17 367.04 368.45 369.8 363.75 370.34Z" fill="#101011" fill-opacity="0.19"/>
<path d="M426.549 376.46C426.549 376.46 459.829 382.14 467.819 382.7C447.559 382.32 427.849 378.22 426.549 376.46Z" fill="#101011" fill-opacity="0.19"/>
<path d="M495.52 372.43L528.53 369.7L535.86 370.34L495.52 372.43Z" fill="#101011" fill-opacity="0.19"/>
<path d="M554.61 39.8102C555.952 39.8102 557.04 38.7222 557.04 37.3802C557.04 36.0381 555.952 34.9502 554.61 34.9502C553.268 34.9502 552.18 36.0381 552.18 37.3802C552.18 38.7222 553.268 39.8102 554.61 39.8102Z" fill="#1E1D1B"/>
<path d="M556.94 37.2203C556.938 37.543 556.874 37.8624 556.75 38.1603C556.612 38.5118 556.393 38.826 556.111 39.0775C555.829 39.329 555.492 39.5107 555.127 39.608C554.762 39.7053 554.38 39.7155 554.01 39.6377C553.641 39.56 553.294 39.3964 553 39.1603C552.932 39.109 552.868 39.0521 552.81 38.9903C552.774 38.9595 552.74 38.9261 552.71 38.8903L552.51 38.6403C552.457 38.5673 552.41 38.4904 552.37 38.4103C552.251 38.1876 552.167 37.9482 552.12 37.7003V37.4103V37.1303C552.128 36.8991 552.168 36.6703 552.24 36.4503C552.398 35.9649 552.705 35.542 553.119 35.242C553.532 34.9421 554.029 34.7805 554.54 34.7803C554.759 34.78 554.978 34.8103 555.19 34.8703C555.413 34.9306 555.625 35.025 555.82 35.1503C555.885 35.1821 555.945 35.2224 556 35.2703C556.081 35.3281 556.158 35.3916 556.23 35.4603C556.41 35.6357 556.562 35.8381 556.68 36.0603C556.72 36.1383 556.757 36.2184 556.79 36.3003C556.836 36.3988 556.87 36.503 556.89 36.6103V36.7503V37.0003C556.93 37.1303 556.94 37.1303 556.94 37.2203Z" fill="#383634"/>
<path opacity="0.26" d="M556.94 37.22C556.938 37.5428 556.874 37.8621 556.75 38.16L554.04 39.61C553.673 39.5259 553.331 39.3583 553.04 39.12L556.97 37.02C556.93 37.13 556.94 37.13 556.94 37.22Z" fill="white"/>
<path opacity="0.26" d="M556.2 35.48L552.12 37.66V37.37L556 35.29C556.07 35.3489 556.137 35.4124 556.2 35.48V35.48Z" fill="white"/>
<path d="M554.219 377.04C554.535 377.313 554.869 377.564 555.219 377.79C555.809 378.2 557.219 378.94 558.399 378.06C558.844 377.79 559.178 377.369 559.339 376.873C559.501 376.378 559.479 375.841 559.279 375.36C558.692 374.611 558.039 373.915 557.329 373.28L554.219 377.04Z" fill="#101011" fill-opacity="0.19"/>
<path d="M555.97 377.8C557.312 377.8 558.4 376.712 558.4 375.37C558.4 374.028 557.312 372.94 555.97 372.94C554.627 372.94 553.54 374.028 553.54 375.37C553.54 376.712 554.627 377.8 555.97 377.8Z" fill="#1E1D1B"/>
<path d="M558.35 375.21C558.348 375.529 558.287 375.844 558.17 376.14C557.983 376.584 557.67 376.962 557.27 377.229C556.87 377.496 556.4 377.639 555.92 377.64C555.766 377.651 555.613 377.651 555.46 377.64C555.093 377.557 554.75 377.389 554.46 377.15C554.392 377.099 554.328 377.042 554.27 376.98L554.17 376.88C554.101 376.801 554.037 376.718 553.98 376.63C553.922 376.556 553.871 376.475 553.83 376.39C553.711 376.168 553.627 375.928 553.58 375.68V375.4V375.13C553.589 374.896 553.629 374.664 553.7 374.44C553.861 373.958 554.17 373.538 554.582 373.24C554.995 372.942 555.491 372.781 556 372.78C556.219 372.78 556.438 372.81 556.65 372.87C556.875 372.929 557.09 373.02 557.29 373.14C557.35 373.178 557.407 373.221 557.46 373.27C557.541 373.328 557.618 373.392 557.69 373.46C557.872 373.634 558.024 373.837 558.14 374.06C558.14 374.13 558.22 374.22 558.26 374.3C558.3 374.38 558.33 374.51 558.36 374.61V374.75V375C558.29 375.07 558.35 375.13 558.35 375.21Z" fill="#383634"/>
<path opacity="0.26" d="M558.349 375.21C558.348 375.529 558.287 375.844 558.169 376.14L555.459 377.6C555.093 377.517 554.75 377.349 554.459 377.11L558.389 375.01C558.289 375.07 558.349 375.13 558.349 375.21Z" fill="white"/>
<path opacity="0.26" d="M557.56 373.47L553.48 375.64V375.36L557.36 373.28C557.431 373.339 557.498 373.403 557.56 373.47V373.47Z" fill="white"/>
<path opacity="0.26" d="M558.13 374.31L553.88 376.59C553.822 376.516 553.772 376.435 553.73 376.35L558.01 374.07C558.05 374.13 558.09 374.23 558.13 374.31Z" fill="white"/>
<path d="M26.5298 368.53C26.8451 368.803 27.1792 369.054 27.5298 369.28C28.1198 369.69 29.5298 370.43 30.7098 369.55C31.1549 369.279 31.4883 368.858 31.6497 368.363C31.8112 367.868 31.7899 367.331 31.5898 366.85C31.0026 366.1 30.3501 365.404 29.6398 364.77L26.5298 368.53Z" fill="#101011" fill-opacity="0.19"/>
<path d="M28.2801 369.29C29.6221 369.29 30.7101 368.202 30.7101 366.86C30.7101 365.518 29.6221 364.43 28.2801 364.43C26.938 364.43 25.8501 365.518 25.8501 366.86C25.8501 368.202 26.938 369.29 28.2801 369.29Z" fill="#1E1D1B"/>
<path d="M30.6101 366.7C30.6088 367.023 30.5442 367.342 30.4201 367.64C30.2338 368.081 29.9222 368.457 29.524 368.722C29.1257 368.987 28.6584 369.129 28.1801 369.13C28.0236 369.141 27.8666 369.141 27.7101 369.13C27.3434 369.046 27.0012 368.879 26.7101 368.64C26.6422 368.589 26.5786 368.532 26.5201 368.47L26.4201 368.37L26.2201 368.12C26.1676 368.047 26.1208 367.97 26.0801 367.89C25.9614 367.668 25.8771 367.428 25.8301 367.18V366.89V366.67C25.8382 366.439 25.8786 366.21 25.9501 365.99C26.1083 365.505 26.416 365.082 26.8291 364.782C27.2422 364.482 27.7396 364.32 28.2501 364.32C28.4699 364.32 28.6886 364.35 28.9001 364.41C29.1228 364.467 29.3353 364.558 29.5301 364.68C29.5934 364.719 29.6536 364.762 29.7101 364.81C29.7911 364.868 29.868 364.932 29.9401 365C30.1203 365.176 30.2722 365.378 30.3901 365.6C30.4308 365.678 30.4676 365.758 30.5001 365.84C30.5469 365.939 30.5805 366.043 30.6001 366.15V366.29V366.54C30.6001 366.57 30.6101 366.63 30.6101 366.7Z" fill="#383634"/>
<path opacity="0.26" d="M29.4598 364.64L25.7598 366.64C25.7679 366.409 25.8082 366.18 25.8798 365.96L28.8798 364.38C29.0846 364.438 29.2799 364.526 29.4598 364.64V364.64Z" fill="white"/>
<path opacity="0.26" d="M30.5699 366.25L26.4799 368.43L26.3799 368.33L30.5299 366.13L30.5699 366.25Z" fill="white"/>
<path opacity="0.26" d="M30.43 365.8L26.18 368.13C26.1276 368.057 26.0808 367.98 26.04 367.9L30.35 365.56C30.3806 365.639 30.4073 365.719 30.43 365.8Z" fill="white"/>
<path d="M16.6401 36.5801C16.9588 36.849 17.2927 37.0995 17.6401 37.3301C18.2201 37.7301 19.6401 38.4701 20.8101 37.6001C21.2607 37.3321 21.5984 36.9094 21.7603 36.4107C21.9223 35.9121 21.8973 35.3716 21.6901 34.8901C21.1081 34.1392 20.4587 33.4429 19.7501 32.8101L16.6401 36.5801Z" fill="#101011" fill-opacity="0.19"/>
<path d="M18.4002 37.3302C19.7423 37.3302 20.8302 36.2423 20.8302 34.9002C20.8302 33.5582 19.7423 32.4702 18.4002 32.4702C17.0582 32.4702 15.9702 33.5582 15.9702 34.9002C15.9702 36.2423 17.0582 37.3302 18.4002 37.3302Z" fill="#1E1D1B"/>
<path d="M20.72 34.7401C20.7173 35.0618 20.6563 35.3803 20.54 35.6801C20.346 36.114 20.03 36.4821 19.6305 36.7396C19.231 36.997 18.7653 37.1327 18.29 37.1301C18.1371 37.1454 17.983 37.1454 17.83 37.1301C17.4638 37.0447 17.1219 36.8772 16.83 36.6401C16.7653 36.5887 16.7051 36.5318 16.65 36.4701L16.55 36.3701C16.4755 36.297 16.4085 36.2166 16.35 36.1301C16.2975 36.0572 16.2507 35.9803 16.21 35.9001C16.087 35.6794 16.0025 35.4393 15.96 35.1901C15.9502 35.0937 15.9502 34.9966 15.96 34.9001C15.9547 34.8503 15.9547 34.8 15.96 34.7501C15.9552 34.7271 15.9552 34.7032 15.96 34.6801C15.9584 34.4481 15.999 34.2176 16.08 34.0001C16.2714 33.406 16.6858 32.9093 17.2361 32.6146C17.7863 32.3199 18.4294 32.2502 19.03 32.4201C19.2525 32.4824 19.4647 32.5767 19.66 32.7001C19.7223 32.7367 19.7824 32.7767 19.84 32.8201L20.06 33.0101C20.2403 33.1855 20.3921 33.388 20.51 33.6101C20.5579 33.6859 20.5981 33.7663 20.63 33.8501C20.63 33.9501 20.7 34.0601 20.73 34.1601V34.3001C20.7398 34.3832 20.7398 34.4671 20.73 34.5501C20.731 34.6136 20.7276 34.6771 20.72 34.7401V34.7401Z" fill="#383634"/>
<path opacity="0.26" d="M19.9802 33.0001L15.9102 35.1801C15.9004 35.0837 15.9004 34.9865 15.9102 34.8901L19.7902 32.8101L19.9802 33.0001Z" fill="white"/>
<path opacity="0.26" d="M20.68 34.2899L16.6 36.4699L16.5 36.3699L20.65 34.1299L20.68 34.2899Z" fill="white"/>
<path opacity="0.26" d="M20.55 33.8399L16.35 36.1299C16.2975 36.0569 16.2507 35.98 16.21 35.8999L20.48 33.6099C20.5101 33.6843 20.5336 33.7613 20.55 33.8399V33.8399Z" fill="white"/>
</g>
<defs>
<filter id="filter0_d" x="0" y="0" width="575.85" height="409.47" filterUnits="userSpaceOnUse" color-interpolation-filters="sRGB">
<feFlood flood-opacity="0" result="BackgroundImageFix"/>
<feColorMatrix in="SourceAlpha" type="matrix" values="0 0 0 0 0 0 0 0 0 0 0 0 0 0 0 0 0 0 127 0" result="hardAlpha"/>
<feOffset dy="4"/>
<feGaussianBlur stdDeviation="2"/>
<feComposite in2="hardAlpha" operator="out"/>
<feColorMatrix type="matrix" values="0 0 0 0 0 0 0 0 0 0 0 0 0 0 0 0 0 0 0.25 0"/>
<feBlend mode="normal" in2="BackgroundImageFix" result="effect1_dropShadow"/>
<feBlend mode="normal" in="SourceGraphic" in2="effect1_dropShadow" result="shape"/>
</filter>
<filter id="filter1_d" x="8" y="31.4102" width="548.26" height="83.4" filterUnits="userSpaceOnUse" color-interpolation-filters="sRGB">
<feFlood flood-opacity="0" result="BackgroundImageFix"/>
<feColorMatrix in="SourceAlpha" type="matrix" values="0 0 0 0 0 0 0 0 0 0 0 0 0 0 0 0 0 0 127 0" result="hardAlpha"/>
<feOffset dy="4"/>
<feGaussianBlur stdDeviation="5"/>
<feComposite in2="hardAlpha" operator="out"/>
<feColorMatrix type="matrix" values="0 0 0 0 0 0 0 0 0 0 0 0 0 0 0 0 0 0 0.25 0"/>
<feBlend mode="normal" in2="BackgroundImageFix" result="effect1_dropShadow"/>
<feBlend mode="normal" in="SourceGraphic" in2="effect1_dropShadow" result="shape"/>
</filter>
<linearGradient id="paint0_linear" x1="10.7999" y1="4.41" x2="29.2299" y2="397.7" gradientUnits="userSpaceOnUse">
<stop stop-color="#C8752A"/>
<stop offset="1" stop-color="#9B5825"/>
</linearGradient>
<linearGradient id="paint1_linear" x1="16861.2" y1="51009" x2="80224.1" y2="152764" gradientUnits="userSpaceOnUse">
<stop stop-color="#C8752A"/>
<stop offset="1" stop-color="#9B5825"/>
</linearGradient>
<linearGradient id="paint2_linear" x1="33248.4" y1="3771.45" x2="302851" y2="-112116" gradientUnits="userSpaceOnUse">
<stop stop-color="#C8752A"/>
<stop offset="1" stop-color="#9B5825"/>
</linearGradient>
<linearGradient id="paint3_linear" x1="3808.53" y1="11516.3" x2="223461" y2="156098" gradientUnits="userSpaceOnUse">
<stop stop-color="#C8752A"/>
<stop offset="1" stop-color="#9B5825"/>
</linearGradient>
</defs>
</svg>
