<svg width="260" height="80" viewBox="0 0 260 80" fill="none" xmlns="http://www.w3.org/2000/svg">
<g filter="url(#filter0_d)">
<path d="M227.8 0.120117L226 0.570117L227.2 7.00012L227.8 8.95012V0.120117Z" fill="#491F07"/>
<path d="M51.4 7.00012L41.8 2.36012L52 0.420117L56.2 0.120117L56.8 8.35012L51.4 8.50012V7.00012Z" fill="#491F07"/>
<path d="M32.2 59.9701L31 59.2201L35.8 57.1301L38.8 57.2801L32.2 59.9701Z" fill="#491F07"/>
<path d="M250 55.6301L246.4 54.8801L235 55.6301L230.8 53.2401L216.4 54.5801L225.4 57.2801H242.8L250 55.6301Z" fill="#491F07"/>
<path d="M237.4 53.12V50.87L218.2 54.76L231.4 53.72L236.2 56.11L250 55.51V59.85H32.2L36.4 57.61L25 55.96L22.6 57.61L10 56.56V0H40L34 2.39L46 5.39L53.8 7.48L49.6 5.39L43.6 2.39L56.2 0H224.2L224.8 1.05L227.8 7.63V0H250V51.92L237.4 53.12Z" fill="url(#paint0_linear)"/>
<path d="M237.4 53.2401V51.0001L218.2 54.8901L231.4 53.8401L236.2 56.2401L250 55.6401V60.0001H32.2C32.2 60.0001 53.8 57.3101 85 55.5101C114.4 54.0101 139 58.6501 164.8 54.6101C190.6 50.5701 203.8 46.3801 237.4 47.2801C237.4 47.2801 245.8 47.4301 250 47.7301V52.0001L237.4 53.2401Z" fill="#101011" fill-opacity="0.19"/>
<path opacity="0.11" d="M34 2.51012L45.4 5.51012C29.2 6.10012 16.6 6.51012 10 6.70012V0.000106812H40L34 2.51012Z" fill="white"/>
<path opacity="0.11" d="M224.2 0.120132L224.8 1.12013C164.8 1.86013 94 3.96013 49.6 5.46013L44.2 2.61012L56.8 0.0701141L224.2 0.120132Z" fill="white"/>
<path opacity="0.11" d="M250 0.120132V0.870132C242.8 0.870132 235.6 1.02013 227.8 1.02013V0.0201263L250 0.17012V0.120132Z" fill="white"/>
<path d="M87.4 43.6601L10 46.5001V41.6101L87.4 43.6601Z" fill="#101011" fill-opacity="0.19"/>
<path opacity="0.28" d="M236.217 16L236.977 43.524C236.977 43.524 237.696 49 231.168 49C219.171 49 28 47.6809 28 47.6809L236.217 16Z" fill="black"/>
<path d="M237 15.6581V42.4324C236.979 43.9173 236.441 45.3333 235.503 46.3749C234.564 47.4165 233.301 48.0002 231.984 48H28.0159C26.6856 48 25.4098 47.4039 24.4691 46.3428C23.5285 45.2817 23 43.8425 23 42.3419V15.6581C23 14.1575 23.5285 12.7183 24.4691 11.6572C25.4098 10.5961 26.6856 10 28.0159 10H231.984C233.314 10 234.59 10.5961 235.531 11.6572C236.472 12.7183 237 14.1575 237 15.6581V15.6581Z" fill="#2392F9"/>
<path opacity="0.14" d="M237 15.4845V22C216.701 16.1755 120.412 7.93784 23 20.4534V15.4845C23 14.0299 23.5286 12.6349 24.4695 11.6063C25.4104 10.5778 26.6865 10 28.0171 10H231.983C233.314 10 234.59 10.5778 235.531 11.6063C236.471 12.6349 237 14.0299 237 15.4845V15.4845Z" fill="white"/>
<path opacity="0.28" d="M237 42.096C236.979 43.6706 236.441 45.1722 235.503 46.2767C234.564 47.3813 233.301 48.0002 231.984 48H28.0159C26.6856 48 25.4098 47.3679 24.4691 46.2427C23.5285 45.1174 23 43.5913 23 42V42C42.9434 42.96 159.544 48.504 237 42.096Z" fill="black"/>
</g>
<defs>
<filter id="filter0_d" x="0" y="0" width="260" height="80.0001" filterUnits="userSpaceOnUse" color-interpolation-filters="sRGB">
<feFlood flood-opacity="0" result="BackgroundImageFix"/>
<feColorMatrix in="SourceAlpha" type="matrix" values="0 0 0 0 0 0 0 0 0 0 0 0 0 0 0 0 0 0 127 0" result="hardAlpha"/>
<feOffset dy="10"/>
<feGaussianBlur stdDeviation="5"/>
<feComposite in2="hardAlpha" operator="out"/>
<feColorMatrix type="matrix" values="0 0 0 0 0 0 0 0 0 0 0 0 0 0 0 0 0 0 0.2 0"/>
<feBlend mode="normal" in2="BackgroundImageFix" result="effect1_dropShadow"/>
<feBlend mode="normal" in="SourceGraphic" in2="effect1_dropShadow" result="shape"/>
</filter>
<linearGradient id="paint0_linear" x1="130.59" y1="-1.82" x2="129.42" y2="61.01" gradientUnits="userSpaceOnUse">
<stop stop-color="#C8752A"/>
<stop offset="1" stop-color="#9B5825"/>
</linearGradient>
</defs>
</svg>
