<svg width="170" height="48" viewBox="0 0 170 48" fill="none" xmlns="http://www.w3.org/2000/svg">
<g filter="url(#filter0_d)">
<rect x="4.00348" y="1" width="161" height="40" rx="19.9895" fill="#C27129"/>
<path d="M4.00348 21L165.003 21.1138C164.744 6.25235 151.959 0.949974 145.616 1.00035C129.204 1.00035 41.1704 1.021 23.0035 1.021C9.00348 2 3.84569 13.711 4.00348 21Z" fill="white" fill-opacity="0.2"/>
<path d="M142.6 20.2332L136.634 15.2297C136.432 15.0609 136.171 14.9798 135.908 15.0043C135.646 15.0287 135.405 15.1567 135.236 15.3602C135.068 15.5636 134.986 15.826 135.009 16.0899C135.033 16.3537 135.159 16.5975 135.36 16.7679L140.41 21.0023L135.36 25.2367C135.158 25.4069 135.031 25.6509 135.008 25.9151C134.984 26.1794 135.065 26.4423 135.234 26.6461C135.403 26.8499 135.645 26.978 135.908 27.0021C136.17 27.0263 136.432 26.9446 136.634 26.7749L142.6 21.7714C142.712 21.6773 142.802 21.5597 142.864 21.4268C142.925 21.2939 142.957 21.149 142.957 21.0023C142.957 20.8556 142.925 20.7107 142.864 20.5778C142.802 20.4449 142.712 20.3273 142.6 20.2332V20.2332Z" fill="white"/>
<path d="M27.2141 16.3726H30.0281L33.8641 21.5666V16.3726H36.3701V26.0046H33.5701L29.7061 20.9926V26.0046H27.2141V16.3726ZM42.9402 26.1166C42.1656 26.1166 41.4749 25.9626 40.8682 25.6546C40.2709 25.3373 39.8042 24.908 39.4682 24.3666C39.1322 23.816 38.9642 23.1953 38.9642 22.5046C38.9642 21.7953 39.1369 21.1653 39.4822 20.6146C39.8276 20.064 40.2942 19.6393 40.8822 19.3406C41.4702 19.042 42.1236 18.8926 42.8422 18.8926C43.5329 18.8926 44.1209 19.0466 44.6062 19.3546C45.1009 19.6533 45.4696 20.064 45.7122 20.5866C45.9549 21.1 46.0762 21.6786 46.0762 22.3226C46.0762 22.4906 46.0669 22.612 46.0482 22.6866L41.8482 23.2326C41.9602 23.5593 42.1422 23.7973 42.3942 23.9466C42.6462 24.0866 42.9776 24.1566 43.3882 24.1566C44.0229 24.1566 44.7089 23.9933 45.4462 23.6666L45.7962 25.5426C44.9282 25.9253 43.9762 26.1166 42.9402 26.1166ZM43.9062 21.4686C43.7569 20.8806 43.4022 20.5866 42.8422 20.5866C42.5062 20.5866 42.2402 20.7126 42.0442 20.9646C41.8482 21.2166 41.7456 21.5433 41.7362 21.9446L43.9062 21.4686ZM49.8812 22.3646L47.8932 18.9906H50.8472L51.6312 20.6426L52.4432 18.9906H55.3132L53.3532 22.3646L55.4532 26.0046H52.5832L51.6312 24.2126L50.7072 26.0046H47.7532L49.8812 22.3646ZM60.6568 26.1166C59.8355 26.1166 59.1961 25.8833 58.7388 25.4166C58.2815 24.9406 58.0528 24.2873 58.0528 23.4566V20.7266H57.1568V18.9906H58.2628L59.5648 16.3446H60.9788V18.9906H62.6028V20.7266H60.9788V23.1066C60.9788 23.34 61.0535 23.522 61.2028 23.6526C61.3521 23.7833 61.5621 23.8486 61.8328 23.8486C62.0848 23.8486 62.3135 23.7926 62.5188 23.6806L62.6308 25.6406C62.3975 25.7806 62.0941 25.8973 61.7208 25.9906C61.3568 26.0746 61.0021 26.1166 60.6568 26.1166ZM76.5901 26.2286C74.8354 26.2286 73.7621 25.4166 73.3701 23.7926L73.0201 22.3506H72.3621V26.0046H69.2961V16.3726H73.5381C74.3408 16.3726 75.0454 16.494 75.6521 16.7366C76.2681 16.97 76.7441 17.3013 77.0801 17.7306C77.4161 18.16 77.5841 18.6546 77.5841 19.2146C77.5841 19.84 77.4301 20.3673 77.1221 20.7966C76.8234 21.2166 76.3568 21.562 75.7221 21.8326C75.7874 22.1873 75.8621 22.5093 75.9461 22.7986C76.0581 23.1533 76.2121 23.4006 76.4081 23.5406C76.6041 23.6806 76.8888 23.7506 77.2621 23.7506C77.3928 23.7506 77.5981 23.732 77.8781 23.6946V25.9766C77.4394 26.1446 77.0101 26.2286 76.5901 26.2286ZM72.8941 20.3906C73.5848 20.3906 74.0701 20.316 74.3501 20.1666C74.6394 20.008 74.7841 19.742 74.7841 19.3686C74.7841 19.0513 74.6674 18.8226 74.4341 18.6826C74.2008 18.5333 73.8321 18.4586 73.3281 18.4586H72.3621V20.3906H72.8941ZM83.9435 26.1166C83.1595 26.1166 82.4595 25.9626 81.8435 25.6546C81.2368 25.3466 80.7608 24.922 80.4155 24.3806C80.0795 23.83 79.9115 23.2 79.9115 22.4906C79.9115 21.7813 80.0842 21.156 80.4295 20.6146C80.7748 20.064 81.2508 19.6393 81.8575 19.3406C82.4735 19.042 83.1735 18.8926 83.9575 18.8926C84.7508 18.8926 85.4508 19.0466 86.0575 19.3546C86.6735 19.6533 87.1495 20.0733 87.4855 20.6146C87.8215 21.156 87.9895 21.7813 87.9895 22.4906C87.9895 23.2093 87.8168 23.844 87.4715 24.3946C87.1355 24.936 86.6595 25.3606 86.0435 25.6686C85.4368 25.9673 84.7368 26.1166 83.9435 26.1166ZM83.9715 24.0166C84.3542 24.0166 84.6668 23.8766 84.9095 23.5966C85.1615 23.3073 85.2875 22.9386 85.2875 22.4906C85.2875 22.0426 85.1615 21.6786 84.9095 21.3986C84.6668 21.1093 84.3542 20.9646 83.9715 20.9646C83.5888 20.9646 83.2715 21.1093 83.0195 21.3986C82.7768 21.6786 82.6555 22.0426 82.6555 22.4906C82.6555 22.9386 82.7768 23.3073 83.0195 23.5966C83.2715 23.8766 83.5888 24.0166 83.9715 24.0166ZM94.1628 26.1166C93.4255 26.1166 92.7675 25.986 92.1888 25.7246C91.6195 25.4633 91.1762 25.0946 90.8588 24.6186C90.5415 24.1426 90.3828 23.6013 90.3828 22.9946V18.9906H93.2668V22.9526C93.2668 23.2606 93.3508 23.5033 93.5188 23.6806C93.6962 23.8486 93.9155 23.9326 94.1768 23.9326C94.4288 23.9326 94.6342 23.8486 94.7928 23.6806C94.9608 23.5033 95.0448 23.2606 95.0448 22.9526V18.9906H97.8728V22.9946C97.8728 23.6106 97.7142 24.1566 97.3968 24.6326C97.0888 25.0993 96.6548 25.4633 96.0948 25.7246C95.5348 25.986 94.8908 26.1166 94.1628 26.1166ZM100.63 19.0886H103.444V20.5166C103.985 19.434 104.844 18.8926 106.02 18.8926C106.916 18.8926 107.616 19.2146 108.12 19.8586C108.633 20.4933 108.89 21.3753 108.89 22.5046V26.0046H105.95V22.2106C105.95 21.8093 105.861 21.5013 105.684 21.2866C105.516 21.072 105.278 20.9646 104.97 20.9646C104.746 20.9646 104.527 21.0393 104.312 21.1886C104.097 21.3286 103.92 21.534 103.78 21.8046C103.649 22.0753 103.584 22.3833 103.584 22.7286V26.0046H100.63V19.0886ZM114.707 26.1166C114.073 26.1166 113.494 25.9486 112.971 25.6126C112.458 25.2766 112.052 24.8333 111.753 24.2826C111.455 23.7226 111.305 23.13 111.305 22.5046C111.305 21.842 111.459 21.2353 111.767 20.6846C112.085 20.1246 112.505 19.686 113.027 19.3686C113.559 19.0513 114.124 18.8926 114.721 18.8926C115.263 18.8926 115.72 19.0046 116.093 19.2286C116.476 19.4526 116.784 19.812 117.017 20.3066V16.7786L119.971 16.3446V26.0046H117.017V24.7026C116.579 25.6453 115.809 26.1166 114.707 26.1166ZM115.631 23.9046C116.023 23.9046 116.35 23.7646 116.611 23.4846C116.882 23.2046 117.017 22.878 117.017 22.5046V22.4486C117.017 22.0846 116.877 21.772 116.597 21.5106C116.317 21.24 115.995 21.1046 115.631 21.1046C115.239 21.1046 114.908 21.2446 114.637 21.5246C114.376 21.7953 114.245 22.122 114.245 22.5046C114.245 22.8966 114.381 23.228 114.651 23.4986C114.931 23.7693 115.258 23.9046 115.631 23.9046Z" fill="white"/>
</g>
<defs>
<filter id="filter0_d" x="-3.05176e-05" y="0" width="169.004" height="48" filterUnits="userSpaceOnUse" color-interpolation-filters="sRGB">
<feFlood flood-opacity="0" result="BackgroundImageFix"/>
<feColorMatrix in="SourceAlpha" type="matrix" values="0 0 0 0 0 0 0 0 0 0 0 0 0 0 0 0 0 0 127 0" result="hardAlpha"/>
<feOffset dy="3"/>
<feGaussianBlur stdDeviation="2"/>
<feComposite in2="hardAlpha" operator="out"/>
<feColorMatrix type="matrix" values="0 0 0 0 0 0 0 0 0 0 0 0 0 0 0 0 0 0 0.25 0"/>
<feBlend mode="normal" in2="BackgroundImageFix" result="effect1_dropShadow"/>
<feBlend mode="normal" in="SourceGraphic" in2="effect1_dropShadow" result="shape"/>
</filter>
</defs>
</svg>
