<svg width="170" height="48" viewBox="0 0 170 48" fill="none" xmlns="http://www.w3.org/2000/svg">
<g filter="url(#filter0_d)">
<rect x="4.00348" y="1" width="161" height="40" rx="19.9895" fill="#C27129"/>
<path d="M4.00348 21L165.003 21.1138C164.744 6.25235 151.959 0.949974 145.616 1.00035C129.204 1.00035 41.1704 1.021 23.0035 1.021C9.00348 2 3.84569 13.711 4.00348 21Z" fill="white" fill-opacity="0.2"/>
<path d="M35.9325 16.3726H39.4045C40.8419 16.3726 41.9525 16.6526 42.7365 17.2126C43.5299 17.7726 43.9265 18.5566 43.9265 19.5646C43.9265 20.1993 43.7305 20.7546 43.3385 21.2306C42.9559 21.7066 42.4285 22.0753 41.7565 22.3366C41.0939 22.5886 40.3565 22.7146 39.5445 22.7146H38.9565V26.0046H35.9325V16.3726ZM39.5585 20.7686C40.0532 20.7686 40.4359 20.666 40.7065 20.4606C40.9772 20.2553 41.1125 19.9566 41.1125 19.5646C41.1125 19.1726 40.9772 18.8786 40.7065 18.6826C40.4452 18.4866 40.0625 18.3886 39.5585 18.3886H38.9565V20.7406C39.1432 20.7593 39.3439 20.7686 39.5585 20.7686ZM49.1853 26.1166C48.5786 26.1166 48.0093 25.958 47.4773 25.6406C46.9546 25.314 46.5346 24.8753 46.2173 24.3246C45.8999 23.7646 45.7413 23.144 45.7413 22.4626C45.7413 21.7906 45.8999 21.184 46.2173 20.6426C46.5346 20.092 46.9593 19.6626 47.4913 19.3546C48.0233 19.0466 48.5879 18.8926 49.1853 18.8926C49.6706 18.8926 50.1186 19.028 50.5293 19.2986C50.9493 19.5693 51.2666 19.9753 51.4813 20.5166V18.8926H54.4213V26.0046H51.4813V24.7026C51.0146 25.6453 50.2493 26.1166 49.1853 26.1166ZM50.0953 23.9046C50.4686 23.9046 50.7859 23.774 51.0473 23.5126C51.3179 23.242 51.4626 22.9246 51.4813 22.5606V22.4486C51.4626 22.0753 51.3133 21.758 51.0333 21.4966C50.7626 21.2353 50.4499 21.1046 50.0953 21.1046C49.7033 21.1046 49.3673 21.2446 49.0873 21.5246C48.8166 21.7953 48.6813 22.122 48.6813 22.5046C48.6813 22.8966 48.8213 23.228 49.1013 23.4986C49.3813 23.7693 49.7126 23.9046 50.0953 23.9046ZM60.9633 26.1166C60.226 26.1166 59.568 25.986 58.9893 25.7246C58.42 25.4633 57.9767 25.0946 57.6593 24.6186C57.342 24.1426 57.1833 23.6013 57.1833 22.9946V18.9906H60.0673V22.9526C60.0673 23.2606 60.1513 23.5033 60.3193 23.6806C60.4967 23.8486 60.716 23.9326 60.9773 23.9326C61.2293 23.9326 61.4347 23.8486 61.5933 23.6806C61.7613 23.5033 61.8453 23.2606 61.8453 22.9526V18.9906H64.6733V22.9946C64.6733 23.6106 64.5147 24.1566 64.1973 24.6326C63.8893 25.0993 63.4553 25.4633 62.8953 25.7246C62.3353 25.986 61.6913 26.1166 60.9633 26.1166ZM69.8523 26.1166C68.8723 26.1166 68.0137 25.972 67.2763 25.6826L67.5983 24.0166C68.2703 24.2593 68.9237 24.3806 69.5583 24.3806C70.025 24.3806 70.2583 24.25 70.2583 23.9886C70.2583 23.858 70.1883 23.7506 70.0483 23.6666C69.9177 23.5826 69.6657 23.508 69.2923 23.4426C68.5177 23.2933 67.9577 23.0413 67.6123 22.6866C67.2763 22.332 67.1083 21.828 67.1083 21.1746C67.1457 20.4373 67.4397 19.8726 67.9903 19.4806C68.541 19.0886 69.2923 18.8926 70.2443 18.8926C70.7297 18.8926 71.145 18.9253 71.4903 18.9906C71.845 19.0466 72.167 19.1446 72.4563 19.2846L72.1623 20.9506C71.8917 20.848 71.593 20.7686 71.2663 20.7126C70.949 20.6566 70.683 20.6286 70.4683 20.6286C70.151 20.6286 69.9317 20.6613 69.8103 20.7266C69.689 20.792 69.6283 20.8806 69.6283 20.9926C69.6283 21.198 69.8617 21.3426 70.3283 21.4266C71.1777 21.576 71.8123 21.8373 72.2323 22.2106C72.6523 22.584 72.8623 23.0926 72.8623 23.7366C72.8623 24.474 72.601 25.0573 72.0783 25.4866C71.565 25.9066 70.823 26.1166 69.8523 26.1166ZM78.9231 26.1166C78.1485 26.1166 77.4578 25.9626 76.8511 25.6546C76.2538 25.3373 75.7871 24.908 75.4511 24.3666C75.1151 23.816 74.9471 23.1953 74.9471 22.5046C74.9471 21.7953 75.1198 21.1653 75.4651 20.6146C75.8105 20.064 76.2771 19.6393 76.8651 19.3406C77.4531 19.042 78.1065 18.8926 78.8251 18.8926C79.5158 18.8926 80.1038 19.0466 80.5891 19.3546C81.0838 19.6533 81.4525 20.064 81.6951 20.5866C81.9378 21.1 82.0591 21.6786 82.0591 22.3226C82.0591 22.4906 82.0498 22.612 82.0311 22.6866L77.8311 23.2326C77.9431 23.5593 78.1251 23.7973 78.3771 23.9466C78.6291 24.0866 78.9605 24.1566 79.3711 24.1566C80.0058 24.1566 80.6918 23.9933 81.4291 23.6666L81.7791 25.5426C80.9111 25.9253 79.9591 26.1166 78.9231 26.1166ZM79.8891 21.4686C79.7398 20.8806 79.3851 20.5866 78.8251 20.5866C78.4891 20.5866 78.2231 20.7126 78.0271 20.9646C77.8311 21.2166 77.7285 21.5433 77.7191 21.9446L79.8891 21.4686ZM90.1958 18.5006H88.1938V16.3726H95.4598V18.5006H93.4578V26.0046H90.1958V18.5006ZM100.432 26.1166C99.6478 26.1166 99.0365 25.8646 98.5978 25.3606C98.1592 24.8566 97.9398 24.1706 97.9398 23.3026V18.9906H100.908V23.1766C100.908 23.3913 100.964 23.5593 101.076 23.6806C101.197 23.7926 101.351 23.8486 101.538 23.8486C101.725 23.8486 101.916 23.7926 102.112 23.6806L102.266 25.6266C102.061 25.7853 101.79 25.9066 101.454 25.9906C101.127 26.0746 100.787 26.1166 100.432 26.1166ZM99.4238 17.9406C98.9852 17.9406 98.6118 17.8053 98.3038 17.5346C98.0052 17.2546 97.8558 16.914 97.8558 16.5126C97.8558 16.1113 98.0145 15.7753 98.3318 15.5046C98.6492 15.234 99.0132 15.0986 99.4238 15.0986C99.8532 15.0986 100.222 15.2386 100.53 15.5186C100.847 15.7986 101.006 16.13 101.006 16.5126C101.006 16.9233 100.847 17.264 100.53 17.5346C100.213 17.8053 99.8438 17.9406 99.4238 17.9406ZM104.481 19.0886H107.295V20.5166C107.612 19.966 107.972 19.56 108.373 19.2986C108.784 19.028 109.269 18.8926 109.829 18.8926C110.38 18.8926 110.856 19.0326 111.257 19.3126C111.668 19.5833 111.976 19.952 112.181 20.4186C112.778 19.4013 113.646 18.8926 114.785 18.8926C115.326 18.8926 115.798 19.0373 116.199 19.3266C116.61 19.616 116.927 20.036 117.151 20.5866C117.375 21.128 117.487 21.7673 117.487 22.5046V26.0046H114.533V22.5046C114.533 22.0286 114.449 21.6693 114.281 21.4266C114.122 21.184 113.898 21.0626 113.609 21.0626C113.292 21.0626 113.016 21.198 112.783 21.4686C112.559 21.7393 112.447 22.066 112.447 22.4486V26.0046H109.521V22.5046C109.521 22.0286 109.437 21.6693 109.269 21.4266C109.11 21.184 108.882 21.0626 108.583 21.0626C108.266 21.0626 107.995 21.198 107.771 21.4686C107.547 21.7393 107.435 22.066 107.435 22.4486V26.0046H104.481V19.0886ZM123.876 26.1166C123.102 26.1166 122.411 25.9626 121.804 25.6546C121.207 25.3373 120.74 24.908 120.404 24.3666C120.068 23.816 119.9 23.1953 119.9 22.5046C119.9 21.7953 120.073 21.1653 120.418 20.6146C120.764 20.064 121.23 19.6393 121.818 19.3406C122.406 19.042 123.06 18.8926 123.778 18.8926C124.469 18.8926 125.057 19.0466 125.542 19.3546C126.037 19.6533 126.406 20.064 126.648 20.5866C126.891 21.1 127.012 21.6786 127.012 22.3226C127.012 22.4906 127.003 22.612 126.984 22.6866L122.784 23.2326C122.896 23.5593 123.078 23.7973 123.33 23.9466C123.582 24.0866 123.914 24.1566 124.324 24.1566C124.959 24.1566 125.645 23.9933 126.382 23.6666L126.732 25.5426C125.864 25.9253 124.912 26.1166 123.876 26.1166ZM124.842 21.4686C124.693 20.8806 124.338 20.5866 123.778 20.5866C123.442 20.5866 123.176 20.7126 122.98 20.9646C122.784 21.2166 122.682 21.5433 122.672 21.9446L124.842 21.4686ZM129.43 19.0886H132.384V20.5166C132.598 19.966 132.888 19.56 133.252 19.2986C133.625 19.028 134.059 18.8926 134.554 18.8926L134.96 21.1746C134.073 21.1746 133.42 21.2726 133 21.4686C132.589 21.6553 132.384 21.954 132.384 22.3646V26.0046H129.43V19.0886Z" fill="white"/>
</g>
<defs>
<filter id="filter0_d" x="0" y="0" width="169.003" height="48" filterUnits="userSpaceOnUse" color-interpolation-filters="sRGB">
<feFlood flood-opacity="0" result="BackgroundImageFix"/>
<feColorMatrix in="SourceAlpha" type="matrix" values="0 0 0 0 0 0 0 0 0 0 0 0 0 0 0 0 0 0 127 0" result="hardAlpha"/>
<feOffset dy="3"/>
<feGaussianBlur stdDeviation="2"/>
<feComposite in2="hardAlpha" operator="out"/>
<feColorMatrix type="matrix" values="0 0 0 0 0 0 0 0 0 0 0 0 0 0 0 0 0 0 0.25 0"/>
<feBlend mode="normal" in2="BackgroundImageFix" result="effect1_dropShadow"/>
<feBlend mode="normal" in="SourceGraphic" in2="effect1_dropShadow" result="shape"/>
</filter>
</defs>
</svg>
