<svg width="577" height="411" viewBox="0 0 577 411" fill="none" xmlns="http://www.w3.org/2000/svg">
<g filter="url(#filter0_d)">
<path d="M21.0253 34.4087L26.6553 368.639L554.355 377.149L556.675 36.0387L21.0253 34.4087Z" fill="#FFCFCF"/>
<path d="M124.825 89.7789C124.341 90.3042 123.698 90.6556 122.995 90.7789C123.04 90.3929 123.166 90.0208 123.364 89.6865C123.562 89.3523 123.828 89.0635 124.145 88.8389C124.314 89.1903 124.544 89.5087 124.825 89.7789Z" fill="#A90516"/>
<g filter="url(#filter1_d)">
<path d="M546.676 37.9919V97.2019C546.676 97.2019 540.506 95.4119 539.786 93.7919C539.067 92.1719 539.216 89.6619 531.206 88.5919C524.286 85.1719 524.206 83.1319 524.206 83.1319C524.206 83.1319 517.766 87.3319 518.766 90.7019C515.687 90.2019 515.997 89.2219 516.047 89.0919C515.817 89.2619 512.377 92.0919 516.047 94.6619C515.515 95.0776 514.891 95.3591 514.228 95.4827C513.565 95.6063 512.882 95.5683 512.236 95.3719V98.2419C512.236 98.2419 505.596 93.7519 500.946 92.6819C496.296 91.6119 489.587 90.8819 489.657 89.0819C484.986 92.1919 489.266 94.4619 489.657 94.6519L483.766 93.4319C483.766 93.4319 479.377 96.4919 482.657 98.2819C473.896 96.4919 477.426 94.6919 475.657 92.7219C472.467 93.8919 470.837 94.6119 470.657 94.7219C470.896 94.5019 474.347 91.4119 470.657 89.1519C465.717 92.3919 461.506 95.4219 464.446 97.2319C460.786 97.2319 460.626 96.2319 460.626 96.2319C458.783 97.505 456.615 98.2265 454.376 98.3119C456.376 95.6219 454.376 91.3119 454.376 91.3119L453.126 93.4619C453.126 93.4619 451.476 89.5119 449.286 88.4619C442.876 90.5619 442.146 94.8119 443.706 95.9819L439.437 93.9819C439.437 93.9819 436.137 96.9819 439.437 98.2919C432.857 97.2119 433.437 94.7119 433.437 94.7119C431.267 92.0589 428.172 90.326 424.777 89.8619C426.837 91.2919 428.777 95.0619 424.777 95.6019C425.039 94.6633 425.039 93.6706 424.777 92.7319C424.777 92.7319 421.347 97.5719 416.426 98.2919C416.766 97.128 416.951 95.9243 416.976 94.7119L412.277 96.2119L406.096 93.4419C406.096 93.4419 406.037 97.2219 407.617 98.1119C405.283 97.3095 403.082 96.1636 401.087 94.7119L392.766 89.8519C392.766 89.8519 395.506 92.7319 393.316 94.7019C391.446 96.3819 389.827 94.1319 389.407 93.4419C389.717 94.0319 390.266 95.8519 386.187 97.2019C383.968 97.043 381.862 96.1654 380.187 94.7019C380.187 94.7019 377.986 95.7019 378.546 96.4719C375.687 95.7119 373.256 92.3519 373.386 91.3719C369.786 95.4319 369.787 99.8319 364.907 100.372C365.396 97.1719 362.657 97.3719 362.117 95.9219C361.284 97.2184 360.068 98.2219 358.636 98.7919C358.636 98.7919 355.176 94.7919 358.636 92.1519L353.356 96.0919C353.356 95.8819 354.186 92.9919 347.856 91.6119C348.406 93.6119 346.766 98.0719 342.386 98.4319C343.486 96.4319 342.386 94.1219 339.096 93.7619C336.906 95.0219 334.167 96.8219 336.907 97.8919C331.426 97.1719 330.907 93.4019 333.617 91.2519C327.617 95.9219 326.497 98.0719 323.206 98.2519C324.856 96.1019 324.296 93.0419 321.016 92.3319C316.226 94.9519 313.016 99.9519 317.117 101.382C311.617 99.7319 309.516 96.3819 309.516 94.6719C307.888 95.1946 306.384 96.0454 305.096 97.1719C303.476 95.9219 301.226 93.2419 305.096 89.8219C296.906 94.6619 298.557 97.7119 295.277 98.8219C294.167 97.2019 293.076 93.8219 289.796 92.1819L290.867 95.0119C290.657 94.6319 288.796 91.5419 282.126 89.8519C281.771 90.1708 281.498 90.5697 281.328 91.0156C281.158 91.4615 281.097 91.9415 281.15 92.4158C281.202 92.89 281.368 93.3448 281.631 93.7424C281.895 94.14 282.25 94.469 282.666 94.7019C279.954 94.4441 277.333 93.5831 274.997 92.1819C274.997 92.1819 272.806 96.4919 275.546 98.4619C265.136 98.2819 267.016 93.4619 267.016 93.4619L260.196 88.0819C259.106 90.7719 258.016 94.1919 255.266 94.7319C252.516 95.2719 251.997 97.2319 254.176 98.6719C252.329 98.5891 250.551 97.943 249.082 96.8204C247.613 95.6978 246.522 94.1525 245.956 92.3919C242.777 94.8219 237.126 96.3919 236.766 96.4919C239.376 93.8119 239.596 90.0519 236.766 88.9719C231.186 90.7719 230.627 91.4919 231.187 92.5719C227.887 91.6719 227.886 89.8819 227.886 89.8819C227.886 89.8819 222.887 92.2319 224.557 94.7319C222.307 94.1054 220.123 93.2614 218.036 92.2119C216.386 96.3419 214.736 97.9519 211.456 99.0319C210.346 98.3119 210.906 97.2319 209.256 95.6219C208.316 94.0719 208.606 91.0619 209.726 90.1519C204.296 92.5019 203.807 94.0019 203.807 94.0019C202.865 93.8331 201.952 93.53 201.096 93.1019C201.166 94.3319 200.656 95.9419 197.706 96.2319C198.307 95.0819 194.476 94.7319 194.476 94.7319C194.476 94.7319 189.536 97.4119 191.736 98.4919C190.75 98.4185 189.792 98.122 188.937 97.6249C188.081 97.1278 187.349 96.4429 186.796 95.6219C186.796 95.6219 181.326 100.202 178.036 100.432C178.586 98.6719 180.776 94.7219 176.386 93.2819C174.654 94.1177 172.776 94.6101 170.856 94.7319C170.856 94.7319 176.286 92.2119 170.856 91.1319C165.976 91.3119 164.346 96.1319 164.346 96.1319L160.496 94.7019C160.496 94.7019 159.396 95.5719 153.936 97.2019C151.936 98.2019 152.566 98.7719 153.367 99.0819C151.617 98.6319 148.456 97.6219 148.456 96.4719C148.456 94.8719 152.826 90.5719 146.806 89.8519C145.431 92.0453 143.367 93.7196 140.936 94.6119C140.426 93.4719 137.176 92.1619 136.426 92.0819C135.676 92.0019 131.696 94.2119 134.196 96.0819C129.706 94.9319 129.706 94.3619 130.446 93.5419C128.906 93.805 127.498 94.5759 126.446 95.7319C126.685 94.7673 126.736 93.7658 126.596 92.7819C126.545 92.3967 126.416 92.026 126.216 91.6925C126.017 91.3589 125.752 91.0695 125.436 90.8419C125.268 91.1934 125.038 91.5118 124.756 91.7819C124.475 91.5118 124.245 91.1934 124.076 90.8419C123.759 91.0666 123.493 91.3554 123.295 91.6896C123.097 92.0238 122.971 92.396 122.926 92.7819C122.782 93.7656 122.833 94.768 123.076 95.7319C122.025 94.5759 120.617 93.805 119.076 93.5419C119.806 94.3619 119.806 94.9319 115.316 96.0819C117.816 94.2019 113.816 91.9919 113.086 92.0819C112.356 92.1719 109.086 93.4719 108.586 94.6119C106.153 93.7215 104.084 92.047 102.706 89.8519C96.7065 90.5719 101.066 94.8519 101.066 96.4719C101.066 97.6219 97.8965 98.6319 96.1465 99.0819C96.9465 98.7719 97.5865 98.1819 95.5765 97.2019C90.1165 95.5719 89.0265 94.7019 89.0265 94.7019L85.1765 96.1319C85.1765 96.1319 83.5365 91.2819 78.6665 91.1319C73.2265 92.2119 78.6665 94.7319 78.6665 94.7319C76.7466 94.6113 74.8685 94.1189 73.1365 93.2819C68.7465 94.7219 70.9265 98.6719 71.4865 100.432C68.1865 100.202 62.7265 95.6219 62.7265 95.6219C62.1661 96.449 61.4245 97.1373 60.5581 97.6347C59.6917 98.132 58.7233 98.4252 57.7265 98.4919C59.9365 97.4119 54.9865 94.7319 54.9865 94.7319C54.9865 94.7319 51.1565 95.0819 51.7565 96.2319C48.8065 95.9419 48.2965 94.3319 48.3665 93.1019C47.5109 93.53 46.5982 93.8331 45.6565 94.0019C45.6565 94.0019 45.1665 92.5019 39.7365 90.1519C40.8565 91.0619 41.1565 94.0719 40.2065 95.6219C38.5565 97.2319 39.1165 98.3119 38.0065 99.0319C34.7265 97.9519 33.0765 96.3419 31.4265 92.2119C29.3742 93.2446 27.2277 94.0784 25.0165 94.7019C26.7165 92.2019 21.6865 89.8519 21.6865 89.8519C21.6501 90.2181 21.5076 90.5656 21.2765 90.8519L18.4165 37.9819L546.676 37.9919Z" fill="#E31414"/>
</g>
<path d="M126.685 90.7789C125.977 90.6599 125.33 90.3079 124.845 89.7789C125.126 89.5087 125.356 89.1903 125.525 88.8389C125.84 89.0665 126.105 89.3559 126.305 89.6894C126.504 90.023 126.634 90.3937 126.685 90.7789Z" fill="#A90516"/>
<path d="M26.7251 50.6988L542.855 49.4188L544.975 38.8688L445.515 38.0088L23.8651 39.5888L26.7251 50.6988Z" fill="#101011" fill-opacity="0.54"/>
<path d="M15.6049 358.199L16.0749 354.269L17.3749 348.759L18.0549 351.339L15.6049 358.199Z" fill="#491F07"/>
<path d="M33.665 388.149L34.255 394.239L34.815 394.979V386.359L33.015 386.509L33.665 388.149Z" fill="#491F07"/>
<path d="M14.4252 2.92871L13.6552 3.56871L13.4052 4.54871L15.0652 6.16871L15.6652 11.0087L16.4352 5.41871L14.4252 2.92871Z" fill="#491F07"/>
<path d="M22.0751 8.87891L21.4151 9.5289L21.6351 10.2889L20.8251 11.1589L22.9951 13.8489L22.8251 10.3689L22.0751 8.87891Z" fill="#491F07"/>
<path d="M20.8351 390.459L21.3351 389.249L21.0851 381.389L19.5751 379.519L20.8351 390.459Z" fill="#491F07"/>
<path d="M20.3251 394.039L21.4951 392.669L25.2651 391.579L24.0751 393.809L20.3251 394.039Z" fill="#491F07"/>
<path d="M12.1049 62.1088L12.5849 61.2188L14.9249 59.7388L15.2549 60.7888L12.1049 62.1088Z" fill="#491F07"/>
<path d="M33.8551 232.119L32.3551 232.189L26.8151 247.949L26.5751 254.679L33.8551 232.119Z" fill="#491F07"/>
<path d="M40.5349 402.029L38.8849 401.729L37.8749 398.809L36.3449 393.529L34.8149 394.979L33.9549 387.219L32.9349 390.459L31.2349 388.249L28.3349 398.299L25.9549 395.579L24.9949 399.239L21.5449 398.619L20.3249 394.039L23.0449 393.019L19.9749 380.749L20.8349 390.459L18.2749 392.509L17.4749 397.889L16.0749 397.639L15.6049 358.199L16.9349 351.789L15.4649 345.789L14.5949 272.719L12.1049 62.1086L14.0949 60.7886L12.0749 59.6586L12.0149 54.8386L11.8949 44.7286L11.5649 16.3586L11.3749 0.558594L12.3349 1.30859L13.0249 4.86859L14.7249 6.37859L15.6649 11.0086V5.80859L14.0949 4.19859L14.4249 2.92859L20.3349 7.52859L20.6849 9.49859L19.8349 10.6386L22.2449 13.0886L22.9949 13.8486L22.4949 13.0186L21.4149 11.1986L22.3849 10.0686L22.0749 8.87859L25.1749 11.2886L25.2149 12.3186L26.5049 45.1986L26.8149 53.0286L29.2949 116.049L27.9349 129.329L30.3049 141.779L33.5349 224.009L26.7249 252.609L33.8549 232.119L34.3249 244.049L40.5349 402.029Z" fill="url(#paint0_linear)"/>
<path d="M40.5351 402.029L38.8851 401.729L37.8851 398.809L36.3551 393.529L34.8251 394.979L33.9651 387.219L32.9651 390.459L31.2651 388.249L28.3651 398.299L25.9851 395.579L24.9851 399.239L21.5351 398.619L20.3151 394.039L23.0351 393.039L20.2251 381.749L19.9751 380.749L20.0651 381.749L20.8351 390.459L18.2751 392.509L17.4751 397.889L16.0751 397.639L15.8851 381.639L15.8251 373.989L15.6351 358.199L16.9651 351.789L15.4951 345.789L14.5951 272.689C21.8433 263.623 28.4366 254.052 34.3251 244.049L39.4251 373.689L39.7451 382.069L40.5351 402.029Z" fill="#101011" fill-opacity="0.19"/>
<path d="M16.0751 17.8589C16.0751 17.8589 19.5051 25.7589 19.7751 31.3889C20.6951 22.6889 16.0751 17.8589 16.0751 17.8589Z" fill="#101011" fill-opacity="0.19"/>
<path d="M39.7453 382.048L20.2253 381.748H20.0653L15.8853 381.688L15.7953 373.988L39.4253 373.668L39.7453 382.048Z" fill="#101011" fill-opacity="0.19"/>
<path d="M26.7249 50.6985L11.9549 49.7885L11.8949 44.7285L26.5049 45.1985L26.7249 50.6985Z" fill="#101011" fill-opacity="0.54"/>
<path d="M568.585 29.8888L568.045 29.4788L566.465 28.8188L565.665 29.3588L568.585 29.8888Z" fill="#491F07"/>
<path d="M568.045 37.4585L567.475 36.9785L566.515 37.2585L566.095 36.4585L565.385 36.5185L563.975 38.3585L564.145 39.5585L568.045 37.4585Z" fill="#491F07"/>
<path d="M8.28503 42.1685L9.46503 42.3785L10.565 43.3985L9.58503 45.4085L8.28503 42.1685Z" fill="#491F07"/>
<path d="M5.20496 28.8287L6.81496 28.5387L13.085 29.9887L7.92496 27.5887L9.14496 27.1987L22.995 28.5887L22.135 31.3887L12.865 32.8787L5.20496 28.8287Z" fill="#491F07"/>
<path d="M81.3749 24.5986L88.9749 25.7686L110.045 29.9986L106.185 33.4086L81.3749 24.5986Z" fill="#491F07"/>
<path d="M33.8253 350.369C33.8253 350.369 27.5753 382.119 26.5453 384.989C31.7553 382.319 33.8253 350.369 33.8253 350.369Z" fill="#101011" fill-opacity="0.19"/>
<path d="M543.005 56.9788L543.345 56.5588L546.205 55.9688L546.935 56.8088L543.005 56.9788Z" fill="#491F07"/>
<path d="M548.975 353.279V349.989L550.635 341.559H552.725L548.975 353.279Z" fill="#491F07"/>
<path d="M544.245 118.549L544.705 118.219L550.825 125.259L548.805 126.299L544.245 118.549Z" fill="#491F07"/>
<path d="M565.235 102.759L563.975 102.269L556.245 104.599L555.775 105.649L557.235 106.629L565.235 102.759Z" fill="#491F07"/>
<path d="M569.245 386.629L567.475 378.999L565.825 383.379L563.945 377.629L556.945 391.029H553.945L551.645 388.299V391.029H549.745L548.985 353.279L550.985 343.279C550.985 343.279 549.985 338.489 548.545 333.199L547.405 276.389L544.225 118.569L549.555 125.729L544.185 116.209L542.985 56.9985L545.855 56.3085L542.965 55.9485L542.835 49.4385L542.645 40.0885L542.355 25.4585L542.155 15.5485L544.505 15.3485L546.415 23.6385L546.985 26.1285V18.5585L549.555 19.7385V16.3685L551.825 14.6885L560.245 13.9885L560.845 17.1185L562.155 23.9985L563.095 16.0985L563.375 13.7285H563.975V15.7285L564.325 40.3585L564.445 49.2185L565.175 100.609L555.825 105.689L565.285 102.799L566.375 180.269L568.625 339.559L567.945 349.559L568.825 353.469L569.245 386.629Z" fill="url(#paint1_linear)"/>
<path d="M569.245 386.629L567.475 378.999L565.825 383.379L563.945 377.629L560.025 385.079L556.895 391.079H553.895L551.595 388.349V391.079H549.695L549.545 383.559L549.215 367.119L548.935 353.329L550.935 343.329C550.935 343.329 549.935 338.539 548.495 333.249L547.355 276.439C551.205 265.199 554.355 255.439 556.545 249.349C561.225 236.119 564.405 204.589 566.255 180.349L568.505 339.639L567.825 349.639L568.705 353.549L568.915 368.209L569.245 386.629Z" fill="#101011" fill-opacity="0.19"/>
<path d="M564.475 49.2085C556.905 49.2085 548.165 49.3085 542.855 49.4185L542.665 40.0685L547.745 37.2785C553.434 37.1414 559.09 38.1868 564.355 40.3485L564.475 49.2085Z" fill="#101011" fill-opacity="0.54"/>
<path d="M569.245 386.629L567.475 378.999L565.855 383.379L563.975 377.629L560.055 385.079L556.925 391.029H553.935L551.635 388.299V391.029H549.735L549.585 383.509L549.255 367.069L568.985 368.139L569.245 386.629Z" fill="#101011" fill-opacity="0.19"/>
<path d="M567.615 43.4086L566.945 42.4986L563.975 40.7586L562.005 40.0986L562.405 41.7586L567.615 43.4086Z" fill="#491F07"/>
<path opacity="0.11" d="M544.525 15.3286L546.435 23.6186L542.375 25.4386L542.175 15.5286L544.525 15.3286Z" fill="white"/>
<path opacity="0.11" d="M560.245 14.0186L560.845 17.1486L547.005 23.3586V18.5386L549.575 19.7186V16.3486L551.825 14.7186L560.245 14.0186Z" fill="white"/>
<path opacity="0.11" d="M564.005 15.7185L563.095 16.1285L563.375 13.7585L563.975 13.7085L564.005 15.7185Z" fill="white"/>
<path d="M550.825 60.7886C550.825 60.7886 547.275 77.3486 548.715 87.4586C550.165 72.6086 550.825 60.7886 550.825 60.7886Z" fill="#101011" fill-opacity="0.19"/>
<path d="M559.445 122.259C559.445 122.259 562.625 165.629 555.775 177.179C558.415 159.859 559.445 122.259 559.445 122.259Z" fill="#101011" fill-opacity="0.19"/>
<path d="M570.375 370.819L568.785 369.289L567.475 369.059L565.215 372.039L561.505 370.329L555.715 376.389L556.915 378.459L570.375 370.819Z" fill="#491F07"/>
<path d="M550.825 160.509C550.825 160.509 552.725 215.659 555.825 219.709C550.095 205.689 548.435 169.859 550.825 160.509Z" fill="#101011" fill-opacity="0.19"/>
<path d="M553.925 52.0688L558.335 70.9188C558.335 70.9188 557.825 56.8788 553.925 52.0688Z" fill="#101011" fill-opacity="0.19"/>
<path d="M553.925 271.469C553.925 271.469 560.755 318.359 560.185 330.769C564.655 314.879 556.015 279.609 553.925 271.469Z" fill="#101011" fill-opacity="0.19"/>
<path d="M568.625 29.2586H566.725L568.585 29.8886V30.1286L568.285 34.3986L566.705 35.3986L565.605 34.5786L565.115 36.5786L564.495 39.1286L566.075 36.5286V36.4586L566.145 36.5186L567.415 37.6886L568.025 37.4586L567.705 41.9586L562.585 40.7386L567.585 43.4086L567.445 45.4086L281.825 46.0986L255.045 46.1686C240.27 43.7073 225.187 43.7445 210.425 46.2786L7.92497 46.7886L7.39497 43.3086L8.28497 42.1686L10.005 43.9286L13.205 40.9286L15.655 38.6886L10.375 40.7786L9.82497 38.6886L6.98497 40.5786L5.21497 28.8686L11.825 30.3786L7.92497 27.5886L18.825 28.9786L7.41497 25.6886L4.59497 24.8686L4.47498 24.0586L81.375 24.6286L88.975 26.3386L106.895 30.3386L96.575 26.3386L92.175 24.6486L419.615 27.0586L441.345 29.0586L452.425 30.0586L460.795 29.1786L477.485 27.4286L568.705 28.0986L568.625 29.2586Z" fill="url(#paint2_linear)"/>
<path d="M567.725 41.9586L562.605 40.7386L567.605 43.4086L567.465 45.4086L281.825 46.0986C382.625 43.1586 518.945 38.9786 565.115 36.5786H566.115H566.225L567.495 37.7486L568.105 37.5186L567.725 41.9586Z" fill="#101011" fill-opacity="0.19"/>
<path d="M281.825 46.0987L255.045 46.1687C240.27 43.7074 225.187 43.7446 210.425 46.2787L7.9249 46.7887L7.3949 43.3087L8.2849 42.1687L10.0049 43.9287L13.2049 40.9287C73.1749 41.5987 256.005 43.7587 281.825 46.0987Z" fill="#101011" fill-opacity="0.19"/>
<path opacity="0.26" d="M81.375 24.5988L88.975 26.3088L7.41498 25.6588L4.59498 24.8388L4.47498 24.0288L81.375 24.5988Z" fill="white"/>
<path opacity="0.26" d="M419.615 27.0887L441.345 29.1187L96.5752 26.3687L92.1752 24.6787L419.615 27.0887Z" fill="white"/>
<path opacity="0.26" d="M568.625 29.2586H566.725L568.585 29.8886L568.565 30.1286L460.795 29.2686L477.485 27.5186L568.705 28.1886L568.625 29.2586Z" fill="white"/>
<path d="M550.825 34.0589C550.825 34.0589 533.735 32.6289 524.305 34.0589C534.685 34.7689 542.985 35.1289 550.825 34.0589Z" fill="#101011" fill-opacity="0.19"/>
<path d="M447.485 38.0088C447.485 38.0088 466.095 42.4088 469.195 42.5288C460.365 43.3588 447.965 38.9788 447.485 38.0088Z" fill="#101011" fill-opacity="0.19"/>
<path d="M494.825 38.2285C494.825 38.2285 518.685 41.3985 523.695 41.3085C507.245 42.6885 497.465 38.5885 494.825 38.2285Z" fill="#101011" fill-opacity="0.19"/>
<path d="M473.085 35.4085C473.085 35.4085 480.795 33.1485 485.725 33.4085C484.825 34.5585 475.445 35.4085 473.085 35.4085Z" fill="#101011" fill-opacity="0.19"/>
<path d="M22.995 33.4087C22.995 33.4087 59.455 39.6587 79.575 39.1787C67.515 40.3887 27.165 37.8387 22.995 33.4087Z" fill="#101011" fill-opacity="0.19"/>
<path d="M75.745 32.8789C75.745 32.8789 117.295 31.0489 144.175 36.4389C119.285 35.7889 75.745 32.8789 75.745 32.8789Z" fill="#101011" fill-opacity="0.19"/>
<path d="M138.175 44.5886C138.175 44.5886 168.635 42.7186 173.475 41.3086C163.825 43.7686 144.965 45.6886 138.175 44.5886Z" fill="#101011" fill-opacity="0.19"/>
<path d="M194.825 33.4186C194.825 33.4186 213.405 30.7186 224.265 32.5786C214.755 34.0886 198.275 34.8486 194.825 33.4186Z" fill="#101011" fill-opacity="0.19"/>
<path d="M244.745 36.4388C244.745 36.4388 289.875 28.1888 320.275 31.3888C295.725 35.1888 244.745 36.4388 244.745 36.4388Z" fill="#101011" fill-opacity="0.19"/>
<path d="M299.545 40.7388C299.545 40.7388 359.065 40.0888 361.385 37.2588C358.675 41.7588 306.825 43.1888 299.545 40.7388Z" fill="#101011" fill-opacity="0.19"/>
<path d="M358.675 32.5786C358.675 32.5786 418.155 33.1586 427.425 38.2286C420.825 39.4386 361.385 33.0586 358.675 32.5786Z" fill="#101011" fill-opacity="0.19"/>
<path opacity="0.26" d="M19.8251 10.6889L22.2351 13.1389C18.2351 14.2389 14.2351 15.5189 11.5551 16.4089L11.3651 0.608887L12.3651 1.35889L13.0551 4.91888L14.7551 6.42889L15.6951 11.0589V5.85889L14.1251 4.24889L14.4551 2.97888L20.3651 7.57889L20.7151 9.57889L19.8251 10.6889Z" fill="white"/>
<path opacity="0.26" d="M25.2149 12.3189C24.3249 12.5289 23.4049 12.7689 22.4949 13.0189L21.4149 11.1989L22.4149 10.0689L22.1049 8.87891L25.2049 11.2889L25.2149 12.3189Z" fill="white"/>
<path d="M17.9852 55.4287C17.9852 55.4287 19.9252 90.4287 18.6252 94.4287C21.3852 78.9787 21.7052 59.3587 17.9852 55.4287Z" fill="#101011" fill-opacity="0.19"/>
<path d="M24.285 93.6885C24.285 93.6885 23.145 115.778 22.995 119.688C23.705 116.908 25.595 98.3085 24.285 93.6885Z" fill="#101011" fill-opacity="0.19"/>
<path d="M17.8252 125.208C17.8252 125.208 20.1952 153.828 23.8252 158.488C16.8952 150.058 17.8252 125.208 17.8252 125.208Z" fill="#101011" fill-opacity="0.19"/>
<path d="M26.725 151.168C27.0044 156.415 27.0044 161.672 26.725 166.918C28.875 165.808 26.825 153.828 26.725 151.168Z" fill="#101011" fill-opacity="0.19"/>
<path d="M17.7349 170.239C17.7349 170.239 18.7349 197.309 19.8949 202.189C16.2249 197.749 17.9149 172.019 17.7349 170.239Z" fill="#101011" fill-opacity="0.19"/>
<path d="M25.955 195.139L29.315 227.689C30.425 222.149 29.025 198.739 25.955 195.139Z" fill="#101011" fill-opacity="0.19"/>
<path d="M22.9953 218.599C22.9953 218.599 18.4653 258.369 19.8953 262.889C17.5553 263.189 19.8253 219.939 22.9953 218.599Z" fill="#101011" fill-opacity="0.19"/>
<path d="M29.6951 269.589C29.6951 269.589 28.6951 299.349 31.3151 312.659C31.9751 303.789 31.6251 272.879 29.6951 269.589Z" fill="#101011" fill-opacity="0.19"/>
<path d="M19.8949 293.139C19.8949 293.139 35.0849 325.969 36.1949 336.619C34.4149 332.179 19.3449 295.139 19.8949 293.139Z" fill="#101011" fill-opacity="0.19"/>
<path d="M20.955 320.688C20.955 320.688 18.885 343.938 22.955 353.478C23.545 352.368 20.955 320.688 20.955 320.688Z" fill="#101011" fill-opacity="0.19"/>
<path d="M565.085 379.958L563.855 380.079L561.035 382.109L561.695 383.889L565.085 379.958Z" fill="#491F07"/>
<path d="M561.515 369.789L556.425 377.149L561.725 371.249L565.895 373.249L568.555 369.789L570.375 370.819L567.155 378.469L565.785 377.039L563.455 379.329L562.865 379.909L562.655 379.319L561.515 376.189L561.715 379.319L561.945 382.829L565.085 379.959L565.875 381.499L563.895 386.189L436.745 383.879L420.075 379.519L431.645 383.789L131.145 378.339L139.235 377.019L163.885 372.989L114.985 376.889L103.145 377.829L23.4849 376.389L12.4949 376.189L12.3049 373.139L15.3749 374.239L17.1849 371.529L23.8449 374.239L17.1549 368.999L15.6049 370.749L12.0049 368.279L11.8949 366.499L19.1549 364.199L11.8349 365.509L11.6949 363.139L12.2149 362.159L13.4549 359.799L18.0549 361.689L16.1449 359.489L11.3749 357.899L446.535 364.329L465.175 367.599L480.315 364.829L572.325 366.189L571.155 368.959L568.555 368.109L566.645 369.619L565.195 370.759L561.515 369.789Z" fill="url(#paint3_linear)"/>
<path d="M23.4852 376.389L114.985 376.889L103.145 377.829L23.4852 376.389Z" fill="#101011" fill-opacity="0.19"/>
<path d="M565.875 381.499L563.895 386.189L436.745 383.879L420.075 379.519L431.645 383.789L131.145 378.339L139.235 377.019L561.715 379.319L561.945 382.829L565.085 379.959L565.875 381.499Z" fill="#101011" fill-opacity="0.11"/>
<path opacity="0.14" d="M572.325 366.189L571.155 368.959L568.555 368.109L566.645 369.619L12.2149 362.159L13.4549 359.799L18.0549 361.689L16.1449 359.489L11.3749 357.899L446.535 364.329L465.175 367.599L480.315 364.829L572.325 366.189Z" fill="white"/>
<path d="M21.475 366.188C21.475 366.188 69.885 368.818 93.075 366.188C60.935 373.198 23.825 368.178 21.475 366.188Z" fill="#101011" fill-opacity="0.19"/>
<path d="M120.075 366.188C120.075 366.188 177.435 362.188 180.335 362.188C160.055 366.548 120.075 366.188 120.075 366.188Z" fill="#101011" fill-opacity="0.19"/>
<path d="M226.395 372.988C226.395 372.988 289.255 371.408 297.075 374.658C282.305 374.948 226.395 372.988 226.395 372.988Z" fill="#101011" fill-opacity="0.19"/>
<path d="M553.335 39.6186C553.653 39.8886 553.987 40.139 554.335 40.3686C554.925 40.7686 556.335 41.5086 557.515 40.6386C557.961 40.3662 558.294 39.9433 558.456 39.4463C558.617 38.9493 558.596 38.4111 558.395 37.9286C557.792 37.1768 557.122 36.4807 556.395 35.8486L553.335 39.6186Z" fill="#101011" fill-opacity="0.19"/>
<path d="M79.1449 372.048C79.1449 372.048 111.465 370.358 126.145 372.048C112.545 374.268 79.1449 372.048 79.1449 372.048Z" fill="#101011" fill-opacity="0.19"/>
<path d="M364.225 370.899C364.225 370.899 429.825 365.239 437.905 366.049C416.645 367.599 368.925 370.359 364.225 370.899Z" fill="#101011" fill-opacity="0.19"/>
<path d="M427.025 377.019C427.025 377.019 460.305 382.699 468.295 383.259C448.035 382.879 428.325 378.779 427.025 377.019Z" fill="#101011" fill-opacity="0.19"/>
<path d="M495.995 372.989L529.005 370.259L536.335 370.899L495.995 372.989Z" fill="#101011" fill-opacity="0.19"/>
<path d="M555.085 40.3688C556.427 40.3688 557.515 39.2808 557.515 37.9388C557.515 36.5967 556.427 35.5088 555.085 35.5088C553.743 35.5088 552.655 36.5967 552.655 37.9388C552.655 39.2808 553.743 40.3688 555.085 40.3688Z" fill="#1E1D1B"/>
<path d="M557.415 37.7789C557.414 38.1016 557.349 38.421 557.225 38.7189C557.087 39.0704 556.868 39.3846 556.586 39.6361C556.305 39.8876 555.968 40.0693 555.603 40.1666C555.238 40.2639 554.855 40.2741 554.486 40.1963C554.116 40.1186 553.77 39.955 553.475 39.7189C553.407 39.6676 553.344 39.6107 553.285 39.5489C553.249 39.5181 553.216 39.4847 553.185 39.4489L552.985 39.1989C552.933 39.1259 552.886 39.049 552.845 38.9689C552.726 38.7462 552.642 38.5068 552.595 38.2589V37.9689V37.6889C552.603 37.4577 552.644 37.2288 552.715 37.0089C552.873 36.5235 553.181 36.1006 553.594 35.8006C554.007 35.5007 554.505 35.339 555.015 35.3389C555.235 35.3386 555.454 35.3689 555.665 35.4289C555.888 35.4891 556.101 35.5836 556.295 35.7089C556.36 35.7407 556.421 35.781 556.475 35.8289C556.556 35.8867 556.633 35.9502 556.705 36.0189C556.885 36.1943 557.037 36.3967 557.155 36.6189C557.196 36.6969 557.233 36.777 557.265 36.8589C557.312 36.9574 557.345 37.0616 557.365 37.1689V37.3089V37.5589C557.405 37.6889 557.415 37.6889 557.415 37.7789Z" fill="#383634"/>
<path opacity="0.26" d="M557.415 37.7786C557.414 38.1013 557.349 38.4207 557.225 38.7186L554.515 40.1686C554.148 40.0845 553.806 39.9169 553.515 39.6786L557.445 37.5786C557.405 37.6886 557.415 37.6886 557.415 37.7786Z" fill="white"/>
<path opacity="0.26" d="M556.675 36.0386L552.595 38.2186V37.9286L556.475 35.8486C556.546 35.9075 556.613 35.971 556.675 36.0386Z" fill="white"/>
<path d="M554.695 377.599C555.01 377.872 555.344 378.123 555.695 378.349C556.285 378.759 557.695 379.499 558.875 378.619C559.32 378.348 559.653 377.927 559.815 377.432C559.976 376.937 559.955 376.4 559.755 375.919C559.168 375.169 558.515 374.473 557.805 373.839L554.695 377.599Z" fill="#101011" fill-opacity="0.19"/>
<path d="M556.445 378.359C557.787 378.359 558.875 377.271 558.875 375.929C558.875 374.586 557.787 373.499 556.445 373.499C555.103 373.499 554.015 374.586 554.015 375.929C554.015 377.271 555.103 378.359 556.445 378.359Z" fill="#1E1D1B"/>
<path d="M558.825 375.769C558.823 376.087 558.762 376.403 558.645 376.699C558.459 377.142 558.146 377.521 557.746 377.787C557.346 378.054 556.876 378.197 556.395 378.199C556.242 378.21 556.088 378.21 555.935 378.199C555.568 378.116 555.226 377.948 554.935 377.709C554.867 377.658 554.804 377.601 554.745 377.539L554.645 377.439C554.576 377.36 554.513 377.276 554.455 377.189C554.397 377.114 554.347 377.034 554.305 376.949C554.186 376.726 554.102 376.487 554.055 376.239V375.959V375.689C554.064 375.455 554.104 375.222 554.175 374.999C554.336 374.516 554.645 374.096 555.058 373.798C555.47 373.501 555.966 373.34 556.475 373.339C556.695 373.339 556.914 373.369 557.125 373.429C557.35 373.488 557.566 373.579 557.765 373.699C557.826 373.737 557.883 373.78 557.935 373.829C558.016 373.887 558.093 373.95 558.165 374.019C558.348 374.192 558.5 374.395 558.615 374.619C558.615 374.689 558.695 374.779 558.735 374.859C558.775 374.939 558.805 375.069 558.835 375.169V375.309V375.559C558.765 375.629 558.825 375.689 558.825 375.769Z" fill="#383634"/>
<path opacity="0.26" d="M558.825 375.769C558.823 376.087 558.762 376.403 558.645 376.699L555.935 378.159C555.568 378.075 555.226 377.908 554.935 377.669L558.865 375.569C558.765 375.629 558.825 375.689 558.825 375.769Z" fill="white"/>
<path opacity="0.26" d="M558.035 374.029L553.955 376.199V375.919L557.835 373.839C557.906 373.898 557.973 373.961 558.035 374.029Z" fill="white"/>
<path opacity="0.26" d="M558.605 374.869L554.355 377.149C554.297 377.074 554.247 376.994 554.205 376.909L558.485 374.629C558.525 374.689 558.565 374.789 558.605 374.869Z" fill="white"/>
<path d="M27.0052 369.089C27.3206 369.362 27.6547 369.612 28.0052 369.839C28.5952 370.249 30.0052 370.989 31.1852 370.109C31.6303 369.838 31.9638 369.417 32.1252 368.922C32.2866 368.426 32.2653 367.89 32.0652 367.409C31.4781 366.659 30.8255 365.963 30.1152 365.329L27.0052 369.089Z" fill="#101011" fill-opacity="0.19"/>
<path d="M28.7551 369.849C30.0971 369.849 31.1851 368.761 31.1851 367.419C31.1851 366.077 30.0971 364.989 28.7551 364.989C27.413 364.989 26.3251 366.077 26.3251 367.419C26.3251 368.761 27.413 369.849 28.7551 369.849Z" fill="#1E1D1B"/>
<path d="M31.0851 367.259C31.0837 367.582 31.0192 367.901 30.8951 368.199C30.7088 368.639 30.3972 369.016 29.999 369.281C29.6007 369.545 29.1334 369.687 28.6551 369.689C28.4986 369.699 28.3415 369.699 28.1851 369.689C27.8184 369.605 27.4762 369.437 27.1851 369.199C27.1171 369.148 27.0536 369.091 26.995 369.029L26.8951 368.929L26.6951 368.679C26.6426 368.606 26.5958 368.529 26.5551 368.449C26.4364 368.226 26.3521 367.987 26.3051 367.739V367.449V367.229C26.3131 366.998 26.3535 366.769 26.425 366.549C26.5833 366.064 26.8909 365.641 27.304 365.341C27.7171 365.041 28.2145 364.879 28.7251 364.879C28.9448 364.879 29.1636 364.909 29.3751 364.969C29.5978 365.026 29.8103 365.117 30.0051 365.239C30.0684 365.277 30.1286 365.321 30.1851 365.369C30.2661 365.427 30.343 365.49 30.415 365.559C30.5953 365.734 30.7471 365.937 30.8651 366.159C30.9058 366.237 30.9425 366.317 30.9751 366.399C31.0219 366.497 31.0555 366.602 31.0751 366.709V366.849V367.099C31.0751 367.129 31.0851 367.189 31.0851 367.259Z" fill="#383634"/>
<path opacity="0.26" d="M29.9352 365.198L26.2352 367.198C26.2433 366.967 26.2837 366.738 26.3552 366.518L29.3552 364.938C29.56 364.997 29.7554 365.084 29.9352 365.198Z" fill="white"/>
<path opacity="0.26" d="M31.0449 366.808L26.9549 368.988L26.8549 368.888L31.0049 366.688L31.0449 366.808Z" fill="white"/>
<path opacity="0.26" d="M30.905 366.359L26.655 368.689C26.6025 368.616 26.5557 368.539 26.515 368.459L30.825 366.119C30.8556 366.197 30.8823 366.277 30.905 366.359Z" fill="white"/>
<path d="M17.1151 37.1387C17.4338 37.4076 17.7677 37.658 18.1151 37.8887C18.6951 38.2887 20.1151 39.0287 21.2851 38.1587C21.7357 37.8907 22.0734 37.4679 22.2353 36.9693C22.3972 36.4707 22.3723 35.9302 22.1651 35.4487C21.583 34.6978 20.9337 34.0015 20.2251 33.3687L17.1151 37.1387Z" fill="#101011" fill-opacity="0.19"/>
<path d="M18.8752 37.8888C20.2172 37.8888 21.3052 36.8009 21.3052 35.4588C21.3052 34.1168 20.2172 33.0288 18.8752 33.0288C17.5331 33.0288 16.4452 34.1168 16.4452 35.4588C16.4452 36.8009 17.5331 37.8888 18.8752 37.8888Z" fill="#1E1D1B"/>
<path d="M21.195 35.2987C21.1923 35.6204 21.1313 35.9389 21.015 36.2387C20.821 36.6726 20.505 37.0407 20.1055 37.2982C19.706 37.5556 19.2403 37.6913 18.765 37.6887C18.612 37.704 18.4579 37.704 18.305 37.6887C17.9388 37.6033 17.5969 37.4358 17.305 37.1987C17.2402 37.1473 17.18 37.0904 17.125 37.0287L17.025 36.9287C16.9505 36.8556 16.8835 36.7752 16.825 36.6887C16.7725 36.6158 16.7257 36.5389 16.685 36.4587C16.562 36.2379 16.4775 35.9979 16.435 35.7487C16.4252 35.6523 16.4252 35.5552 16.435 35.4587C16.4297 35.4089 16.4297 35.3586 16.435 35.3087C16.4301 35.2856 16.4301 35.2618 16.435 35.2387C16.4333 35.0067 16.474 34.7762 16.555 34.5587C16.7464 33.9646 17.1608 33.4679 17.711 33.1732C18.2613 32.8785 18.9044 32.8088 19.505 32.9787C19.7275 33.041 19.9397 33.1353 20.135 33.2587C20.1972 33.2952 20.2573 33.3353 20.315 33.3787L20.535 33.5687C20.7153 33.7441 20.8671 33.9466 20.985 34.1687C21.0329 34.2445 21.0731 34.3249 21.105 34.4087C21.105 34.5087 21.175 34.6187 21.205 34.7187V34.8587C21.2147 34.9418 21.2147 35.0257 21.205 35.1087C21.2059 35.1722 21.2026 35.2357 21.195 35.2987Z" fill="#383634"/>
<path opacity="0.26" d="M20.4552 33.5587L16.3852 35.7387C16.3754 35.6422 16.3754 35.5451 16.3852 35.4487L20.2652 33.3687L20.4552 33.5587Z" fill="white"/>
<path opacity="0.26" d="M21.155 34.8485L17.075 37.0285L16.975 36.9285L21.125 34.6885L21.155 34.8485Z" fill="white"/>
<path opacity="0.26" d="M21.0249 34.3985L16.8249 36.6885C16.7725 36.6155 16.7257 36.5386 16.6849 36.4585L20.9549 34.1685C20.9851 34.2429 21.0085 34.3199 21.0249 34.3985Z" fill="white"/>
</g>
<defs>
<filter id="filter0_d" x="0.474976" y="0.558594" width="575.85" height="409.47" filterUnits="userSpaceOnUse" color-interpolation-filters="sRGB">
<feFlood flood-opacity="0" result="BackgroundImageFix"/>
<feColorMatrix in="SourceAlpha" type="matrix" values="0 0 0 0 0 0 0 0 0 0 0 0 0 0 0 0 0 0 127 0" result="hardAlpha"/>
<feOffset dy="4"/>
<feGaussianBlur stdDeviation="2"/>
<feComposite in2="hardAlpha" operator="out"/>
<feColorMatrix type="matrix" values="0 0 0 0 0 0 0 0 0 0 0 0 0 0 0 0 0 0 0.25 0"/>
<feBlend mode="normal" in2="BackgroundImageFix" result="effect1_dropShadow"/>
<feBlend mode="normal" in="SourceGraphic" in2="effect1_dropShadow" result="shape"/>
</filter>
<filter id="filter1_d" x="8.41649" y="31.9819" width="548.26" height="83.4" filterUnits="userSpaceOnUse" color-interpolation-filters="sRGB">
<feFlood flood-opacity="0" result="BackgroundImageFix"/>
<feColorMatrix in="SourceAlpha" type="matrix" values="0 0 0 0 0 0 0 0 0 0 0 0 0 0 0 0 0 0 127 0" result="hardAlpha"/>
<feOffset dy="4"/>
<feGaussianBlur stdDeviation="5"/>
<feComposite in2="hardAlpha" operator="out"/>
<feColorMatrix type="matrix" values="0 0 0 0 0 0 0 0 0 0 0 0 0 0 0 0 0 0 0.25 0"/>
<feBlend mode="normal" in2="BackgroundImageFix" result="effect1_dropShadow"/>
<feBlend mode="normal" in="SourceGraphic" in2="effect1_dropShadow" result="shape"/>
</filter>
<linearGradient id="paint0_linear" x1="11.2749" y1="4.96859" x2="29.7049" y2="398.259" gradientUnits="userSpaceOnUse">
<stop stop-color="#C8752A"/>
<stop offset="1" stop-color="#9B5825"/>
</linearGradient>
<linearGradient id="paint1_linear" x1="16861.7" y1="51009.6" x2="80224.6" y2="152764" gradientUnits="userSpaceOnUse">
<stop stop-color="#C8752A"/>
<stop offset="1" stop-color="#9B5825"/>
</linearGradient>
<linearGradient id="paint2_linear" x1="33248.9" y1="3772.01" x2="302851" y2="-112115" gradientUnits="userSpaceOnUse">
<stop stop-color="#C8752A"/>
<stop offset="1" stop-color="#9B5825"/>
</linearGradient>
<linearGradient id="paint3_linear" x1="3809.01" y1="11516.9" x2="223462" y2="156099" gradientUnits="userSpaceOnUse">
<stop stop-color="#C8752A"/>
<stop offset="1" stop-color="#9B5825"/>
</linearGradient>
</defs>
</svg>
