<svg width="24" height="24" viewBox="0 0 24 24" fill="none" xmlns="http://www.w3.org/2000/svg">
<path d="M23.7552 11.6367L0.640182 0.0460779C0.54623 -0.000903554 0.438461 -0.0119579 0.336219 0.0129146C0.101339 0.0709505 -0.0451162 0.308621 0.0129131 0.546292L2.39488 10.2797C2.4308 10.4262 2.53857 10.5451 2.68226 10.592L6.76365 11.9932L2.68502 13.3943C2.54133 13.4441 2.43356 13.5602 2.4004 13.7066L0.0129131 23.4539C-0.0119566 23.5562 -0.000903297 23.6639 0.0460728 23.7551C0.153841 23.9735 0.419118 24.0619 0.640182 23.9541L23.7552 12.4298C23.8408 12.3884 23.9099 12.3165 23.9541 12.2336C24.0619 12.0125 23.9735 11.7472 23.7552 11.6367ZM2.73752 20.6848L4.12746 15.0028L12.2847 12.2032C12.3483 12.1811 12.4008 12.1314 12.4229 12.065C12.4616 11.949 12.4008 11.8246 12.2847 11.7832L4.12746 8.98637L2.74305 3.32649L20.0966 12.0291L2.73752 20.6848Z" fill="#68360F"/>
</svg>
