<svg width="61" height="68" viewBox="0 0 61 68" fill="none" xmlns="http://www.w3.org/2000/svg">
<g filter="url(#filter0_d)">
<path d="M37.8006 35.3144L38.6792 38.8146L42.7056 43.1049L45.3357 42.0986L37.8006 35.3144Z" fill="#59220A"/>
<path d="M5.35297 16.0057L7.19429 21.4876L12.7814 25.2671L11.6853 19.9017L5.35297 16.0057Z" fill="#59220A"/>
<path d="M37.5705 5.69998L35.8204 7.34482L31.2802 3.11905H35.2814L37.5705 5.69998Z" fill="#59220A"/>
<path d="M46.7041 11.857L47.5434 14.8379L54.2462 18.2651L46.7041 11.857Z" fill="#59220A"/>
<path d="M54.6602 46.1486C54.8016 45.8395 54.9162 45.5188 55.0027 45.1901L54.6602 46.1486Z" fill="#59220A"/>
<path d="M53.108 39.7168L50.4414 38.1646C47.8142 36.5478 47.5812 32.9045 49.7397 30.9284C49.9565 30.7312 50.1914 30.555 50.4414 30.4021L53.108 28.8499C53.9017 28.3817 54.5371 27.6867 54.9325 26.8542V26.8542V26.8472C55.1275 26.4358 55.2545 25.9955 55.3086 25.5434L56.5057 21.371L56.9268 19.903H52.9213L52.4427 19.0861C51.1123 16.8687 48.4457 16.2035 46.45 17.5339L43.7835 19.0861C40.9008 20.8615 37.1312 18.6427 37.1312 15.3165V12.2121C37.1278 11.0375 36.6601 9.91189 35.8301 9.0808C35.0001 8.24972 33.8751 7.7806 32.7005 7.77579H28.2656C27.0901 7.77912 25.9636 8.24758 25.1324 9.07883C24.3011 9.91007 23.8327 11.0365 23.8293 12.2121V14.5797C22.9593 13.829 21.9428 13.2675 20.8442 12.9306L21.3368 14.713L21.842 16.5375L23.2792 17.1901C22.1311 19.2335 19.3916 20.2271 17.177 18.863L14.5104 17.5325C14.0176 17.2313 13.4693 17.0322 12.898 16.9473C12.3267 16.8623 11.7441 16.8932 11.185 17.038C10.6258 17.1828 10.1016 17.4387 9.64333 17.7903C9.18511 18.1419 8.80231 18.5821 8.51774 19.0847L8.28055 19.5002L11.4551 23.2895L6.3424 19.9015H4.18109L4.74247 21.8565L5.78383 25.476C5.83262 26.194 6.04503 26.8913 6.40481 27.5145C6.76459 28.1377 7.26219 28.6704 7.85952 29.0717L10.5261 30.6239C10.7689 30.7541 10.9975 30.9093 11.2081 31.087C13.3877 32.9199 13.1603 36.7457 10.5261 38.1646L7.85952 39.7168C7.80479 39.7477 7.75426 39.7827 7.70374 39.8178L4.1853 39.7729L4.72423 41.3897L5.75435 44.4899L5.86522 44.8183L5.87224 44.8267C5.97919 45.1362 6.12391 45.4313 6.3031 45.7053L8.52054 49.4749C9.85101 51.6924 12.5176 52.3576 14.5133 51.0271L17.1798 49.6967C19.473 48.2862 22.3262 49.3991 23.3985 51.5899C23.6853 52.1742 23.8337 52.8168 23.8321 53.4677V53.6277H23.449L23.4644 53.761L23.8574 57.0199C23.8548 57.0366 23.8548 57.0536 23.8574 57.0704C23.9852 58.1503 24.5038 59.1462 25.3154 59.8701C26.1269 60.594 27.1753 60.9959 28.2628 61H32.7005C33.7448 60.9973 34.755 60.6274 35.554 59.9549C36.353 59.2823 36.89 58.3502 37.0708 57.3216L37.1213 56.9174L37.5059 53.754L37.5494 53.399H37.1466C37.1801 52.8431 37.3232 52.2994 37.5676 51.799C37.8717 51.1872 38.3093 50.6514 38.8481 50.2312C39.3868 49.811 40.013 49.5171 40.6805 49.3711C41.3806 49.2213 42.1072 49.2513 42.7927 49.4581C43.143 49.5661 43.4776 49.72 43.7877 49.9156L46.4542 51.4678C46.9469 51.7684 47.4949 51.9669 48.0658 52.0515C48.6366 52.1361 49.2187 52.1051 49.7773 51.9603C50.3359 51.8155 50.8598 51.5599 51.3176 51.2086C51.7755 50.8574 52.1582 50.4177 52.4427 49.9156L54.6602 46.146L55.0026 45.1874L56.1071 42.0886L56.6811 40.4803L53.95 40.4452C53.7012 40.1678 53.4183 39.923 53.108 39.7168V39.7168ZM37.155 40.2206L23.6469 40.034C22.6711 38.8522 22.0183 37.4377 21.752 35.9284C21.4857 34.4192 21.6151 32.8667 22.1275 31.4224C22.64 29.978 23.5179 28.6911 24.6759 27.6872C25.8338 26.6832 27.2321 25.9964 28.7345 25.6938C30.2369 25.3912 31.792 25.4831 33.2483 25.9606C34.7046 26.438 36.0123 27.2847 37.0439 28.4181C38.0755 29.5514 38.7958 30.9328 39.1345 32.4274C39.4733 33.9221 39.4189 35.479 38.9767 36.9464L42.7056 42.104L38.3227 38.5295C38.0005 39.1367 37.6087 39.7042 37.155 40.2206V40.2206Z" fill="#59220A"/>
<path d="M54.5816 35.0237L52.0273 33.5332L51.7466 33.369C50.8215 32.8063 50.1152 31.9457 49.7439 30.9285C49.3522 29.8752 49.3378 28.7188 49.7029 27.656C50.0681 26.5933 50.7903 25.69 51.7466 25.1L54.583 23.4467C55.4151 22.9576 56.0863 22.2362 56.5141 21.371C56.8514 20.6926 57.0032 19.937 56.9539 19.181C56.9046 18.425 56.656 17.6955 56.2334 17.0666L55.5472 15.899L53.8714 13.05C53.7154 12.7886 53.5365 12.5415 53.3367 12.3118C53.3213 12.2921 53.3045 12.2739 53.2876 12.2542C51.7677 10.5462 49.358 10.1491 47.4914 11.3967L46.7027 11.857L49.5643 14.3538L53.675 17.9396L48.5454 14.9039L45.0368 12.8282L44.6564 13.05C43.0467 14.0408 41.1787 13.864 39.764 12.9602C39.0957 12.5442 38.5437 11.9656 38.1598 11.2784C37.776 10.5911 37.5727 9.8177 37.569 9.03051V7.95687L35.1481 5.57102L32.9587 3.40972L36.2961 5.06859L37.5704 5.70715C37.5695 5.32859 37.5223 4.95156 37.4301 4.5844C37.1722 3.56194 36.581 2.65452 35.75 2.00544C34.9189 1.35636 33.8953 1.00259 32.8408 1H28.0537C26.8133 1.02093 25.6306 1.52738 24.7594 2.41061C23.8882 3.29384 23.3981 4.48343 23.3942 5.72399V8.79473C23.3954 9.62087 23.1713 10.4317 22.7459 11.1399C22.2859 11.8979 21.628 12.5161 20.8428 12.9279L23.7704 15.7979L25.4026 17.4035L23.6651 16.2554L21.3326 14.7117L19.3832 13.4261C18.3175 13.604 17.2235 13.388 16.3054 12.8184L13.4733 11.3967C12.9488 11.0756 12.3651 10.8634 11.7568 10.7728C11.1486 10.6821 10.5283 10.7149 9.933 10.8692C9.33771 11.0235 8.77959 11.2961 8.29194 11.6708C7.80428 12.0455 7.39709 12.5145 7.09464 13.05L5.35577 16.0056L7.49603 18.5627L8.28055 19.5002L11.4551 23.2895L6.34239 19.9016L5.7319 19.4974L4.24705 18.515C4.13887 19.1108 4.13365 19.7208 4.23161 20.3184C4.31943 20.8571 4.49284 21.3783 4.74527 21.8622C5.13006 22.5986 5.69433 23.2261 6.3859 23.6867L9.22086 25.3399C10.8096 26.196 11.5758 27.876 11.5197 29.525C11.5033 30.0609 11.3975 30.5902 11.2067 31.0913C10.8432 32.0675 10.1375 32.8784 9.22086 33.3733L6.3859 35.0279C4.84211 35.95 4.01127 37.4727 4.00005 39.0095C3.99614 39.8587 4.24639 40.6896 4.71861 41.3953L4.72703 41.408L7.09183 45.4246C8.50931 47.7866 11.3443 48.4968 13.4705 47.0779L16.3054 45.6604C18.8513 44.0956 22.0455 45.4485 23.0658 47.9761C23.2838 48.5167 23.3953 49.0942 23.3942 49.6771V52.985C23.3941 53.2488 23.4161 53.5122 23.4602 53.7723C23.6497 54.8719 24.2207 55.8695 25.0729 56.5897C25.9251 57.31 27.0039 57.7068 28.1196 57.7104H32.8408C33.9574 57.7066 35.0369 57.309 35.8892 56.5876C36.7415 55.8662 37.312 54.8673 37.5003 53.7667C37.5443 53.5085 37.5664 53.247 37.5662 52.985V49.9157C37.5662 46.3706 41.5815 44.0086 44.6536 45.899L47.4886 47.5523C48.0132 47.8732 48.5971 48.0853 49.2054 48.1758C49.8137 48.2664 50.434 48.2335 51.0294 48.0792C51.6247 47.925 52.1829 47.6524 52.6707 47.2779C53.1585 46.9033 53.5659 46.4344 53.8686 45.899L56.1029 42.0985L56.2306 41.8823C57.4165 39.2761 56.7078 36.4426 54.5816 35.0237ZM40.3858 40.2066L38.3227 38.5225L36.2456 36.8271C34.8771 37.8811 33.2459 38.5399 31.5293 38.7318C29.8127 38.9237 28.0763 38.6413 26.5088 37.9155C24.9414 37.1897 23.6029 36.0481 22.6389 34.6148C21.6748 33.1816 21.122 31.5115 21.0407 29.7861C21.0337 29.6457 21.0308 29.4969 21.0308 29.351C21.0383 26.8468 22.0363 24.4472 23.8071 22.6764C25.5779 20.9057 27.9774 19.9076 30.4816 19.9002C32.2711 19.895 34.0251 20.3989 35.539 21.3531C37.0528 22.3072 38.2641 23.6722 39.0314 25.2888C39.7987 26.9054 40.0905 28.7069 39.8725 30.483C39.6546 32.2592 38.936 33.9367 37.8006 35.3198L38.9767 36.9464L41.0734 39.8473L42.7056 42.1041L40.3858 40.2066Z" fill="url(#paint0_linear)"/>
<path d="M56.2348 41.8753L56.1071 42.0915L53.8728 45.892C53.5701 46.4273 53.1627 46.8963 52.6749 47.2708C52.1871 47.6454 51.6289 47.918 51.0335 48.0722C50.4382 48.2265 49.8179 48.2594 49.2096 48.1688C48.6012 48.0783 48.0174 47.8662 47.4927 47.5453L44.6578 45.892C41.5857 44.0016 37.5704 46.3636 37.5704 49.9087V52.9794C37.5706 53.2414 37.5485 53.5029 37.5044 53.7611C37.316 54.8624 36.7449 55.8619 35.8917 56.5833C35.0386 57.3048 33.9581 57.7019 32.8408 57.7048H28.1196C27.0038 57.7012 25.925 57.3044 25.0728 56.5841C24.2207 55.8639 23.6496 54.8663 23.4602 53.7667C23.4161 53.5066 23.394 53.2432 23.3942 52.9794V49.6715C23.3952 49.0886 23.2837 48.5111 23.0658 47.9705C29.1287 45.7853 35.0681 43.0065 40.3857 40.2066L42.7056 42.0985L41.0734 39.8417C45.2009 37.644 48.9327 35.4504 52.0203 33.5262L54.5745 35.0167C56.7078 36.4426 57.4165 39.2762 56.2348 41.8753Z" fill="#101011" fill-opacity="0.1"/>
<path d="M29.5442 49.7641L29.4417 49.7346C25.1739 48.4491 19.9769 37.7184 19.8632 37.4826C22.6084 39.0713 26.5085 45.4247 29.5442 49.7641Z" fill="#59220A"/>
<path d="M46.3139 37.1865C46.2989 37.171 46.2848 37.1546 46.2718 37.1374C46.255 37.1177 46.2381 37.0953 46.2213 37.0728C46.2044 37.0504 46.2213 37.0728 46.2213 37.0658C44.4782 34.6547 42.3997 17.3558 42.3534 16.9671V16.9769C43.4677 19.5971 45.0452 29.9433 46.283 37.0686L46.3139 37.1865Z" fill="#59220A"/>
<path d="M29.5442 49.7641L29.4417 49.7346C27.2341 48.9417 20.0246 37.7338 19.8632 37.4826C22.6084 39.0713 26.5085 45.4247 29.5442 49.7641Z" fill="#3F180A"/>
<path opacity="0.05" d="M4.24421 18.5151L5.72906 19.4975C5.21446 19.7782 4.71437 20.0514 4.22877 20.3171C4.13098 19.72 4.1362 19.1105 4.24421 18.5151V18.5151Z" fill="white"/>
<path opacity="0.05" d="M16.3054 12.8143C16.7888 13.1143 17.3253 13.3187 17.8857 13.4164C14.2578 15.1384 10.6748 16.897 7.49322 18.5628L5.35297 16.0058L7.09183 13.0501C7.39427 12.5143 7.80159 12.0449 8.28946 11.67C8.77734 11.295 9.33576 11.0223 9.93139 10.868C10.527 10.7137 11.1476 10.681 11.7562 10.7718C12.3647 10.8627 12.9487 11.0753 13.4733 11.3969L16.3054 12.8143Z" fill="white"/>
<path opacity="0.05" d="M36.2975 5.06727L32.9601 3.4084L35.1495 5.56971C31.6633 7.09666 27.2902 9.04323 22.7458 11.1428C23.1718 10.4338 23.3959 9.62192 23.3942 8.79482V5.72549C23.3981 4.48493 23.8882 3.29533 24.7594 2.4121C25.6305 1.52887 26.8133 1.02243 28.0537 1.0015H32.8408C33.8928 1.00508 34.9138 1.35815 35.7432 2.0052C36.5727 2.65225 37.1636 3.55659 37.4231 4.57607L36.2975 5.06727Z" fill="white"/>
<path opacity="0.05" d="M48.5467 14.9039L35.9999 21.6938C34.3962 20.528 32.4643 19.9005 30.4816 19.9016C27.9774 19.909 25.5778 20.9071 23.8071 22.6779C22.0363 24.4486 21.0382 26.8482 21.0308 29.3524C21.0308 29.4927 21.0308 29.6429 21.0406 29.7875L4.0014 39.0053C4.00842 37.4685 4.84347 35.9458 6.38726 35.0237L9.22222 33.3691C10.1389 32.8742 10.8446 32.0633 11.2081 31.0871C11.3989 30.586 11.5047 30.0567 11.5211 29.5208L39.7696 12.9602C41.1843 13.864 43.0523 14.0408 44.662 13.05L45.0423 12.8282L48.5467 14.9039Z" fill="white"/>
<path opacity="0.05" d="M53.3382 12.3118L49.5657 14.3539L46.7041 11.8571L47.4928 11.3968C49.358 10.1533 51.7691 10.5463 53.2891 12.2543C53.3059 12.2739 53.3227 12.2922 53.3382 12.3118Z" fill="white"/>
<path d="M46.2858 37.0644L46.2647 37.1374C46.2437 37.1195 46.2265 37.0975 46.2142 37.0728C46.2142 37.0728 46.2142 37.0728 46.2142 37.0658C45.4521 35.6862 42.3561 16.9671 42.3561 16.9671C43.4719 19.5929 45.0508 29.9391 46.2858 37.0644Z" fill="#3F180A"/>
</g>
<defs>
<filter id="filter0_d" x="0" y="0" width="60.9629" height="68" filterUnits="userSpaceOnUse" color-interpolation-filters="sRGB">
<feFlood flood-opacity="0" result="BackgroundImageFix"/>
<feColorMatrix in="SourceAlpha" type="matrix" values="0 0 0 0 0 0 0 0 0 0 0 0 0 0 0 0 0 0 127 0" result="hardAlpha"/>
<feOffset dy="3"/>
<feGaussianBlur stdDeviation="2"/>
<feComposite in2="hardAlpha" operator="out"/>
<feColorMatrix type="matrix" values="0 0 0 0 0 0 0 0 0 0 0 0 0 0 0 0 0 0 0.25 0"/>
<feBlend mode="normal" in2="BackgroundImageFix" result="effect1_dropShadow"/>
<feBlend mode="normal" in="SourceGraphic" in2="effect1_dropShadow" result="shape"/>
</filter>
<linearGradient id="paint0_linear" x1="19.5516" y1="1.34946" x2="40.8405" y2="55.667" gradientUnits="userSpaceOnUse">
<stop stop-color="#EA862D"/>
<stop offset="1" stop-color="#C87535"/>
</linearGradient>
</defs>
</svg>
